<?xml version="1.0" encoding="utf-8"?>
<svg viewBox="310.945 -31.396 375 375" width="375" height="375" xmlns="http://www.w3.org/2000/svg">
  <path fill="#2184f8" d="M 633.058 151.296 L 556.136 151.296 C 554.406 151.296 552.675 151.21 550.953 151.042 C 549.23 150.87 547.519 150.616 545.82 150.28 C 544.121 149.94 542.441 149.522 540.785 149.018 C 539.129 148.514 537.5 147.932 535.898 147.272 C 534.297 146.608 532.734 145.866 531.207 145.049 C 529.679 144.233 528.195 143.346 526.754 142.381 C 525.316 141.421 523.925 140.389 522.586 139.292 C 521.25 138.194 519.964 137.03 518.742 135.807 C 517.515 134.581 516.355 133.299 515.257 131.96 C 514.156 130.624 513.129 129.233 512.164 127.792 C 511.203 126.354 510.312 124.87 509.496 123.342 C 508.679 121.815 507.941 120.249 507.277 118.651 C 506.613 117.049 506.031 115.421 505.531 113.764 C 505.027 112.104 504.605 110.428 504.269 108.729 C 503.929 107.03 503.675 105.319 503.507 103.596 C 503.336 101.87 503.254 100.143 503.254 98.413 L 503.254 21.487 C 503.254 19.756 503.336 18.03 503.507 16.303 C 503.675 14.581 503.929 12.87 504.269 11.171 C 504.605 9.471 505.027 7.796 505.531 6.135 C 506.031 4.479 506.613 2.85 507.277 1.249 C 507.941 -0.349 508.679 -1.915 509.496 -3.443 C 510.312 -4.97 511.203 -6.454 512.164 -7.892 C 513.129 -9.333 514.156 -10.724 515.257 -12.06 C 516.355 -13.4 517.515 -14.681 518.742 -15.908 C 519.964 -17.13 521.25 -18.294 522.586 -19.392 C 523.925 -20.49 525.316 -21.521 526.757 -22.486 C 528.195 -23.447 529.679 -24.337 531.207 -25.154 C 532.734 -25.97 534.297 -26.708 535.898 -27.372 C 537.5 -28.033 539.129 -28.615 540.785 -29.119 C 542.441 -29.622 544.121 -30.044 545.82 -30.38 C 547.519 -30.72 549.23 -30.97 550.953 -31.142 C 552.675 -31.31 554.406 -31.396 556.136 -31.396 L 633.058 -31.396 C 634.793 -31.396 636.519 -31.31 638.242 -31.142 C 639.968 -30.974 641.679 -30.72 643.379 -30.38 C 645.074 -30.044 646.754 -29.622 648.41 -29.119 C 650.07 -28.615 651.699 -28.033 653.297 -27.372 C 654.898 -26.708 656.461 -25.97 657.988 -25.154 C 659.515 -24.337 661 -23.447 662.441 -22.486 C 663.882 -21.521 665.269 -20.49 666.609 -19.392 C 667.949 -18.294 669.23 -17.13 670.453 -15.908 C 671.679 -14.681 672.839 -13.4 673.941 -12.06 C 675.039 -10.724 676.07 -9.333 677.031 -7.892 C 677.996 -6.454 678.882 -4.97 679.699 -3.443 C 680.515 -1.915 681.257 -0.349 681.918 1.249 C 682.582 2.85 683.164 4.479 683.668 6.135 C 684.172 7.796 684.589 9.471 684.929 11.171 C 685.265 12.87 685.519 14.581 685.691 16.303 C 685.859 18.03 685.945 19.756 685.945 21.487 L 685.945 98.413 C 685.945 100.143 685.859 101.87 685.691 103.596 C 685.519 105.319 685.265 107.03 684.929 108.729 C 684.589 110.428 684.172 112.104 683.668 113.764 C 683.164 115.421 682.582 117.049 681.918 118.651 C 681.257 120.249 680.515 121.815 679.699 123.342 C 678.882 124.87 677.996 126.354 677.031 127.792 C 676.07 129.233 675.039 130.624 673.941 131.96 C 672.839 133.299 671.679 134.581 670.453 135.807 C 669.23 137.03 667.949 138.194 666.609 139.292 C 665.269 140.389 663.882 141.421 662.441 142.381 C 661 143.346 659.515 144.233 657.988 145.049 C 656.461 145.866 654.898 146.608 653.297 147.272 C 651.699 147.932 650.07 148.514 648.41 149.018 C 646.754 149.522 645.074 149.94 643.379 150.28 C 641.679 150.616 639.968 150.87 638.242 151.042 C 636.519 151.21 634.793 151.296 633.058 151.296 Z M 556.136 -2.552 C 555.351 -2.552 554.562 -2.513 553.781 -2.435 C 552.996 -2.357 552.218 -2.244 551.449 -2.087 C 550.675 -1.935 549.914 -1.744 549.16 -1.517 C 548.406 -1.286 547.664 -1.021 546.937 -0.72 C 546.211 -0.419 545.5 -0.083 544.804 0.288 C 544.109 0.659 543.437 1.065 542.781 1.503 C 542.129 1.94 541.496 2.405 540.886 2.905 C 540.277 3.405 539.695 3.932 539.14 4.491 C 538.582 5.046 538.054 5.631 537.554 6.237 C 537.054 6.846 536.586 7.479 536.148 8.131 C 535.711 8.788 535.308 9.464 534.937 10.155 C 534.566 10.85 534.23 11.561 533.929 12.288 C 533.629 13.018 533.363 13.756 533.132 14.51 C 532.906 15.264 532.714 16.026 532.558 16.799 C 532.406 17.569 532.293 18.35 532.214 19.131 C 532.136 19.917 532.097 20.702 532.097 21.487 L 532.097 98.413 C 532.097 99.198 532.136 99.983 532.214 100.768 C 532.293 101.549 532.406 102.331 532.558 103.1 C 532.714 103.874 532.906 104.635 533.132 105.389 C 533.363 106.143 533.629 106.881 533.929 107.612 C 534.23 108.339 534.566 109.049 534.937 109.745 C 535.308 110.436 535.711 111.112 536.148 111.768 C 536.586 112.421 537.054 113.053 537.554 113.663 C 538.054 114.268 538.582 114.854 539.14 115.409 C 539.695 115.967 540.277 116.495 540.886 116.995 C 541.496 117.491 542.129 117.96 542.781 118.397 C 543.437 118.835 544.109 119.241 544.804 119.612 C 545.5 119.983 546.211 120.319 546.937 120.62 C 547.664 120.921 548.406 121.186 549.16 121.413 C 549.914 121.643 550.675 121.835 551.449 121.987 C 552.218 122.143 552.996 122.256 553.781 122.335 C 554.562 122.413 555.351 122.448 556.136 122.448 L 633.058 122.448 C 633.847 122.448 634.632 122.413 635.418 122.335 C 636.199 122.256 636.976 122.143 637.75 121.987 C 638.523 121.835 639.285 121.643 640.039 121.413 C 640.793 121.186 641.531 120.921 642.257 120.62 C 642.988 120.319 643.699 119.983 644.39 119.612 C 645.086 119.241 645.761 118.835 646.414 118.397 C 647.07 117.96 647.703 117.491 648.308 116.995 C 648.918 116.495 649.5 115.967 650.058 115.409 C 650.613 114.854 651.144 114.268 651.64 113.663 C 652.14 113.053 652.609 112.421 653.047 111.768 C 653.484 111.112 653.89 110.436 654.261 109.745 C 654.632 109.049 654.968 108.339 655.269 107.612 C 655.57 106.881 655.836 106.143 656.062 105.389 C 656.293 104.635 656.484 103.874 656.636 103.1 C 656.789 102.331 656.906 101.549 656.984 100.768 C 657.058 99.983 657.097 99.198 657.097 98.413 L 657.097 21.487 C 657.097 20.702 657.058 19.917 656.984 19.131 C 656.906 18.35 656.789 17.569 656.636 16.799 C 656.484 16.026 656.293 15.264 656.062 14.51 C 655.836 13.756 655.57 13.018 655.269 12.288 C 654.968 11.561 654.632 10.85 654.261 10.155 C 653.89 9.464 653.484 8.788 653.047 8.131 C 652.609 7.479 652.14 6.846 651.64 6.237 C 651.14 5.631 650.613 5.046 650.058 4.491 C 649.5 3.932 648.918 3.405 648.308 2.905 C 647.703 2.405 647.07 1.94 646.414 1.503 C 645.761 1.065 645.086 0.659 644.39 0.288 C 643.699 -0.083 642.988 -0.419 642.257 -0.72 C 641.531 -1.021 640.793 -1.286 640.039 -1.517 C 639.285 -1.744 638.523 -1.935 637.75 -2.087 C 636.976 -2.244 636.199 -2.357 635.418 -2.435 C 634.632 -2.513 633.847 -2.552 633.058 -2.552 L 556.136 -2.552 Z M 556.136 -2.552" fill-rule="nonzero" style="fill-opacity: 0.69;"/>
  <path fill="#2184f8" d="M 421.523 151.296 L 363.828 151.296 C 362.097 151.296 360.371 151.21 358.644 151.042 C 356.922 150.87 355.211 150.616 353.511 150.28 C 351.812 149.94 350.136 149.522 348.476 149.018 C 346.82 148.514 345.191 147.932 343.589 147.272 C 341.992 146.608 340.425 145.866 338.898 145.049 C 337.371 144.233 335.886 143.346 334.449 142.381 C 333.007 141.421 331.617 140.389 330.281 139.292 C 328.941 138.194 327.66 137.03 326.433 135.807 C 325.211 134.581 324.047 133.299 322.949 131.96 C 321.851 130.624 320.82 129.233 319.855 127.792 C 318.894 126.354 318.004 124.87 317.187 123.342 C 316.371 121.815 315.632 120.249 314.968 118.651 C 314.308 117.049 313.726 115.421 313.222 113.764 C 312.718 112.104 312.297 110.428 311.961 108.729 C 311.621 107.03 311.367 105.319 311.199 103.596 C 311.031 101.87 310.945 100.143 310.945 98.413 L 310.945 40.717 C 310.945 38.987 311.031 37.26 311.199 35.534 C 311.371 33.811 311.621 32.1 311.961 30.401 C 312.297 28.702 312.718 27.026 313.222 25.366 C 313.726 23.71 314.308 22.081 314.968 20.479 C 315.632 18.881 316.371 17.315 317.187 15.788 C 318.004 14.26 318.894 12.776 319.855 11.339 C 320.82 9.897 321.851 8.506 322.949 7.171 C 324.047 5.831 325.211 4.549 326.433 3.323 C 327.66 2.1 328.941 0.936 330.281 -0.161 C 331.617 -1.259 333.007 -2.29 334.449 -3.251 C 335.886 -4.216 337.371 -5.103 338.898 -5.919 C 340.425 -6.736 341.992 -7.478 343.589 -8.142 C 345.191 -8.802 346.82 -9.384 348.476 -9.888 C 350.136 -10.392 351.812 -10.81 353.511 -11.15 C 355.211 -11.486 356.922 -11.74 358.644 -11.911 C 360.371 -12.079 362.097 -12.165 363.828 -12.165 L 421.523 -12.165 C 423.254 -12.165 424.98 -12.079 426.707 -11.911 C 428.429 -11.74 430.14 -11.486 431.839 -11.15 C 433.539 -10.81 435.214 -10.392 436.875 -9.888 C 438.531 -9.384 440.16 -8.802 441.757 -8.142 C 443.359 -7.478 444.922 -6.736 446.453 -5.919 C 447.98 -5.103 449.461 -4.216 450.902 -3.251 C 452.343 -2.29 453.73 -1.259 455.07 -0.161 C 456.41 0.936 457.691 2.1 458.918 3.323 C 460.14 4.549 461.304 5.831 462.402 7.171 C 463.5 8.506 464.531 9.897 465.492 11.339 C 466.457 12.776 467.343 14.26 468.16 15.788 C 468.976 17.315 469.718 18.881 470.379 20.479 C 471.043 22.081 471.625 23.71 472.129 25.366 C 472.632 27.026 473.05 28.702 473.39 30.401 C 473.726 32.1 473.98 33.811 474.152 35.534 C 474.32 37.26 474.406 38.987 474.406 40.717 L 474.406 98.413 C 474.406 100.143 474.32 101.87 474.152 103.596 C 473.98 105.319 473.726 107.03 473.39 108.729 C 473.05 110.428 472.632 112.104 472.129 113.764 C 471.625 115.421 471.043 117.049 470.379 118.651 C 469.718 120.249 468.976 121.815 468.16 123.342 C 467.343 124.87 466.457 126.354 465.492 127.792 C 464.531 129.233 463.5 130.624 462.402 131.96 C 461.304 133.299 460.14 134.581 458.918 135.807 C 457.691 137.03 456.41 138.194 455.07 139.292 C 453.73 140.389 452.343 141.421 450.902 142.381 C 449.461 143.346 447.98 144.233 446.453 145.049 C 444.922 145.866 443.359 146.608 441.757 147.272 C 440.16 147.932 438.531 148.514 436.875 149.018 C 435.214 149.522 433.539 149.94 431.839 150.28 C 430.14 150.616 428.429 150.87 426.707 151.042 C 424.98 151.21 423.254 151.296 421.523 151.296 Z M 363.828 16.682 C 363.043 16.682 362.257 16.717 361.472 16.796 C 360.691 16.874 359.91 16.987 359.14 17.143 C 358.367 17.296 357.605 17.487 356.851 17.717 C 356.097 17.944 355.359 18.21 354.629 18.51 C 353.902 18.811 353.191 19.147 352.496 19.518 C 351.804 19.889 351.129 20.296 350.472 20.733 C 349.82 21.171 349.187 21.639 348.578 22.135 C 347.972 22.635 347.386 23.163 346.832 23.721 C 346.273 24.276 345.746 24.862 345.246 25.467 C 344.746 26.077 344.281 26.71 343.843 27.362 C 343.406 28.018 343 28.694 342.629 29.385 C 342.257 30.081 341.922 30.792 341.621 31.518 C 341.32 32.249 341.054 32.987 340.824 33.741 C 340.597 34.495 340.406 35.256 340.254 36.03 C 340.097 36.803 339.984 37.581 339.906 38.362 C 339.828 39.147 339.789 39.932 339.789 40.717 L 339.789 98.413 C 339.789 99.198 339.828 99.983 339.906 100.768 C 339.984 101.549 340.097 102.331 340.254 103.1 C 340.406 103.874 340.597 104.635 340.824 105.389 C 341.054 106.143 341.32 106.881 341.621 107.612 C 341.922 108.339 342.257 109.049 342.629 109.745 C 343 110.436 343.406 111.112 343.843 111.768 C 344.281 112.421 344.746 113.053 345.246 113.663 C 345.746 114.268 346.273 114.854 346.832 115.409 C 347.386 115.967 347.972 116.495 348.578 116.995 C 349.187 117.491 349.82 117.96 350.472 118.397 C 351.129 118.835 351.804 119.241 352.496 119.612 C 353.191 119.983 353.902 120.319 354.629 120.62 C 355.359 120.921 356.097 121.186 356.851 121.413 C 357.605 121.643 358.367 121.835 359.14 121.987 C 359.91 122.143 360.691 122.256 361.472 122.335 C 362.257 122.413 363.043 122.448 363.828 122.448 L 421.523 122.448 C 422.308 122.448 423.093 122.413 423.879 122.335 C 424.66 122.256 425.437 122.143 426.211 121.987 C 426.984 121.835 427.746 121.643 428.5 121.413 C 429.254 121.186 429.992 120.921 430.722 120.62 C 431.449 120.319 432.16 119.983 432.851 119.612 C 433.547 119.241 434.222 118.835 434.875 118.397 C 435.531 117.96 436.164 117.491 436.769 116.995 C 437.379 116.495 437.961 115.967 438.519 115.409 C 439.074 114.854 439.605 114.268 440.105 113.663 C 440.601 113.053 441.07 112.421 441.507 111.768 C 441.945 111.112 442.351 110.436 442.722 109.745 C 443.093 109.049 443.429 108.339 443.73 107.612 C 444.031 106.881 444.297 106.143 444.523 105.389 C 444.754 104.635 444.945 103.874 445.097 103.1 C 445.25 102.331 445.367 101.549 445.445 100.768 C 445.523 99.983 445.558 99.198 445.558 98.413 L 445.558 40.717 C 445.558 39.932 445.523 39.147 445.445 38.362 C 445.367 37.581 445.25 36.803 445.097 36.03 C 444.945 35.256 444.754 34.495 444.523 33.741 C 444.297 32.987 444.031 32.249 443.73 31.518 C 443.429 30.792 443.093 30.081 442.722 29.385 C 442.351 28.694 441.945 28.018 441.507 27.362 C 441.07 26.71 440.601 26.077 440.105 25.467 C 439.605 24.862 439.074 24.276 438.519 23.721 C 437.961 23.163 437.379 22.635 436.769 22.135 C 436.164 21.639 435.531 21.171 434.875 20.733 C 434.222 20.296 433.547 19.889 432.851 19.518 C 432.16 19.147 431.449 18.811 430.722 18.51 C 429.992 18.21 429.254 17.944 428.5 17.717 C 427.746 17.487 426.984 17.296 426.211 17.143 C 425.437 16.987 424.66 16.874 423.879 16.796 C 423.093 16.717 422.308 16.682 421.523 16.682 L 363.828 16.682 Z M 363.828 16.682" fill-rule="nonzero" style="fill-opacity: 0.69;"/>
  <path fill="#2184f8" d="M 613.828 343.604 L 556.136 343.604 C 554.406 343.604 552.675 343.518 550.953 343.35 C 549.23 343.178 547.519 342.924 545.82 342.589 C 544.121 342.249 542.441 341.831 540.785 341.327 C 539.129 340.823 537.5 340.241 535.898 339.577 C 534.297 338.917 532.734 338.174 531.207 337.358 C 529.679 336.542 528.195 335.655 526.754 334.69 C 525.316 333.729 523.925 332.698 522.586 331.6 C 521.25 330.499 519.964 329.339 518.742 328.112 C 517.515 326.889 516.355 325.608 515.257 324.268 C 514.156 322.928 513.129 321.542 512.164 320.1 C 511.203 318.659 510.312 317.174 509.496 315.647 C 508.679 314.12 507.941 312.557 507.277 310.956 C 506.613 309.358 506.031 307.729 505.531 306.069 C 505.027 304.413 504.605 302.733 504.269 301.038 C 503.929 299.339 503.675 297.628 503.507 295.901 C 503.336 294.178 503.254 292.452 503.254 290.717 L 503.254 233.026 C 503.254 231.296 503.336 229.565 503.507 227.842 C 503.675 226.12 503.929 224.409 504.269 222.71 C 504.605 221.01 505.027 219.331 505.531 217.674 C 506.031 216.018 506.613 214.389 507.277 212.788 C 507.941 211.19 508.679 209.624 509.496 208.096 C 510.312 206.569 511.203 205.085 512.164 203.647 C 513.129 202.206 514.156 200.815 515.257 199.475 C 516.355 198.139 517.515 196.858 518.742 195.631 C 519.964 194.405 521.25 193.245 522.586 192.147 C 523.925 191.046 525.316 190.018 526.757 189.053 C 528.195 188.092 529.679 187.202 531.207 186.385 C 532.734 185.569 534.297 184.831 535.898 184.167 C 537.5 183.506 539.129 182.921 540.785 182.421 C 542.441 181.917 544.121 181.495 545.82 181.159 C 547.519 180.819 549.23 180.565 550.953 180.397 C 552.675 180.225 554.406 180.143 556.136 180.143 L 613.828 180.143 C 615.562 180.143 617.289 180.225 619.011 180.397 C 620.738 180.565 622.449 180.819 624.148 181.159 C 625.843 181.495 627.523 181.917 629.179 182.421 C 630.839 182.921 632.468 183.506 634.066 184.167 C 635.668 184.831 637.23 185.569 638.757 186.385 C 640.285 187.202 641.769 188.092 643.211 189.053 C 644.652 190.018 646.039 191.046 647.379 192.147 C 648.718 193.245 650 194.405 651.222 195.631 C 652.449 196.858 653.609 198.139 654.711 199.475 C 655.808 200.815 656.839 202.206 657.8 203.647 C 658.761 205.085 659.652 206.569 660.468 208.096 C 661.285 209.624 662.027 211.19 662.687 212.788 C 663.351 214.389 663.933 216.018 664.437 217.674 C 664.941 219.331 665.359 221.01 665.699 222.71 C 666.035 224.409 666.289 226.12 666.461 227.842 C 666.629 229.565 666.714 231.296 666.714 233.026 L 666.714 290.717 C 666.714 292.452 666.629 294.178 666.461 295.901 C 666.289 297.628 666.035 299.339 665.699 301.038 C 665.359 302.733 664.941 304.413 664.437 306.069 C 663.933 307.729 663.351 309.358 662.687 310.956 C 662.027 312.557 661.285 314.12 660.468 315.647 C 659.652 317.174 658.761 318.659 657.8 320.1 C 656.839 321.542 655.808 322.928 654.711 324.268 C 653.609 325.608 652.449 326.889 651.222 328.112 C 650 329.339 648.718 330.499 647.379 331.6 C 646.039 332.698 644.652 333.729 643.211 334.69 C 641.769 335.655 640.285 336.542 638.757 337.358 C 637.23 338.174 635.668 338.917 634.066 339.577 C 632.468 340.241 630.839 340.823 629.179 341.327 C 627.523 341.831 625.843 342.249 624.148 342.589 C 622.449 342.924 620.738 343.178 619.011 343.35 C 617.289 343.518 615.562 343.604 613.828 343.604 Z M 556.136 208.987 C 555.351 208.987 554.562 209.026 553.781 209.104 C 552.996 209.182 552.218 209.296 551.449 209.452 C 550.675 209.604 549.914 209.796 549.16 210.022 C 548.406 210.253 547.664 210.518 546.937 210.819 C 546.211 211.12 545.5 211.456 544.804 211.827 C 544.109 212.198 543.437 212.6 542.781 213.038 C 542.129 213.475 541.496 213.944 540.886 214.444 C 540.277 214.944 539.695 215.471 539.14 216.03 C 538.582 216.585 538.054 217.167 537.554 217.776 C 537.054 218.385 536.586 219.018 536.148 219.671 C 535.711 220.327 535.308 221.003 534.937 221.694 C 534.566 222.389 534.23 223.1 533.929 223.827 C 533.629 224.553 533.363 225.296 533.132 226.049 C 532.906 226.803 532.714 227.565 532.558 228.339 C 532.406 229.108 532.293 229.885 532.214 230.671 C 532.136 231.456 532.097 232.241 532.097 233.026 L 532.097 290.717 C 532.097 291.506 532.136 292.292 532.214 293.077 C 532.293 293.858 532.406 294.635 532.558 295.409 C 532.714 296.182 532.906 296.944 533.132 297.698 C 533.363 298.452 533.629 299.19 533.929 299.917 C 534.23 300.647 534.566 301.358 534.937 302.049 C 535.308 302.745 535.711 303.421 536.148 304.073 C 536.586 304.729 537.054 305.362 537.554 305.967 C 538.054 306.577 538.582 307.159 539.14 307.717 C 539.695 308.272 540.277 308.803 540.886 309.299 C 541.496 309.799 542.129 310.268 542.781 310.706 C 543.437 311.143 544.109 311.549 544.804 311.921 C 545.5 312.292 546.211 312.628 546.937 312.928 C 547.664 313.229 548.406 313.495 549.16 313.721 C 549.914 313.952 550.675 314.143 551.449 314.296 C 552.218 314.448 552.996 314.565 553.781 314.643 C 554.562 314.717 555.351 314.756 556.136 314.756 L 613.828 314.756 C 614.617 314.756 615.402 314.717 616.183 314.643 C 616.968 314.565 617.746 314.448 618.519 314.296 C 619.293 314.143 620.054 313.952 620.808 313.721 C 621.562 313.495 622.3 313.229 623.027 312.928 C 623.754 312.628 624.464 312.292 625.16 311.921 C 625.855 311.549 626.531 311.143 627.183 310.706 C 627.839 310.268 628.468 309.799 629.078 309.299 C 629.687 308.803 630.269 308.272 630.828 307.717 C 631.382 307.159 631.91 306.577 632.41 305.967 C 632.91 305.362 633.379 304.729 633.816 304.073 C 634.254 303.421 634.66 302.745 635.031 302.049 C 635.402 301.358 635.738 300.647 636.039 299.917 C 636.339 299.19 636.605 298.452 636.832 297.698 C 637.062 296.944 637.254 296.182 637.406 295.409 C 637.558 294.635 637.675 293.858 637.754 293.077 C 637.828 292.292 637.867 291.506 637.867 290.717 L 637.867 233.026 C 637.867 232.241 637.828 231.456 637.754 230.671 C 637.675 229.885 637.558 229.108 637.406 228.339 C 637.254 227.565 637.062 226.803 636.832 226.049 C 636.605 225.296 636.339 224.553 636.039 223.827 C 635.738 223.1 635.402 222.389 635.031 221.694 C 634.656 220.999 634.254 220.327 633.816 219.671 C 633.379 219.018 632.91 218.385 632.41 217.776 C 631.91 217.167 631.382 216.585 630.828 216.03 C 630.269 215.471 629.687 214.944 629.078 214.444 C 628.468 213.944 627.839 213.475 627.183 213.038 C 626.531 212.6 625.855 212.198 625.16 211.827 C 624.464 211.456 623.754 211.12 623.027 210.819 C 622.3 210.518 621.562 210.253 620.808 210.022 C 620.054 209.796 619.293 209.604 618.519 209.452 C 617.746 209.296 616.968 209.182 616.183 209.104 C 615.402 209.026 614.617 208.987 613.828 208.987 L 556.136 208.987 Z M 556.136 208.987" fill-rule="nonzero" style="fill-opacity: 0.69;"/>
  <path fill="#2184f8" d="M 421.523 343.604 L 363.828 343.604 C 362.097 343.604 360.371 343.518 358.644 343.35 C 356.922 343.178 355.211 342.924 353.511 342.589 C 351.812 342.249 350.136 341.831 348.476 341.327 C 346.82 340.823 345.191 340.241 343.589 339.577 C 341.992 338.917 340.425 338.174 338.898 337.358 C 337.371 336.542 335.886 335.655 334.449 334.69 C 333.007 333.729 331.617 332.698 330.281 331.6 C 328.941 330.499 327.66 329.339 326.433 328.112 C 325.211 326.889 324.047 325.608 322.949 324.268 C 321.851 322.928 320.82 321.542 319.855 320.1 C 318.894 318.659 318.004 317.174 317.187 315.647 C 316.371 314.12 315.632 312.557 314.968 310.956 C 314.308 309.358 313.726 307.729 313.222 306.069 C 312.718 304.413 312.297 302.733 311.961 301.038 C 311.621 299.339 311.367 297.628 311.199 295.901 C 311.031 294.178 310.945 292.452 310.945 290.717 L 310.945 233.026 C 310.945 231.296 311.031 229.565 311.199 227.842 C 311.371 226.12 311.621 224.409 311.961 222.71 C 312.297 221.01 312.718 219.331 313.222 217.674 C 313.726 216.018 314.308 214.389 314.968 212.788 C 315.632 211.19 316.371 209.624 317.187 208.096 C 318.004 206.569 318.894 205.085 319.855 203.647 C 320.82 202.206 321.851 200.815 322.949 199.475 C 324.047 198.139 325.211 196.858 326.433 195.631 C 327.66 194.405 328.941 193.245 330.281 192.147 C 331.617 191.046 333.007 190.018 334.449 189.053 C 335.886 188.092 337.371 187.202 338.898 186.385 C 340.425 185.569 341.992 184.831 343.589 184.167 C 345.191 183.506 346.82 182.921 348.476 182.421 C 350.136 181.917 351.812 181.495 353.511 181.159 C 355.211 180.819 356.922 180.565 358.644 180.397 C 360.371 180.225 362.097 180.143 363.828 180.143 L 421.523 180.143 C 423.254 180.143 424.98 180.225 426.707 180.397 C 428.429 180.565 430.14 180.819 431.839 181.159 C 433.539 181.495 435.214 181.917 436.875 182.421 C 438.531 182.921 440.16 183.506 441.757 184.167 C 443.359 184.831 444.922 185.569 446.453 186.385 C 447.98 187.202 449.461 188.092 450.902 189.053 C 452.343 190.018 453.73 191.046 455.07 192.147 C 456.41 193.245 457.691 194.405 458.918 195.631 C 460.14 196.858 461.304 198.139 462.402 199.475 C 463.5 200.815 464.531 202.206 465.492 203.647 C 466.457 205.085 467.343 206.569 468.16 208.096 C 468.976 209.624 469.718 211.19 470.379 212.788 C 471.043 214.389 471.625 216.018 472.129 217.674 C 472.632 219.331 473.05 221.01 473.39 222.71 C 473.726 224.409 473.98 226.12 474.152 227.842 C 474.32 229.565 474.406 231.296 474.406 233.026 L 474.406 290.717 C 474.406 292.452 474.32 294.178 474.152 295.901 C 473.98 297.628 473.726 299.339 473.39 301.038 C 473.05 302.733 472.632 304.413 472.129 306.069 C 471.625 307.729 471.043 309.358 470.379 310.956 C 469.718 312.557 468.976 314.12 468.16 315.647 C 467.343 317.174 466.457 318.659 465.492 320.1 C 464.531 321.542 463.5 322.928 462.402 324.268 C 461.304 325.608 460.14 326.889 458.918 328.112 C 457.691 329.339 456.41 330.499 455.07 331.6 C 453.73 332.698 452.343 333.729 450.902 334.69 C 449.461 335.655 447.98 336.542 446.453 337.358 C 444.922 338.174 443.359 338.917 441.757 339.577 C 440.16 340.241 438.531 340.823 436.875 341.327 C 435.214 341.831 433.539 342.249 431.839 342.589 C 430.14 342.924 428.429 343.178 426.707 343.35 C 424.98 343.518 423.254 343.604 421.523 343.604 Z M 363.828 208.987 C 363.043 208.987 362.257 209.026 361.472 209.104 C 360.691 209.182 359.91 209.296 359.14 209.452 C 358.367 209.604 357.605 209.796 356.851 210.022 C 356.097 210.253 355.359 210.518 354.629 210.819 C 353.902 211.12 353.191 211.456 352.496 211.827 C 351.804 212.198 351.129 212.6 350.472 213.038 C 349.82 213.475 349.187 213.944 348.578 214.444 C 347.972 214.944 347.386 215.471 346.832 216.03 C 346.273 216.585 345.746 217.167 345.246 217.776 C 344.746 218.385 344.281 219.018 343.843 219.671 C 343.406 220.327 343 221.003 342.629 221.694 C 342.257 222.389 341.922 223.1 341.621 223.827 C 341.32 224.553 341.054 225.296 340.824 226.049 C 340.597 226.803 340.406 227.565 340.254 228.339 C 340.097 229.108 339.984 229.885 339.906 230.671 C 339.828 231.456 339.789 232.241 339.789 233.026 L 339.789 290.717 C 339.789 291.506 339.828 292.292 339.906 293.077 C 339.984 293.858 340.097 294.635 340.254 295.409 C 340.406 296.182 340.597 296.944 340.824 297.698 C 341.054 298.452 341.32 299.19 341.621 299.917 C 341.922 300.647 342.257 301.358 342.629 302.049 C 343 302.745 343.406 303.421 343.843 304.073 C 344.281 304.729 344.746 305.362 345.246 305.967 C 345.746 306.577 346.273 307.159 346.832 307.717 C 347.386 308.272 347.972 308.803 348.578 309.299 C 349.187 309.799 349.82 310.268 350.472 310.706 C 351.129 311.143 351.804 311.549 352.496 311.921 C 353.191 312.292 353.902 312.628 354.629 312.928 C 355.359 313.229 356.097 313.495 356.851 313.721 C 357.605 313.952 358.367 314.143 359.14 314.296 C 359.91 314.448 360.691 314.565 361.472 314.643 C 362.257 314.717 363.043 314.756 363.828 314.756 L 421.523 314.756 C 422.308 314.756 423.093 314.717 423.879 314.643 C 424.66 314.565 425.437 314.448 426.211 314.296 C 426.984 314.143 427.746 313.952 428.5 313.721 C 429.254 313.495 429.992 313.229 430.722 312.928 C 431.449 312.628 432.16 312.292 432.851 311.921 C 433.547 311.549 434.222 311.143 434.875 310.706 C 435.531 310.268 436.164 309.799 436.769 309.299 C 437.379 308.803 437.961 308.272 438.519 307.717 C 439.074 307.159 439.605 306.577 440.105 305.967 C 440.601 305.362 441.07 304.729 441.507 304.073 C 441.945 303.421 442.351 302.745 442.722 302.049 C 443.093 301.358 443.429 300.647 443.73 299.917 C 444.031 299.19 444.297 298.452 444.523 297.698 C 444.754 296.944 444.945 296.182 445.097 295.409 C 445.25 294.635 445.367 293.858 445.445 293.077 C 445.523 292.292 445.558 291.506 445.558 290.717 L 445.558 233.026 C 445.558 232.241 445.523 231.456 445.445 230.671 C 445.367 229.885 445.25 229.108 445.097 228.339 C 444.945 227.565 444.754 226.803 444.523 226.049 C 444.297 225.296 444.031 224.553 443.73 223.827 C 443.429 223.1 443.093 222.389 442.722 221.694 C 442.351 220.999 441.945 220.327 441.507 219.671 C 441.07 219.018 440.601 218.385 440.105 217.776 C 439.605 217.167 439.074 216.585 438.519 216.03 C 437.961 215.471 437.379 214.944 436.769 214.444 C 436.164 213.944 435.531 213.475 434.875 213.038 C 434.222 212.6 433.547 212.198 432.851 211.827 C 432.16 211.456 431.449 211.12 430.722 210.819 C 429.992 210.518 429.254 210.253 428.5 210.022 C 427.746 209.796 426.984 209.604 426.211 209.452 C 425.437 209.296 424.66 209.182 423.879 209.104 C 423.093 209.026 422.308 208.987 421.523 208.987 L 363.828 208.987 Z M 363.828 208.987" fill-rule="nonzero" style="fill-opacity: 0.69;"/>
</svg>