<?xml version="1.0" encoding="utf-8"?>
<svg viewBox="563.342 28.948 375 375" width="375" height="375" xmlns="http://www.w3.org/2000/svg">
  <path d="M 885.456 211.64 L 808.534 211.64 C 806.803 211.64 805.073 211.554 803.35 211.386 C 801.628 211.214 799.917 210.96 798.217 210.624 C 796.518 210.284 794.839 209.866 793.182 209.362 C 791.526 208.858 789.897 208.276 788.296 207.616 C 786.694 206.952 785.132 206.21 783.604 205.393 C 782.077 204.577 780.592 203.69 779.151 202.726 C 777.714 201.765 776.323 200.733 774.983 199.636 C 773.647 198.538 772.362 197.374 771.139 196.151 C 769.913 194.925 768.753 193.643 767.655 192.304 C 766.553 190.968 765.526 189.577 764.561 188.136 C 763.6 186.698 762.71 185.214 761.893 183.686 C 761.077 182.159 760.339 180.593 759.674 178.995 C 759.01 177.393 758.428 175.765 757.928 174.108 C 757.424 172.448 757.003 170.772 756.667 169.073 C 756.327 167.374 756.073 165.663 755.905 163.94 C 755.733 162.214 755.651 160.487 755.651 158.757 L 755.651 81.831 C 755.651 80.101 755.733 78.374 755.905 76.647 C 756.073 74.925 756.327 73.214 756.667 71.515 C 757.003 69.815 757.424 68.14 757.928 66.479 C 758.428 64.823 759.01 63.194 759.674 61.593 C 760.339 59.995 761.077 58.429 761.893 56.901 C 762.71 55.374 763.6 53.89 764.561 52.452 C 765.526 51.011 766.553 49.62 767.655 48.284 C 768.753 46.944 769.913 45.663 771.139 44.436 C 772.362 43.214 773.647 42.05 774.983 40.952 C 776.323 39.854 777.714 38.823 779.155 37.858 C 780.592 36.897 782.077 36.007 783.604 35.19 C 785.132 34.374 786.694 33.636 788.296 32.972 C 789.897 32.311 791.526 31.729 793.182 31.226 C 794.839 30.722 796.518 30.3 798.217 29.964 C 799.917 29.624 801.628 29.374 803.35 29.202 C 805.073 29.034 806.803 28.948 808.534 28.948 L 885.456 28.948 C 887.19 28.948 888.917 29.034 890.639 29.202 C 892.366 29.37 894.077 29.624 895.776 29.964 C 897.471 30.3 899.151 30.722 900.807 31.226 C 902.467 31.729 904.096 32.311 905.694 32.972 C 907.296 33.636 908.858 34.374 910.385 35.19 C 911.913 36.007 913.397 36.897 914.839 37.858 C 916.28 38.823 917.667 39.854 919.007 40.952 C 920.346 42.05 921.628 43.214 922.85 44.436 C 924.077 45.663 925.237 46.944 926.339 48.284 C 927.436 49.62 928.467 51.011 929.428 52.452 C 930.393 53.89 931.28 55.374 932.096 56.901 C 932.913 58.429 933.655 59.995 934.315 61.593 C 934.979 63.194 935.561 64.823 936.065 66.479 C 936.569 68.14 936.987 69.815 937.327 71.515 C 937.663 73.214 937.917 74.925 938.089 76.647 C 938.257 78.374 938.342 80.101 938.342 81.831 L 938.342 158.757 C 938.342 160.487 938.257 162.214 938.089 163.94 C 937.917 165.663 937.663 167.374 937.327 169.073 C 936.987 170.772 936.569 172.448 936.065 174.108 C 935.561 175.765 934.979 177.393 934.315 178.995 C 933.655 180.593 932.913 182.159 932.096 183.686 C 931.28 185.214 930.393 186.698 929.428 188.136 C 928.467 189.577 927.436 190.968 926.339 192.304 C 925.237 193.643 924.077 194.925 922.85 196.151 C 921.628 197.374 920.346 198.538 919.007 199.636 C 917.667 200.733 916.28 201.765 914.839 202.726 C 913.397 203.69 911.913 204.577 910.385 205.393 C 908.858 206.21 907.296 206.952 905.694 207.616 C 904.096 208.276 902.467 208.858 900.807 209.362 C 899.151 209.866 897.471 210.284 895.776 210.624 C 894.077 210.96 892.366 211.214 890.639 211.386 C 888.917 211.554 887.19 211.64 885.456 211.64 Z M 808.534 57.792 C 807.749 57.792 806.96 57.831 806.178 57.909 C 805.393 57.987 804.616 58.101 803.846 58.257 C 803.073 58.409 802.311 58.601 801.557 58.827 C 800.803 59.058 800.061 59.323 799.335 59.624 C 798.608 59.925 797.897 60.261 797.202 60.632 C 796.507 61.003 795.835 61.409 795.178 61.847 C 794.526 62.284 793.893 62.749 793.284 63.249 C 792.674 63.749 792.092 64.276 791.538 64.835 C 790.979 65.39 790.452 65.976 789.952 66.581 C 789.452 67.19 788.983 67.823 788.546 68.476 C 788.108 69.132 787.706 69.808 787.335 70.499 C 786.964 71.194 786.628 71.905 786.327 72.632 C 786.026 73.362 785.76 74.101 785.53 74.854 C 785.303 75.608 785.112 76.37 784.956 77.143 C 784.803 77.913 784.69 78.694 784.612 79.476 C 784.534 80.261 784.495 81.046 784.495 81.831 L 784.495 158.757 C 784.495 159.542 784.534 160.327 784.612 161.112 C 784.69 161.893 784.803 162.675 784.956 163.444 C 785.112 164.218 785.303 164.979 785.53 165.733 C 785.76 166.487 786.026 167.226 786.327 167.956 C 786.628 168.683 786.964 169.393 787.335 170.089 C 787.706 170.78 788.108 171.456 788.546 172.112 C 788.983 172.765 789.452 173.397 789.952 174.007 C 790.452 174.612 790.979 175.198 791.538 175.753 C 792.092 176.311 792.674 176.839 793.284 177.339 C 793.893 177.835 794.526 178.304 795.178 178.741 C 795.835 179.179 796.507 179.585 797.202 179.956 C 797.897 180.327 798.608 180.663 799.335 180.964 C 800.061 181.265 800.803 181.53 801.557 181.757 C 802.311 181.987 803.073 182.179 803.846 182.331 C 804.616 182.487 805.393 182.601 806.178 182.679 C 806.96 182.757 807.749 182.792 808.534 182.792 L 885.456 182.792 C 886.245 182.792 887.03 182.757 887.815 182.679 C 888.596 182.601 889.374 182.487 890.147 182.331 C 890.921 182.179 891.682 181.987 892.436 181.757 C 893.19 181.53 893.928 181.265 894.655 180.964 C 895.385 180.663 896.096 180.327 896.788 179.956 C 897.483 179.585 898.159 179.179 898.811 178.741 C 899.467 178.304 900.1 177.835 900.706 177.339 C 901.315 176.839 901.897 176.311 902.456 175.753 C 903.01 175.198 903.542 174.612 904.038 174.007 C 904.538 173.397 905.007 172.765 905.444 172.112 C 905.882 171.456 906.288 170.78 906.659 170.089 C 907.03 169.393 907.366 168.683 907.667 167.956 C 907.967 167.226 908.233 166.487 908.46 165.733 C 908.69 164.979 908.882 164.218 909.034 163.444 C 909.186 162.675 909.303 161.893 909.382 161.112 C 909.456 160.327 909.495 159.542 909.495 158.757 L 909.495 81.831 C 909.495 81.046 909.456 80.261 909.382 79.476 C 909.303 78.694 909.186 77.913 909.034 77.143 C 908.882 76.37 908.69 75.608 908.46 74.854 C 908.233 74.101 907.967 73.362 907.667 72.632 C 907.366 71.905 907.03 71.194 906.659 70.499 C 906.288 69.808 905.882 69.132 905.444 68.476 C 905.007 67.823 904.538 67.19 904.038 66.581 C 903.538 65.976 903.01 65.39 902.456 64.835 C 901.897 64.276 901.315 63.749 900.706 63.249 C 900.1 62.749 899.467 62.284 898.811 61.847 C 898.159 61.409 897.483 61.003 896.788 60.632 C 896.096 60.261 895.385 59.925 894.655 59.624 C 893.928 59.323 893.19 59.058 892.436 58.827 C 891.682 58.601 890.921 58.409 890.147 58.257 C 889.374 58.101 888.596 57.987 887.815 57.909 C 887.03 57.831 886.245 57.792 885.456 57.792 L 808.534 57.792 Z M 808.534 57.792" fill-opacity="1" fill-rule="nonzero" style="fill: rgb(161, 205, 250);"/>
  <path d="M 673.921 211.64 L 616.225 211.64 C 614.495 211.64 612.768 211.554 611.042 211.386 C 609.319 211.214 607.608 210.96 605.909 210.624 C 604.21 210.284 602.534 209.866 600.874 209.362 C 599.217 208.858 597.589 208.276 595.987 207.616 C 594.389 206.952 592.823 206.21 591.296 205.393 C 589.768 204.577 588.284 203.69 586.846 202.726 C 585.405 201.765 584.014 200.733 582.678 199.636 C 581.339 198.538 580.057 197.374 578.831 196.151 C 577.608 194.925 576.444 193.643 575.346 192.304 C 574.249 190.968 573.217 189.577 572.253 188.136 C 571.292 186.698 570.401 185.214 569.585 183.686 C 568.768 182.159 568.03 180.593 567.366 178.995 C 566.706 177.393 566.124 175.765 565.62 174.108 C 565.116 172.448 564.694 170.772 564.358 169.073 C 564.018 167.374 563.764 165.663 563.596 163.94 C 563.428 162.214 563.342 160.487 563.342 158.757 L 563.342 101.061 C 563.342 99.331 563.428 97.604 563.596 95.878 C 563.768 94.155 564.018 92.444 564.358 90.745 C 564.694 89.046 565.116 87.37 565.62 85.71 C 566.124 84.054 566.706 82.425 567.366 80.823 C 568.03 79.226 568.768 77.659 569.585 76.132 C 570.401 74.604 571.292 73.12 572.253 71.683 C 573.217 70.241 574.249 68.851 575.346 67.515 C 576.444 66.175 577.608 64.893 578.831 63.667 C 580.057 62.444 581.339 61.28 582.678 60.183 C 584.014 59.085 585.405 58.054 586.846 57.093 C 588.284 56.128 589.768 55.241 591.296 54.425 C 592.823 53.608 594.389 52.866 595.987 52.202 C 597.589 51.542 599.217 50.96 600.874 50.456 C 602.534 49.952 604.21 49.534 605.909 49.194 C 607.608 48.858 609.319 48.604 611.042 48.433 C 612.768 48.265 614.495 48.179 616.225 48.179 L 673.921 48.179 C 675.651 48.179 677.378 48.265 679.104 48.433 C 680.827 48.604 682.538 48.858 684.237 49.194 C 685.936 49.534 687.612 49.952 689.272 50.456 C 690.928 50.96 692.557 51.542 694.155 52.202 C 695.757 52.866 697.319 53.608 698.85 54.425 C 700.378 55.241 701.858 56.128 703.299 57.093 C 704.741 58.054 706.128 59.085 707.467 60.183 C 708.807 61.28 710.089 62.444 711.315 63.667 C 712.538 64.893 713.702 66.175 714.799 67.515 C 715.897 68.851 716.928 70.241 717.889 71.683 C 718.854 73.12 719.741 74.604 720.557 76.132 C 721.374 77.659 722.116 79.226 722.776 80.823 C 723.44 82.425 724.022 84.054 724.526 85.71 C 725.03 87.37 725.448 89.046 725.788 90.745 C 726.124 92.444 726.378 94.155 726.549 95.878 C 726.717 97.604 726.803 99.331 726.803 101.061 L 726.803 158.757 C 726.803 160.487 726.717 162.214 726.549 163.94 C 726.378 165.663 726.124 167.374 725.788 169.073 C 725.448 170.772 725.03 172.448 724.526 174.108 C 724.022 175.765 723.44 177.393 722.776 178.995 C 722.116 180.593 721.374 182.159 720.557 183.686 C 719.741 185.214 718.854 186.698 717.889 188.136 C 716.928 189.577 715.897 190.968 714.799 192.304 C 713.702 193.643 712.538 194.925 711.315 196.151 C 710.089 197.374 708.807 198.538 707.467 199.636 C 706.128 200.733 704.741 201.765 703.299 202.726 C 701.858 203.69 700.378 204.577 698.85 205.393 C 697.319 206.21 695.757 206.952 694.155 207.616 C 692.557 208.276 690.928 208.858 689.272 209.362 C 687.612 209.866 685.936 210.284 684.237 210.624 C 682.538 210.96 680.827 211.214 679.104 211.386 C 677.378 211.554 675.651 211.64 673.921 211.64 Z M 616.225 77.026 C 615.44 77.026 614.655 77.061 613.87 77.14 C 613.089 77.218 612.307 77.331 611.538 77.487 C 610.764 77.64 610.003 77.831 609.249 78.061 C 608.495 78.288 607.757 78.554 607.026 78.854 C 606.299 79.155 605.589 79.491 604.893 79.862 C 604.202 80.233 603.526 80.64 602.87 81.077 C 602.217 81.515 601.585 81.983 600.975 82.479 C 600.37 82.979 599.784 83.507 599.229 84.065 C 598.671 84.62 598.143 85.206 597.643 85.811 C 597.143 86.421 596.678 87.054 596.241 87.706 C 595.803 88.362 595.397 89.038 595.026 89.729 C 594.655 90.425 594.319 91.136 594.018 91.862 C 593.717 92.593 593.452 93.331 593.221 94.085 C 592.995 94.839 592.803 95.601 592.651 96.374 C 592.495 97.147 592.382 97.925 592.303 98.706 C 592.225 99.491 592.186 100.276 592.186 101.061 L 592.186 158.757 C 592.186 159.542 592.225 160.327 592.303 161.112 C 592.382 161.893 592.495 162.675 592.651 163.444 C 592.803 164.218 592.995 164.979 593.221 165.733 C 593.452 166.487 593.717 167.226 594.018 167.956 C 594.319 168.683 594.655 169.393 595.026 170.089 C 595.397 170.78 595.803 171.456 596.241 172.112 C 596.678 172.765 597.143 173.397 597.643 174.007 C 598.143 174.612 598.671 175.198 599.229 175.753 C 599.784 176.311 600.37 176.839 600.975 177.339 C 601.585 177.835 602.217 178.304 602.87 178.741 C 603.526 179.179 604.202 179.585 604.893 179.956 C 605.589 180.327 606.299 180.663 607.026 180.964 C 607.757 181.265 608.495 181.53 609.249 181.757 C 610.003 181.987 610.764 182.179 611.538 182.331 C 612.307 182.487 613.089 182.601 613.87 182.679 C 614.655 182.757 615.44 182.792 616.225 182.792 L 673.921 182.792 C 674.706 182.792 675.491 182.757 676.276 182.679 C 677.057 182.601 677.835 182.487 678.608 182.331 C 679.382 182.179 680.143 181.987 680.897 181.757 C 681.651 181.53 682.389 181.265 683.12 180.964 C 683.846 180.663 684.557 180.327 685.249 179.956 C 685.944 179.585 686.62 179.179 687.272 178.741 C 687.928 178.304 688.561 177.835 689.167 177.339 C 689.776 176.839 690.358 176.311 690.917 175.753 C 691.471 175.198 692.003 174.612 692.503 174.007 C 692.999 173.397 693.467 172.765 693.905 172.112 C 694.342 171.456 694.749 170.78 695.12 170.089 C 695.491 169.393 695.827 168.683 696.128 167.956 C 696.428 167.226 696.694 166.487 696.921 165.733 C 697.151 164.979 697.342 164.218 697.495 163.444 C 697.647 162.675 697.764 161.893 697.842 161.112 C 697.921 160.327 697.956 159.542 697.956 158.757 L 697.956 101.061 C 697.956 100.276 697.921 99.491 697.842 98.706 C 697.764 97.925 697.647 97.147 697.495 96.374 C 697.342 95.601 697.151 94.839 696.921 94.085 C 696.694 93.331 696.428 92.593 696.128 91.862 C 695.827 91.136 695.491 90.425 695.12 89.729 C 694.749 89.038 694.342 88.362 693.905 87.706 C 693.467 87.054 692.999 86.421 692.503 85.811 C 692.003 85.206 691.471 84.62 690.917 84.065 C 690.358 83.507 689.776 82.979 689.167 82.479 C 688.561 81.983 687.928 81.515 687.272 81.077 C 686.62 80.64 685.944 80.233 685.249 79.862 C 684.557 79.491 683.846 79.155 683.12 78.854 C 682.389 78.554 681.651 78.288 680.897 78.061 C 680.143 77.831 679.382 77.64 678.608 77.487 C 677.835 77.331 677.057 77.218 676.276 77.14 C 675.491 77.061 674.706 77.026 673.921 77.026 L 616.225 77.026 Z M 616.225 77.026" fill-opacity="1" fill-rule="nonzero" style="fill: rgb(161, 205, 250);"/>
  <path d="M 866.225 403.948 L 808.534 403.948 C 806.803 403.948 805.073 403.862 803.35 403.694 C 801.628 403.522 799.917 403.268 798.217 402.933 C 796.518 402.593 794.839 402.175 793.182 401.671 C 791.526 401.167 789.897 400.585 788.296 399.921 C 786.694 399.261 785.132 398.518 783.604 397.702 C 782.077 396.886 780.592 395.999 779.151 395.034 C 777.714 394.073 776.323 393.042 774.983 391.944 C 773.647 390.843 772.362 389.683 771.139 388.456 C 769.913 387.233 768.753 385.952 767.655 384.612 C 766.553 383.272 765.526 381.886 764.561 380.444 C 763.6 379.003 762.71 377.518 761.893 375.991 C 761.077 374.464 760.339 372.901 759.674 371.3 C 759.01 369.702 758.428 368.073 757.928 366.413 C 757.424 364.757 757.003 363.077 756.667 361.382 C 756.327 359.683 756.073 357.972 755.905 356.245 C 755.733 354.522 755.651 352.796 755.651 351.061 L 755.651 293.37 C 755.651 291.64 755.733 289.909 755.905 288.186 C 756.073 286.464 756.327 284.753 756.667 283.054 C 757.003 281.354 757.424 279.675 757.928 278.018 C 758.428 276.362 759.01 274.733 759.674 273.132 C 760.339 271.534 761.077 269.968 761.893 268.44 C 762.71 266.913 763.6 265.429 764.561 263.991 C 765.526 262.55 766.553 261.159 767.655 259.819 C 768.753 258.483 769.913 257.202 771.139 255.976 C 772.362 254.749 773.647 253.589 774.983 252.491 C 776.323 251.39 777.714 250.362 779.155 249.397 C 780.592 248.436 782.077 247.546 783.604 246.729 C 785.132 245.913 786.694 245.175 788.296 244.511 C 789.897 243.851 791.526 243.265 793.182 242.765 C 794.839 242.261 796.518 241.839 798.217 241.503 C 799.917 241.163 801.628 240.909 803.35 240.741 C 805.073 240.569 806.803 240.487 808.534 240.487 L 866.225 240.487 C 867.96 240.487 869.686 240.569 871.409 240.741 C 873.135 240.909 874.846 241.163 876.546 241.503 C 878.241 241.839 879.921 242.261 881.577 242.765 C 883.237 243.265 884.866 243.851 886.464 244.511 C 888.065 245.175 889.628 245.913 891.155 246.729 C 892.682 247.546 894.167 248.436 895.608 249.397 C 897.049 250.362 898.436 251.39 899.776 252.491 C 901.116 253.589 902.397 254.749 903.62 255.976 C 904.846 257.202 906.007 258.483 907.108 259.819 C 908.206 261.159 909.237 262.55 910.198 263.991 C 911.159 265.429 912.049 266.913 912.866 268.44 C 913.682 269.968 914.424 271.534 915.085 273.132 C 915.749 274.733 916.331 276.362 916.835 278.018 C 917.339 279.675 917.757 281.354 918.096 283.054 C 918.432 284.753 918.686 286.464 918.858 288.186 C 919.026 289.909 919.112 291.64 919.112 293.37 L 919.112 351.061 C 919.112 352.796 919.026 354.522 918.858 356.245 C 918.686 357.972 918.432 359.683 918.096 361.382 C 917.757 363.077 917.339 364.757 916.835 366.413 C 916.331 368.073 915.749 369.702 915.085 371.3 C 914.424 372.901 913.682 374.464 912.866 375.991 C 912.049 377.518 911.159 379.003 910.198 380.444 C 909.237 381.886 908.206 383.272 907.108 384.612 C 906.007 385.952 904.846 387.233 903.62 388.456 C 902.397 389.683 901.116 390.843 899.776 391.944 C 898.436 393.042 897.049 394.073 895.608 395.034 C 894.167 395.999 892.682 396.886 891.155 397.702 C 889.628 398.518 888.065 399.261 886.464 399.921 C 884.866 400.585 883.237 401.167 881.577 401.671 C 879.921 402.175 878.241 402.593 876.546 402.933 C 874.846 403.268 873.135 403.522 871.409 403.694 C 869.686 403.862 867.96 403.948 866.225 403.948 Z M 808.534 269.331 C 807.749 269.331 806.96 269.37 806.178 269.448 C 805.393 269.526 804.616 269.64 803.846 269.796 C 803.073 269.948 802.311 270.14 801.557 270.366 C 800.803 270.597 800.061 270.862 799.335 271.163 C 798.608 271.464 797.897 271.8 797.202 272.171 C 796.507 272.542 795.835 272.944 795.178 273.382 C 794.526 273.819 793.893 274.288 793.284 274.788 C 792.674 275.288 792.092 275.815 791.538 276.374 C 790.979 276.929 790.452 277.511 789.952 278.12 C 789.452 278.729 788.983 279.362 788.546 280.015 C 788.108 280.671 787.706 281.347 787.335 282.038 C 786.964 282.733 786.628 283.444 786.327 284.171 C 786.026 284.897 785.76 285.64 785.53 286.393 C 785.303 287.147 785.112 287.909 784.956 288.683 C 784.803 289.452 784.69 290.229 784.612 291.015 C 784.534 291.8 784.495 292.585 784.495 293.37 L 784.495 351.061 C 784.495 351.851 784.534 352.636 784.612 353.421 C 784.69 354.202 784.803 354.979 784.956 355.753 C 785.112 356.526 785.303 357.288 785.53 358.042 C 785.76 358.796 786.026 359.534 786.327 360.261 C 786.628 360.991 786.964 361.702 787.335 362.393 C 787.706 363.089 788.108 363.765 788.546 364.417 C 788.983 365.073 789.452 365.706 789.952 366.311 C 790.452 366.921 790.979 367.503 791.538 368.061 C 792.092 368.616 792.674 369.147 793.284 369.643 C 793.893 370.143 794.526 370.612 795.178 371.05 C 795.835 371.487 796.507 371.893 797.202 372.265 C 797.897 372.636 798.608 372.972 799.335 373.272 C 800.061 373.573 800.803 373.839 801.557 374.065 C 802.311 374.296 803.073 374.487 803.846 374.64 C 804.616 374.792 805.393 374.909 806.178 374.987 C 806.96 375.061 807.749 375.101 808.534 375.101 L 866.225 375.101 C 867.014 375.101 867.799 375.061 868.581 374.987 C 869.366 374.909 870.143 374.792 870.917 374.64 C 871.69 374.487 872.452 374.296 873.206 374.065 C 873.96 373.839 874.698 373.573 875.424 373.272 C 876.151 372.972 876.862 372.636 877.557 372.265 C 878.253 371.893 878.928 371.487 879.581 371.05 C 880.237 370.612 880.866 370.143 881.475 369.643 C 882.085 369.147 882.667 368.616 883.225 368.061 C 883.78 367.503 884.307 366.921 884.807 366.311 C 885.307 365.706 885.776 365.073 886.214 364.417 C 886.651 363.765 887.057 363.089 887.428 362.393 C 887.799 361.702 888.135 360.991 888.436 360.261 C 888.737 359.534 889.003 358.796 889.229 358.042 C 889.46 357.288 889.651 356.526 889.803 355.753 C 889.956 354.979 890.073 354.202 890.151 353.421 C 890.225 352.636 890.264 351.851 890.264 351.061 L 890.264 293.37 C 890.264 292.585 890.225 291.8 890.151 291.015 C 890.073 290.229 889.956 289.452 889.803 288.683 C 889.651 287.909 889.46 287.147 889.229 286.393 C 889.003 285.64 888.737 284.897 888.436 284.171 C 888.135 283.444 887.799 282.733 887.428 282.038 C 887.053 281.343 886.651 280.671 886.214 280.015 C 885.776 279.362 885.307 278.729 884.807 278.12 C 884.307 277.511 883.78 276.929 883.225 276.374 C 882.667 275.815 882.085 275.288 881.475 274.788 C 880.866 274.288 880.237 273.819 879.581 273.382 C 878.928 272.944 878.253 272.542 877.557 272.171 C 876.862 271.8 876.151 271.464 875.424 271.163 C 874.698 270.862 873.96 270.597 873.206 270.366 C 872.452 270.14 871.69 269.948 870.917 269.796 C 870.143 269.64 869.366 269.526 868.581 269.448 C 867.799 269.37 867.014 269.331 866.225 269.331 L 808.534 269.331 Z M 808.534 269.331" fill-opacity="1" fill-rule="nonzero" style="fill: rgb(161, 205, 250);"/>
  <path d="M 673.921 403.948 L 616.225 403.948 C 614.495 403.948 612.768 403.862 611.042 403.694 C 609.319 403.522 607.608 403.268 605.909 402.933 C 604.21 402.593 602.534 402.175 600.874 401.671 C 599.217 401.167 597.589 400.585 595.987 399.921 C 594.389 399.261 592.823 398.518 591.296 397.702 C 589.768 396.886 588.284 395.999 586.846 395.034 C 585.405 394.073 584.014 393.042 582.678 391.944 C 581.339 390.843 580.057 389.683 578.831 388.456 C 577.608 387.233 576.444 385.952 575.346 384.612 C 574.249 383.272 573.217 381.886 572.253 380.444 C 571.292 379.003 570.401 377.518 569.585 375.991 C 568.768 374.464 568.03 372.901 567.366 371.3 C 566.706 369.702 566.124 368.073 565.62 366.413 C 565.116 364.757 564.694 363.077 564.358 361.382 C 564.018 359.683 563.764 357.972 563.596 356.245 C 563.428 354.522 563.342 352.796 563.342 351.061 L 563.342 293.37 C 563.342 291.64 563.428 289.909 563.596 288.186 C 563.768 286.464 564.018 284.753 564.358 283.054 C 564.694 281.354 565.116 279.675 565.62 278.018 C 566.124 276.362 566.706 274.733 567.366 273.132 C 568.03 271.534 568.768 269.968 569.585 268.44 C 570.401 266.913 571.292 265.429 572.253 263.991 C 573.217 262.55 574.249 261.159 575.346 259.819 C 576.444 258.483 577.608 257.202 578.831 255.976 C 580.057 254.749 581.339 253.589 582.678 252.491 C 584.014 251.39 585.405 250.362 586.846 249.397 C 588.284 248.436 589.768 247.546 591.296 246.729 C 592.823 245.913 594.389 245.175 595.987 244.511 C 597.589 243.851 599.217 243.265 600.874 242.765 C 602.534 242.261 604.21 241.839 605.909 241.503 C 607.608 241.163 609.319 240.909 611.042 240.741 C 612.768 240.569 614.495 240.487 616.225 240.487 L 673.921 240.487 C 675.651 240.487 677.378 240.569 679.104 240.741 C 680.827 240.909 682.538 241.163 684.237 241.503 C 685.936 241.839 687.612 242.261 689.272 242.765 C 690.928 243.265 692.557 243.851 694.155 244.511 C 695.757 245.175 697.319 245.913 698.85 246.729 C 700.378 247.546 701.858 248.436 703.299 249.397 C 704.741 250.362 706.128 251.39 707.467 252.491 C 708.807 253.589 710.089 254.749 711.315 255.976 C 712.538 257.202 713.702 258.483 714.799 259.819 C 715.897 261.159 716.928 262.55 717.889 263.991 C 718.854 265.429 719.741 266.913 720.557 268.44 C 721.374 269.968 722.116 271.534 722.776 273.132 C 723.44 274.733 724.022 276.362 724.526 278.018 C 725.03 279.675 725.448 281.354 725.788 283.054 C 726.124 284.753 726.378 286.464 726.549 288.186 C 726.717 289.909 726.803 291.64 726.803 293.37 L 726.803 351.061 C 726.803 352.796 726.717 354.522 726.549 356.245 C 726.378 357.972 726.124 359.683 725.788 361.382 C 725.448 363.077 725.03 364.757 724.526 366.413 C 724.022 368.073 723.44 369.702 722.776 371.3 C 722.116 372.901 721.374 374.464 720.557 375.991 C 719.741 377.518 718.854 379.003 717.889 380.444 C 716.928 381.886 715.897 383.272 714.799 384.612 C 713.702 385.952 712.538 387.233 711.315 388.456 C 710.089 389.683 708.807 390.843 707.467 391.944 C 706.128 393.042 704.741 394.073 703.299 395.034 C 701.858 395.999 700.378 396.886 698.85 397.702 C 697.319 398.518 695.757 399.261 694.155 399.921 C 692.557 400.585 690.928 401.167 689.272 401.671 C 687.612 402.175 685.936 402.593 684.237 402.933 C 682.538 403.268 680.827 403.522 679.104 403.694 C 677.378 403.862 675.651 403.948 673.921 403.948 Z M 616.225 269.331 C 615.44 269.331 614.655 269.37 613.87 269.448 C 613.089 269.526 612.307 269.64 611.538 269.796 C 610.764 269.948 610.003 270.14 609.249 270.366 C 608.495 270.597 607.757 270.862 607.026 271.163 C 606.299 271.464 605.589 271.8 604.893 272.171 C 604.202 272.542 603.526 272.944 602.87 273.382 C 602.217 273.819 601.585 274.288 600.975 274.788 C 600.37 275.288 599.784 275.815 599.229 276.374 C 598.671 276.929 598.143 277.511 597.643 278.12 C 597.143 278.729 596.678 279.362 596.241 280.015 C 595.803 280.671 595.397 281.347 595.026 282.038 C 594.655 282.733 594.319 283.444 594.018 284.171 C 593.717 284.897 593.452 285.64 593.221 286.393 C 592.995 287.147 592.803 287.909 592.651 288.683 C 592.495 289.452 592.382 290.229 592.303 291.015 C 592.225 291.8 592.186 292.585 592.186 293.37 L 592.186 351.061 C 592.186 351.851 592.225 352.636 592.303 353.421 C 592.382 354.202 592.495 354.979 592.651 355.753 C 592.803 356.526 592.995 357.288 593.221 358.042 C 593.452 358.796 593.717 359.534 594.018 360.261 C 594.319 360.991 594.655 361.702 595.026 362.393 C 595.397 363.089 595.803 363.765 596.241 364.417 C 596.678 365.073 597.143 365.706 597.643 366.311 C 598.143 366.921 598.671 367.503 599.229 368.061 C 599.784 368.616 600.37 369.147 600.975 369.643 C 601.585 370.143 602.217 370.612 602.87 371.05 C 603.526 371.487 604.202 371.893 604.893 372.265 C 605.589 372.636 606.299 372.972 607.026 373.272 C 607.757 373.573 608.495 373.839 609.249 374.065 C 610.003 374.296 610.764 374.487 611.538 374.64 C 612.307 374.792 613.089 374.909 613.87 374.987 C 614.655 375.061 615.44 375.101 616.225 375.101 L 673.921 375.101 C 674.706 375.101 675.491 375.061 676.276 374.987 C 677.057 374.909 677.835 374.792 678.608 374.64 C 679.382 374.487 680.143 374.296 680.897 374.065 C 681.651 373.839 682.389 373.573 683.12 373.272 C 683.846 372.972 684.557 372.636 685.249 372.265 C 685.944 371.893 686.62 371.487 687.272 371.05 C 687.928 370.612 688.561 370.143 689.167 369.643 C 689.776 369.147 690.358 368.616 690.917 368.061 C 691.471 367.503 692.003 366.921 692.503 366.311 C 692.999 365.706 693.467 365.073 693.905 364.417 C 694.342 363.765 694.749 363.089 695.12 362.393 C 695.491 361.702 695.827 360.991 696.128 360.261 C 696.428 359.534 696.694 358.796 696.921 358.042 C 697.151 357.288 697.342 356.526 697.495 355.753 C 697.647 354.979 697.764 354.202 697.842 353.421 C 697.921 352.636 697.956 351.851 697.956 351.061 L 697.956 293.37 C 697.956 292.585 697.921 291.8 697.842 291.015 C 697.764 290.229 697.647 289.452 697.495 288.683 C 697.342 287.909 697.151 287.147 696.921 286.393 C 696.694 285.64 696.428 284.897 696.128 284.171 C 695.827 283.444 695.491 282.733 695.12 282.038 C 694.749 281.343 694.342 280.671 693.905 280.015 C 693.467 279.362 692.999 278.729 692.503 278.12 C 692.003 277.511 691.471 276.929 690.917 276.374 C 690.358 275.815 689.776 275.288 689.167 274.788 C 688.561 274.288 687.928 273.819 687.272 273.382 C 686.62 272.944 685.944 272.542 685.249 272.171 C 684.557 271.8 683.846 271.464 683.12 271.163 C 682.389 270.862 681.651 270.597 680.897 270.366 C 680.143 270.14 679.382 269.948 678.608 269.796 C 677.835 269.64 677.057 269.526 676.276 269.448 C 675.491 269.37 674.706 269.331 673.921 269.331 L 616.225 269.331 Z M 616.225 269.331" fill-opacity="1" fill-rule="nonzero" style="fill: rgb(161, 205, 250);"/>
</svg>