<?xml version="1.0" encoding="utf-8"?>
<svg viewBox="102.3761 3.216 511.9974 492.35" width="511.9974" height="492.35" xmlns="http://www.w3.org/2000/svg">
  <defs>
    <radialGradient gradientUnits="userSpaceOnUse" cx="358.429" cy="249.391" r="255.999" id="gradient-1">
      <stop offset="0" style="stop-color: rgb(228, 226, 18);"/>
      <stop offset="1" style="stop-color: rgb(223, 145, 2);"/>
    </radialGradient>
  </defs>
  <path style="fill: url('#gradient-1');" d="M 481.945 495.566 C 474.946 495.566 467.903 494.325 461.018 491.876 L 366.817 458.378 C 366.15 458.163 363.06 457.499 358.376 457.499 C 353.692 457.499 350.602 458.163 349.889 458.394 L 255.736 491.876 C 248.85 494.325 241.809 495.566 234.809 495.566 C 219.461 495.566 205.243 489.639 194.772 478.876 C 183.911 467.713 178.181 452.434 178.637 435.858 L 181.385 335.92 C 181.386 332.131 178.395 322.927 176.137 319.825 L 115.203 240.628 C 102.934 224.683 99.249 205.224 105.09 187.241 C 110.932 169.259 125.351 155.682 144.65 149.993 L 240.548 121.723 C 244.151 120.553 251.98 114.865 254.234 111.757 L 310.725 29.331 C 322.099 12.733 339.467 3.216 358.375 3.216 C 377.283 3.216 394.652 12.734 406.025 29.331 L 462.544 111.8 C 464.771 114.865 472.6 120.554 476.251 121.738 L 572.099 149.993 C 591.399 155.682 605.818 169.259 611.659 187.241 C 617.501 205.224 613.816 224.683 601.547 240.629 L 540.583 319.864 C 538.355 322.929 535.364 332.131 535.366 335.97 L 538.113 435.86 C 538.568 452.434 532.839 467.711 521.978 478.876 C 511.511 489.639 497.293 495.566 481.945 495.566 Z"/>
</svg>