<?xml version="1.0" encoding="utf-8"?>
<svg viewBox="102.3761 3.216 511.9974 492.35" width="511.9974" height="492.35" xmlns="http://www.w3.org/2000/svg">
  <path style="fill:#0055B8;" d="M 481.945 495.566 C 474.946 495.566 467.903 494.325 461.018 491.876 L 366.817 458.378 C 366.15 458.163 363.06 457.499 358.376 457.499 C 353.692 457.499 350.602 458.163 349.889 458.394 L 255.736 491.876 C 248.85 494.325 241.809 495.566 234.809 495.566 C 219.461 495.566 205.243 489.639 194.772 478.876 C 183.911 467.713 178.181 452.434 178.637 435.858 L 181.385 335.92 C 181.386 332.131 178.395 322.927 176.137 319.825 L 115.203 240.628 C 102.934 224.683 99.249 205.224 105.09 187.241 C 110.932 169.259 125.351 155.682 144.65 149.993 L 240.548 121.723 C 244.151 120.553 251.98 114.865 254.234 111.757 L 310.725 29.331 C 322.099 12.733 339.467 3.216 358.375 3.216 C 377.283 3.216 394.652 12.734 406.025 29.331 L 462.544 111.8 C 464.771 114.865 472.6 120.554 476.251 121.738 L 572.099 149.993 C 591.399 155.682 605.818 169.259 611.659 187.241 C 617.501 205.224 613.816 224.683 601.547 240.629 L 540.583 319.864 C 538.355 322.929 535.364 332.131 535.366 335.97 L 538.113 435.86 C 538.568 452.434 532.839 467.711 521.978 478.876 C 511.511 489.639 497.293 495.566 481.945 495.566 Z M 474.928 452.765 C 487.219 457.137 496.982 450.042 496.624 437.001 L 493.876 337.063 C 493.518 324.022 499.733 304.893 507.689 294.552 L 568.653 215.317 C 576.609 204.977 572.879 193.499 560.366 189.81 L 464.468 161.54 C 451.955 157.851 435.681 146.028 428.306 135.267 L 371.787 52.799 C 364.412 42.036 352.343 42.036 344.968 52.799 L 288.449 135.267 C 281.073 146.028 264.801 157.851 252.287 161.54 L 156.389 189.81 C 143.876 193.498 140.146 204.976 148.102 215.317 L 209.066 294.552 C 217.022 304.892 223.237 324.021 222.879 337.063 L 220.131 437.001 C 219.772 450.042 229.535 457.137 241.828 452.765 L 336.028 419.269 C 348.319 414.898 368.432 414.898 380.724 419.269 Z"/>
</svg>