<?xml version="1.0" encoding="utf-8"?>
<svg viewBox="427.8187 35.1859 312.5 375" width="312.5" height="375" xmlns="http://www.w3.org/2000/svg">
  <defs>
    <clipPath id="fd45253e2a">
      <path d="M 31.171875 0 L 343.921875 0 L 343.921875 375 L 31.171875 375 Z M 31.171875 0 " clip-rule="nonzero"/>
    </clipPath>
  </defs>
  <path fill="#2184f8" d="M 521.569 82.061 L 693.444 82.061 L 693.444 97.686 L 521.569 97.686 L 521.569 82.061 Z M 521.569 82.061" fill-rule="nonzero" style="fill-opacity: 0.69;" transform="matrix(1, 0, 0, 1, -3.552713678800501e-15, 0)"/>
  <path fill="#2184f8" d="M 521.569 113.311 L 693.444 113.311 L 693.444 128.936 L 521.569 128.936 L 521.569 113.311 Z M 521.569 113.311" fill-rule="nonzero" style="fill-opacity: 0.69;" transform="matrix(1, 0, 0, 1, -3.552713678800501e-15, 0)"/>
  <path fill="#2184f8" d="M 521.569 144.561 L 693.444 144.561 L 693.444 160.186 L 521.569 160.186 L 521.569 144.561 Z M 521.569 144.561" fill-rule="nonzero" style="fill-opacity: 0.69;" transform="matrix(1, 0, 0, 1, -3.552713678800501e-15, 0)"/>
  <path fill="#2184f8" d="M 521.569 175.811 L 693.444 175.811 L 693.444 191.436 L 521.569 191.436 L 521.569 175.811 Z M 521.569 175.811" fill-rule="nonzero" style="fill-opacity: 0.69;" transform="matrix(1, 0, 0, 1, -3.552713678800501e-15, 0)"/>
  <path fill="#2184f8" d="M 599.694 207.061 L 693.444 207.061 L 693.444 222.686 L 599.694 222.686 L 599.694 207.061 Z M 599.694 207.061" fill-rule="nonzero" style="fill-opacity: 0.69;" transform="matrix(1, 0, 0, 1, -3.552713678800501e-15, 0)"/>
  <path fill="#2184f8" d="M 599.694 238.311 L 693.444 238.311 L 693.444 253.936 L 599.694 253.936 L 599.694 238.311 Z M 599.694 238.311" fill-rule="nonzero" style="fill-opacity: 0.69;" transform="matrix(1, 0, 0, 1, -3.552713678800501e-15, 0)"/>
  <path fill="#2184f8" d="M 599.694 269.561 L 693.444 269.561 L 693.444 285.186 L 599.694 285.186 L 599.694 269.561 Z M 599.694 269.561" fill-rule="nonzero" style="fill-opacity: 0.69;" transform="matrix(1, 0, 0, 1, -3.552713678800501e-15, 0)"/>
  <g clip-path="url(#fd45253e2a)" transform="matrix(1, 0, 0, 1, 396.5686950683594, 35.1858787536621)">
    <path fill="#2184f8" d="M 312.5 15.625 L 109.375 15.625 C 100.746094 15.625 93.75 22.621094 93.75 31.25 L 93.75 172.5 C 98.796875 172.089844 104.023438 171.875 109.375 171.875 C 152.523438 171.875 187.5 185.867188 187.5 203.125 L 187.5 265.625 L 312.5 265.625 C 321.128906 265.625 328.125 258.628906 328.125 250 L 328.125 31.25 C 328.125 22.621094 321.128906 15.625 312.5 15.625 Z M 187.5 281.25 L 187.5 343.75 C 187.5 361.007812 152.523438 375 109.375 375 C 66.226562 375 31.25 361.007812 31.25 343.75 L 31.25 203.125 C 31.25 190.3125 50.53125 179.296875 78.125 174.476562 L 78.125 31.25 C 78.125 13.992188 92.117188 0 109.375 0 L 312.5 0 C 329.757812 0 343.75 13.992188 343.75 31.25 L 343.75 250 C 343.75 267.257812 329.757812 281.25 312.5 281.25 Z M 172.015625 202.277344 L 172.011719 202.28125 C 172.007812 202.296875 172 202.320312 171.980469 202.351562 L 171.996094 202.304688 L 172.007812 202.277344 L 172.015625 202.273438 C 172.015625 202.273438 172.015625 202.273438 172.015625 202.277344 Z M 171.414062 203.125 C 171.214844 202.898438 170.957031 202.628906 170.625 202.3125 C 168.585938 200.382812 164.792969 197.925781 158.8125 195.535156 C 146.941406 190.785156 129.46875 187.5 109.375 187.5 C 89.28125 187.5 71.808594 190.785156 59.9375 195.535156 C 53.957031 197.925781 50.164062 200.382812 48.125 202.3125 C 47.792969 202.628906 47.535156 202.898438 47.335938 203.125 C 47.535156 203.351562 47.792969 203.621094 48.125 203.9375 C 50.164062 205.867188 53.957031 208.324219 59.9375 210.714844 C 71.808594 215.464844 89.28125 218.75 109.375 218.75 C 129.46875 218.75 146.941406 215.464844 158.8125 210.714844 C 164.792969 208.324219 168.585938 205.867188 170.625 203.9375 C 170.957031 203.621094 171.214844 203.351562 171.414062 203.125 Z M 46.734375 202.273438 L 46.742188 202.28125 C 46.75 202.296875 46.757812 202.320312 46.769531 202.351562 L 46.738281 202.289062 L 46.734375 202.277344 C 46.734375 202.273438 46.734375 202.273438 46.734375 202.273438 Z M 109.375 234.375 C 134.929688 234.375 157.621094 229.46875 171.875 221.878906 L 171.875 250 L 171.414062 250 C 171.214844 250.226562 170.957031 250.496094 170.625 250.8125 C 168.585938 252.742188 164.792969 255.199219 158.8125 257.589844 C 146.941406 262.339844 129.46875 265.625 109.375 265.625 C 89.28125 265.625 71.808594 262.339844 59.9375 257.589844 C 53.957031 255.199219 50.164062 252.742188 48.125 250.8125 C 47.792969 250.496094 47.535156 250.226562 47.335938 250 L 46.875 250 L 46.875 221.878906 C 61.128906 229.46875 83.820312 234.375 109.375 234.375 Z M 46.875 268.753906 L 46.875 296.875 L 47.335938 296.875 C 47.535156 297.101562 47.792969 297.371094 48.125 297.6875 C 50.164062 299.617188 53.957031 302.074219 59.9375 304.464844 C 71.808594 309.214844 89.28125 312.5 109.375 312.5 C 129.46875 312.5 146.941406 309.214844 158.8125 304.464844 C 164.792969 302.074219 168.585938 299.617188 170.625 297.6875 C 170.957031 297.371094 171.214844 297.101562 171.414062 296.875 L 171.875 296.875 L 171.875 268.753906 C 157.621094 276.34375 134.929688 281.25 109.375 281.25 C 83.820312 281.25 61.128906 276.34375 46.875 268.753906 Z M 46.875 343.75 L 46.875 315.628906 C 61.128906 323.21875 83.820312 328.125 109.375 328.125 C 134.929688 328.125 157.621094 323.21875 171.875 315.628906 L 171.875 343.75 L 171.414062 343.75 C 171.214844 343.976562 170.957031 344.246094 170.625 344.5625 C 168.585938 346.492188 164.792969 348.949219 158.8125 351.339844 C 146.941406 356.089844 129.46875 359.375 109.375 359.375 C 89.28125 359.375 71.808594 356.089844 59.9375 351.339844 C 53.957031 348.949219 50.164062 346.492188 48.125 344.5625 C 47.792969 344.246094 47.535156 343.976562 47.335938 343.75 Z M 46.742188 344.578125 C 46.734375 344.59375 46.734375 344.601562 46.734375 344.601562 C 46.738281 344.601562 46.753906 344.574219 46.769531 344.523438 Z M 171.980469 344.519531 C 172.007812 344.574219 172.015625 344.601562 172.015625 344.601562 C 172.011719 344.601562 171.996094 344.574219 171.980469 344.519531 Z M 171.980469 344.519531 " fill-rule="evenodd" style="fill-opacity: 0.69;"/>
  </g>
</svg>