<?xml version="1.0" encoding="utf-8"?>
<svg viewBox="472.2594 -50.7265 372.7702 340.5" width="372.7702" height="340.5" xmlns="http://www.w3.org/2000/svg">
  <defs>
    <clipPath id="67ad31529a">
      <path d="M 1.160156 17.109375 L 373.941406 17.109375 L 373.941406 357.609375 L 1.160156 357.609375 Z M 1.160156 17.109375 " clip-rule="nonzero"/>
    </clipPath>
  </defs>
  <path fill="#2184f8" d="M 728.466 201.223 L 756.72 182.504 L 726.58 235.031 L 696.443 182.504 L 724.697 201.223 C 725.822 201.965 727.349 201.965 728.466 201.223" fill-rule="nonzero" style="fill-opacity: 0.69;"/>
  <path fill="#2184f8" d="M 756.72 171.723 L 726.541 151.727 L 695.673 172.18 L 726.123 192.004 L 756.72 171.723 Z M 724.705 142.184 L 696.443 160.914 L 726.58 108.387 L 756.72 160.914 L 728.466 142.184 C 727.322 141.422 725.841 141.422 724.705 142.184" fill-rule="nonzero" style="fill-opacity: 0.69;"/>
  <path fill="#2184f8" d="M 680.83 171.207 C 680.861 171.024 680.943 170.863 681.013 170.691 C 681.052 170.578 681.064 170.457 681.123 170.348 L 724.24 95.207 C 724.728 94.356 725.627 93.828 726.611 93.828 C 727.595 93.828 728.494 94.356 728.982 95.207 L 772.087 170.348 C 772.158 170.457 772.158 170.578 772.209 170.691 C 772.279 170.863 772.349 171.024 772.392 171.207 C 772.423 171.379 772.412 171.543 772.412 171.703 C 772.412 171.875 772.423 172.039 772.392 172.199 C 772.349 172.383 772.279 172.555 772.209 172.727 C 772.158 172.84 772.158 172.961 772.087 173.063 L 728.982 248.211 C 728.494 249.063 727.595 249.59 726.611 249.59 C 725.627 249.59 724.728 249.063 724.24 248.211 L 681.123 173.063 C 681.064 172.961 681.052 172.84 681.013 172.715 C 680.943 172.543 680.861 172.383 680.83 172.211 C 680.798 172.039 680.81 171.875 680.81 171.703 C 680.81 171.543 680.798 171.379 680.83 171.207 Z M 726.611 267.805 C 779.595 267.805 822.701 224.699 822.701 171.703 C 822.701 118.719 779.595 75.613 726.611 75.613 C 721.009 75.613 715.529 76.129 710.177 77.063 C 710.107 77.82 710.056 78.594 709.966 79.352 C 709.552 82.957 708.982 86.543 708.244 90.102 C 707.646 92.988 706.959 95.863 706.146 98.711 C 704.869 103.219 703.349 107.676 701.537 112.043 C 695.56 126.531 686.724 140.117 674.962 151.879 C 662.654 164.188 648.349 173.305 633.095 179.293 C 632.377 179.566 631.654 179.816 630.927 180.09 C 635.193 229.156 676.455 267.805 726.611 267.805" fill-rule="nonzero" style="fill-opacity: 0.69;"/>
  <g clip-path="url(#67ad31529a)" transform="matrix(1, 0, 0, 1, 471.0992126464844, -67.83586883544922)">
    <path fill="#2184f8" d="M 371.488281 263.710938 C 370.910156 266.496094 370.253906 269.261719 369.472656 272.019531 C 368.234375 276.363281 366.765625 280.660156 365.023438 284.875 C 359.25 298.855469 350.71875 311.964844 339.375 323.308594 C 293.167969 369.527344 217.96875 369.515625 171.75 323.308594 C 152.28125 303.839844 141.066406 279.222656 138.003906 253.804688 C 138.1875 253.761719 138.378906 253.742188 138.574219 253.710938 C 142.867188 252.941406 147.132812 251.949219 151.347656 250.734375 C 153.808594 273.730469 163.796875 296.078125 181.386719 313.664062 C 222.28125 354.574219 288.839844 354.574219 329.738281 313.675781 C 339.757812 303.65625 347.277344 292.097656 352.390625 279.769531 C 354.144531 275.523438 355.5625 271.175781 356.738281 266.78125 C 357.488281 263.964844 358.167969 261.148438 358.683594 258.292969 C 360.535156 248.027344 360.832031 237.554688 359.613281 227.210938 C 359.28125 224.3125 358.863281 221.414062 358.277344 218.546875 C 358.136719 217.839844 357.921875 217.152344 357.769531 216.441406 C 356.574219 211.121094 355.035156 205.875 353.007812 200.757812 C 347.902344 187.84375 340.164062 175.746094 329.738281 165.3125 C 323.601562 159.171875 316.832031 154.078125 309.710938 149.78125 C 307.1875 148.25 304.613281 146.8125 301.992188 145.527344 C 297.847656 143.480469 293.59375 141.746094 289.265625 140.289062 C 273.25 134.878906 256.191406 133.421875 239.625 135.914062 C 239.71875 131.546875 239.585938 127.167969 239.230469 122.8125 C 239.210938 122.621094 239.191406 122.4375 239.179688 122.246094 C 257.417969 119.753906 276.117188 121.464844 293.714844 127.421875 C 298 128.871094 302.214844 130.582031 306.347656 132.539062 C 308.902344 133.746094 311.421875 135.042969 313.90625 136.449219 C 323.011719 141.59375 331.625 147.925781 339.375 155.675781 C 347.042969 163.347656 353.304688 171.855469 358.429688 180.84375 C 360.585938 184.640625 362.554688 188.511719 364.265625 192.472656 C 367.40625 199.765625 369.804688 207.304688 371.417969 214.984375 C 372.023438 217.847656 372.460938 220.738281 372.84375 223.632812 C 374.640625 236.957031 374.222656 250.511719 371.488281 263.710938 Z M 44.46875 205.367188 C 4.484375 165.382812 4.484375 100.3125 44.46875 60.316406 C 72.957031 31.828125 114.136719 23.753906 149.9375 35.851562 C 154.183594 37.28125 158.335938 38.972656 162.390625 40.96875 C 164.953125 42.234375 167.464844 43.632812 169.9375 45.132812 C 176.90625 49.324219 183.523438 54.320312 189.519531 60.316406 C 199.710938 70.519531 207.277344 82.351562 212.273438 94.972656 C 214.25 99.96875 215.757812 105.105469 216.921875 110.3125 C 217.074219 111 217.289062 111.667969 217.421875 112.367188 C 217.996094 115.175781 218.402344 118 218.738281 120.835938 C 218.960938 122.804688 219.121094 124.769531 219.234375 126.742188 C 219.527344 131.554688 219.488281 136.378906 219.101562 141.179688 C 218.839844 144.511719 218.421875 147.847656 217.824219 151.160156 C 217.824219 151.179688 217.816406 151.199219 217.816406 151.230469 C 217.308594 154.015625 216.648438 156.773438 215.910156 159.515625 C 214.765625 163.824219 213.378906 168.066406 211.664062 172.222656 C 206.671875 184.277344 199.304688 195.582031 189.519531 205.367188 C 180.839844 214.0625 170.960938 220.847656 160.414062 225.761719 C 157.386719 227.179688 154.304688 228.4375 151.175781 229.53125 C 146.617188 231.140625 141.964844 232.40625 137.253906 233.339844 C 104.726562 239.855469 69.632812 230.535156 44.46875 205.367188 Z M 159.441406 240.652344 C 173.835938 235.011719 187.332031 226.398438 198.941406 214.789062 C 210.035156 203.695312 218.371094 190.890625 224.015625 177.214844 C 225.71875 173.09375 227.15625 168.898438 228.359375 164.644531 C 229.121094 161.957031 229.78125 159.242188 230.335938 156.519531 C 231.035156 153.15625 231.574219 149.769531 231.957031 146.378906 C 232.3125 143.328125 232.546875 140.269531 232.648438 137.210938 C 232.808594 132.597656 232.6875 127.980469 232.300781 123.378906 C 232.140625 121.363281 231.9375 119.347656 231.664062 117.332031 C 231.289062 114.507812 230.863281 111.691406 230.265625 108.882812 C 228.695312 101.375 226.34375 94 223.277344 86.871094 C 221.605469 83 219.679688 79.210938 217.570312 75.503906 C 212.558594 66.710938 206.429688 58.390625 198.941406 50.894531 C 191.363281 43.316406 182.945312 37.128906 174.039062 32.09375 C 171.609375 30.726562 169.148438 29.457031 166.644531 28.273438 C 162.601562 26.359375 158.488281 24.6875 154.296875 23.269531 C 113.8125 9.570312 67.253906 18.691406 35.046875 50.894531 C -10.136719 96.078125 -10.136719 169.605469 35.046875 214.789062 C 62.824219 242.570312 101.3125 253.246094 137.347656 246.863281 C 141.875 246.0625 146.375 245 150.8125 243.652344 C 153.71875 242.769531 156.59375 241.769531 159.441406 240.652344 " fill-rule="nonzero" style="fill-opacity: 0.69;"/>
  </g>
  <path fill="#2184f8" d="M 606.541 74.703 C 603.17 71.957 598.377 70.59 592.158 70.59 L 576.755 70.59 L 576.755 103.098 L 591.377 103.098 C 604.861 103.098 611.595 97.598 611.595 86.606 C 611.595 81.43 609.916 77.469 606.541 74.703 Z M 602.349 117.992 C 610.502 116.887 617.138 114.383 622.072 110.535 C 629.072 105.094 632.627 97.09 632.627 86.766 C 632.627 79.93 630.795 74.277 627.189 69.973 C 624.037 66.211 619.791 63.445 614.545 61.746 C 623.033 56.66 627.33 49.438 627.33 40.266 C 627.33 25.121 618.931 16.289 602.349 13.969 L 602.349 -2.332 L 590.22 -2.332 L 590.22 13.309 L 581.275 13.309 L 581.275 -2.332 L 569.158 -2.332 L 569.158 13.309 L 547.955 13.309 L 547.955 28.414 L 556.818 28.891 L 556.818 100.301 C 556.818 101.699 556.404 103.352 553.181 103.695 L 547.185 104.242 L 547.185 118.68 L 569.158 118.68 L 569.158 132.445 L 581.275 132.445 L 581.275 118.68 L 590.22 118.68 L 590.22 132.445 L 602.349 132.445 L 602.349 117.992 Z M 623.712 151.684 C 619.033 153.602 614.181 155.121 609.205 156.254 C 602.369 157.824 595.295 158.645 588.095 158.645 C 563.041 158.645 539.517 148.918 521.849 131.25 C 504.181 113.582 494.455 90.059 494.455 65.008 C 494.455 39.953 504.181 16.43 521.849 -1.238 C 539.517 -18.906 563.041 -28.633 588.095 -28.633 C 613.146 -28.633 636.67 -18.906 654.337 -1.238 C 671.853 16.277 680.943 39.051 681.662 62.039 C 681.822 67.133 681.58 72.231 680.912 77.285 C 680.423 81.035 679.705 84.75 678.763 88.43 C 674.732 104.133 666.607 118.984 654.337 131.25 C 648.158 137.43 641.24 142.617 633.814 146.781 C 630.541 148.617 627.177 150.258 623.712 151.684 Z M 588.267 56.738 L 576.755 56.738 L 576.755 28.598 L 589.361 28.598 C 595.052 28.598 599.439 29.578 602.498 31.547 C 605.56 33.52 607.087 36.883 607.087 41.656 C 607.087 46.426 605.56 50.137 602.498 52.777 C 599.439 55.422 594.697 56.738 588.267 56.738" fill-rule="nonzero" style="fill-opacity: 0.69;"/>
</svg>