<svg xmlns="http://www.w3.org/2000/svg" xmlns:xlink="http://www.w3.org/1999/xlink" width="500" zoomAndPan="magnify" viewBox="0 0 375 374.999991" height="500" preserveAspectRatio="xMidYMid meet" version="1.0"><defs><clipPath id="67fd32ee68"><path d="M 1.160156 17.109375 L 373.941406 17.109375 L 373.941406 357.609375 L 1.160156 357.609375 Z M 1.160156 17.109375 " clip-rule="nonzero"/></clipPath></defs><path fill="#83c0ff" d="M 257.367188 269.058594 L 285.621094 250.339844 L 255.480469 302.867188 L 225.34375 250.339844 L 253.597656 269.058594 C 254.722656 269.800781 256.25 269.800781 257.367188 269.058594 " fill-opacity="1" fill-rule="nonzero"/><path fill="#83c0ff" d="M 285.621094 239.558594 L 255.441406 219.5625 L 224.574219 240.015625 L 255.023438 259.839844 Z M 253.605469 210.019531 L 225.34375 228.75 L 255.480469 176.222656 L 285.621094 228.75 L 257.367188 210.019531 C 256.222656 209.257812 254.742188 209.257812 253.605469 210.019531 " fill-opacity="1" fill-rule="nonzero"/><path fill="#83c0ff" d="M 209.730469 239.042969 C 209.761719 238.859375 209.84375 238.699219 209.914062 238.527344 C 209.953125 238.414062 209.964844 238.292969 210.023438 238.183594 L 253.140625 163.042969 C 253.628906 162.191406 254.527344 161.664062 255.511719 161.664062 C 256.496094 161.664062 257.394531 162.191406 257.882812 163.042969 L 300.988281 238.183594 C 301.058594 238.292969 301.058594 238.414062 301.109375 238.527344 C 301.179688 238.699219 301.25 238.859375 301.292969 239.042969 C 301.324219 239.214844 301.3125 239.378906 301.3125 239.539062 C 301.3125 239.710938 301.324219 239.875 301.292969 240.035156 C 301.25 240.21875 301.179688 240.390625 301.109375 240.5625 C 301.058594 240.675781 301.058594 240.796875 300.988281 240.898438 L 257.882812 316.046875 C 257.394531 316.898438 256.496094 317.425781 255.511719 317.425781 C 254.527344 317.425781 253.628906 316.898438 253.140625 316.046875 L 210.023438 240.898438 C 209.964844 240.796875 209.953125 240.675781 209.914062 240.550781 C 209.84375 240.378906 209.761719 240.21875 209.730469 240.046875 C 209.699219 239.875 209.710938 239.710938 209.710938 239.539062 C 209.710938 239.378906 209.699219 239.214844 209.730469 239.042969 Z M 255.511719 335.640625 C 308.496094 335.640625 351.601562 292.535156 351.601562 239.539062 C 351.601562 186.554688 308.496094 143.449219 255.511719 143.449219 C 249.910156 143.449219 244.429688 143.964844 239.078125 144.898438 C 239.007812 145.65625 238.957031 146.429688 238.867188 147.1875 C 238.453125 150.792969 237.882812 154.378906 237.144531 157.9375 C 236.546875 160.824219 235.859375 163.699219 235.046875 166.546875 C 233.769531 171.054688 232.25 175.511719 230.4375 179.878906 C 224.460938 194.367188 215.625 207.953125 203.863281 219.714844 C 191.554688 232.023438 177.25 241.140625 161.996094 247.128906 C 161.277344 247.402344 160.554688 247.652344 159.828125 247.925781 C 164.09375 296.992188 205.355469 335.640625 255.511719 335.640625 " fill-opacity="1" fill-rule="nonzero"/><g clip-path="url(#67fd32ee68)"><path fill="#83c0ff" d="M 371.488281 263.710938 C 370.910156 266.496094 370.253906 269.261719 369.472656 272.019531 C 368.234375 276.363281 366.765625 280.660156 365.023438 284.875 C 359.25 298.855469 350.71875 311.964844 339.375 323.308594 C 293.167969 369.527344 217.96875 369.515625 171.75 323.308594 C 152.28125 303.839844 141.066406 279.222656 138.003906 253.804688 C 138.1875 253.761719 138.378906 253.742188 138.574219 253.710938 C 142.867188 252.941406 147.132812 251.949219 151.347656 250.734375 C 153.808594 273.730469 163.796875 296.078125 181.386719 313.664062 C 222.28125 354.574219 288.839844 354.574219 329.738281 313.675781 C 339.757812 303.65625 347.277344 292.097656 352.390625 279.769531 C 354.144531 275.523438 355.5625 271.175781 356.738281 266.78125 C 357.488281 263.964844 358.167969 261.148438 358.683594 258.292969 C 360.535156 248.027344 360.832031 237.554688 359.613281 227.210938 C 359.28125 224.3125 358.863281 221.414062 358.277344 218.546875 C 358.136719 217.839844 357.921875 217.152344 357.769531 216.441406 C 356.574219 211.121094 355.035156 205.875 353.007812 200.757812 C 347.902344 187.84375 340.164062 175.746094 329.738281 165.3125 C 323.601562 159.171875 316.832031 154.078125 309.710938 149.78125 C 307.1875 148.25 304.613281 146.8125 301.992188 145.527344 C 297.847656 143.480469 293.59375 141.746094 289.265625 140.289062 C 273.25 134.878906 256.191406 133.421875 239.625 135.914062 C 239.71875 131.546875 239.585938 127.167969 239.230469 122.8125 C 239.210938 122.621094 239.191406 122.4375 239.179688 122.246094 C 257.417969 119.753906 276.117188 121.464844 293.714844 127.421875 C 298 128.871094 302.214844 130.582031 306.347656 132.539062 C 308.902344 133.746094 311.421875 135.042969 313.90625 136.449219 C 323.011719 141.59375 331.625 147.925781 339.375 155.675781 C 347.042969 163.347656 353.304688 171.855469 358.429688 180.84375 C 360.585938 184.640625 362.554688 188.511719 364.265625 192.472656 C 367.40625 199.765625 369.804688 207.304688 371.417969 214.984375 C 372.023438 217.847656 372.460938 220.738281 372.84375 223.632812 C 374.640625 236.957031 374.222656 250.511719 371.488281 263.710938 Z M 44.46875 205.367188 C 4.484375 165.382812 4.484375 100.3125 44.46875 60.316406 C 72.957031 31.828125 114.136719 23.753906 149.9375 35.851562 C 154.183594 37.28125 158.335938 38.972656 162.390625 40.96875 C 164.953125 42.234375 167.464844 43.632812 169.9375 45.132812 C 176.90625 49.324219 183.523438 54.320312 189.519531 60.316406 C 199.710938 70.519531 207.277344 82.351562 212.273438 94.972656 C 214.25 99.96875 215.757812 105.105469 216.921875 110.3125 C 217.074219 111 217.289062 111.667969 217.421875 112.367188 C 217.996094 115.175781 218.402344 118 218.738281 120.835938 C 218.960938 122.804688 219.121094 124.769531 219.234375 126.742188 C 219.527344 131.554688 219.488281 136.378906 219.101562 141.179688 C 218.839844 144.511719 218.421875 147.847656 217.824219 151.160156 C 217.824219 151.179688 217.816406 151.199219 217.816406 151.230469 C 217.308594 154.015625 216.648438 156.773438 215.910156 159.515625 C 214.765625 163.824219 213.378906 168.066406 211.664062 172.222656 C 206.671875 184.277344 199.304688 195.582031 189.519531 205.367188 C 180.839844 214.0625 170.960938 220.847656 160.414062 225.761719 C 157.386719 227.179688 154.304688 228.4375 151.175781 229.53125 C 146.617188 231.140625 141.964844 232.40625 137.253906 233.339844 C 104.726562 239.855469 69.632812 230.535156 44.46875 205.367188 Z M 159.441406 240.652344 C 173.835938 235.011719 187.332031 226.398438 198.941406 214.789062 C 210.035156 203.695312 218.371094 190.890625 224.015625 177.214844 C 225.71875 173.09375 227.15625 168.898438 228.359375 164.644531 C 229.121094 161.957031 229.78125 159.242188 230.335938 156.519531 C 231.035156 153.15625 231.574219 149.769531 231.957031 146.378906 C 232.3125 143.328125 232.546875 140.269531 232.648438 137.210938 C 232.808594 132.597656 232.6875 127.980469 232.300781 123.378906 C 232.140625 121.363281 231.9375 119.347656 231.664062 117.332031 C 231.289062 114.507812 230.863281 111.691406 230.265625 108.882812 C 228.695312 101.375 226.34375 94 223.277344 86.871094 C 221.605469 83 219.679688 79.210938 217.570312 75.503906 C 212.558594 66.710938 206.429688 58.390625 198.941406 50.894531 C 191.363281 43.316406 182.945312 37.128906 174.039062 32.09375 C 171.609375 30.726562 169.148438 29.457031 166.644531 28.273438 C 162.601562 26.359375 158.488281 24.6875 154.296875 23.269531 C 113.8125 9.570312 67.253906 18.691406 35.046875 50.894531 C -10.136719 96.078125 -10.136719 169.605469 35.046875 214.789062 C 62.824219 242.570312 101.3125 253.246094 137.347656 246.863281 C 141.875 246.0625 146.375 245 150.8125 243.652344 C 153.71875 242.769531 156.59375 241.769531 159.441406 240.652344 " fill-opacity="1" fill-rule="nonzero"/></g><path fill="#83c0ff" d="M 135.441406 142.539062 C 132.070312 139.792969 127.277344 138.425781 121.058594 138.425781 L 105.65625 138.425781 L 105.65625 170.933594 L 120.277344 170.933594 C 133.761719 170.933594 140.496094 165.433594 140.496094 154.441406 C 140.496094 149.265625 138.816406 145.304688 135.441406 142.539062 Z M 131.25 185.828125 C 139.402344 184.722656 146.039062 182.21875 150.972656 178.371094 C 157.972656 172.929688 161.527344 164.925781 161.527344 154.601562 C 161.527344 147.765625 159.695312 142.113281 156.089844 137.808594 C 152.9375 134.046875 148.691406 131.28125 143.445312 129.582031 C 151.933594 124.496094 156.230469 117.273438 156.230469 108.101562 C 156.230469 92.957031 147.832031 84.125 131.25 81.804688 L 131.25 65.503906 L 119.121094 65.503906 L 119.121094 81.144531 L 110.175781 81.144531 L 110.175781 65.503906 L 98.058594 65.503906 L 98.058594 81.144531 L 76.855469 81.144531 L 76.855469 96.25 L 85.71875 96.726562 L 85.71875 168.136719 C 85.71875 169.535156 85.304688 171.1875 82.082031 171.53125 L 76.085938 172.078125 L 76.085938 186.515625 L 98.058594 186.515625 L 98.058594 200.28125 L 110.175781 200.28125 L 110.175781 186.515625 L 119.121094 186.515625 L 119.121094 200.28125 L 131.25 200.28125 Z M 152.613281 219.519531 C 147.933594 221.4375 143.082031 222.957031 138.105469 224.089844 C 131.269531 225.660156 124.195312 226.480469 116.996094 226.480469 C 91.941406 226.480469 68.417969 216.753906 50.75 199.085938 C 33.082031 181.417969 23.355469 157.894531 23.355469 132.84375 C 23.355469 107.789062 33.082031 84.265625 50.75 66.597656 C 68.417969 48.929688 91.941406 39.203125 116.996094 39.203125 C 142.046875 39.203125 165.570312 48.929688 183.238281 66.597656 C 200.753906 84.113281 209.84375 106.886719 210.5625 129.875 C 210.722656 134.96875 210.480469 140.066406 209.8125 145.121094 C 209.324219 148.871094 208.605469 152.585938 207.664062 156.265625 C 203.632812 171.96875 195.507812 186.820312 183.238281 199.085938 C 177.058594 205.265625 170.140625 210.453125 162.714844 214.617188 C 159.441406 216.453125 156.078125 218.09375 152.613281 219.519531 Z M 117.167969 124.574219 L 105.65625 124.574219 L 105.65625 96.433594 L 118.261719 96.433594 C 123.953125 96.433594 128.339844 97.414062 131.398438 99.382812 C 134.460938 101.355469 135.988281 104.71875 135.988281 109.492188 C 135.988281 114.261719 134.460938 117.972656 131.398438 120.613281 C 128.339844 123.257812 123.597656 124.574219 117.167969 124.574219 " fill-opacity="1" fill-rule="nonzero"/></svg>