<?xml version="1.0" encoding="utf-8"?>
<svg viewBox="398.6628 227.3962 30.0081 30" width="30.0081" height="30" xmlns="http://www.w3.org/2000/svg">
  <g id="Favorite" transform="matrix(1, 0, 0, 1, 397.6669006347656, 226.39617919921875)">
    <path d="M30.9,10.6C30.8,10.2,30.4,10,30,10h0h-9l-4.1-8.4C16.7,1.2,16.4,1,16,1v0c0,0,0,0,0,0   c-0.4,0-0.7,0.2-0.9,0.6L11,10H2c-0.4,0-0.8,0.2-0.9,0.6c-0.2,0.4-0.1,0.8,0.2,1.1l6.6,7.6L5,29.7c-0.1,0.4,0,0.8,0.3,1   s0.7,0.3,1.1,0.1l9.6-4.6l9.6,4.6C25.7,31,25.8,31,26,31h0h0h0c0.5,0,1-0.4,1-1c0-0.2,0-0.3-0.1-0.5l-2.8-10.3l6.6-7.6   C31,11.4,31.1,10.9,30.9,10.6z" fill="#FE9803" style="fill-opacity: 0.3;"/>
  </g>
</svg>