<svg xmlns="http://www.w3.org/2000/svg" xmlns:xlink="http://www.w3.org/1999/xlink" width="500" zoomAndPan="magnify" viewBox="0 0 375 374.999991" height="500" preserveAspectRatio="xMidYMid meet" version="1.0"><path fill="#83c0ff" d="M 187.5 0 C 84.132812 0 0 84.132812 0 187.5 C 0 290.867188 84.132812 375 187.5 375 C 290.867188 375 375 290.867188 375 187.5 C 375 84.132812 290.867188 0 187.5 0 Z M 187.5 31.25 C 273.980469 31.25 343.75 101.019531 343.75 187.5 C 343.75 273.980469 273.980469 343.75 187.5 343.75 C 101.019531 343.75 31.25 273.980469 31.25 187.5 C 31.25 101.019531 101.019531 31.25 187.5 31.25 Z M 123.65625 109.375 L 168.304688 171.875 L 140.625 171.875 L 140.625 203.125 L 171.875 203.125 L 171.875 218.75 L 140.625 218.75 L 140.625 250 L 171.875 250 L 171.875 281.25 L 203.125 281.25 L 203.125 250 L 234.375 250 L 234.375 218.75 L 203.125 218.75 L 203.125 203.125 L 234.375 203.125 L 234.375 171.875 L 206.695312 171.875 L 251.34375 109.375 L 212.953125 109.375 L 187.5 144.988281 L 162.046875 109.375 Z M 123.65625 109.375 " fill-opacity="1" fill-rule="nonzero"/></svg>