<?xml version="1.0" encoding="utf-8"?>
<svg viewBox="431.998 88.44 375 375" width="375" height="375" xmlns="http://www.w3.org/2000/svg">
  <path fill="#2184f8" d="M 619.498 88.44 C 516.131 88.44 431.998 172.573 431.998 275.94 C 431.998 379.307 516.131 463.44 619.498 463.44 C 722.866 463.44 806.998 379.307 806.998 275.94 C 806.998 172.573 722.866 88.44 619.498 88.44 Z M 619.498 119.69 C 705.979 119.69 775.748 189.459 775.748 275.94 C 775.748 362.42 705.979 432.19 619.498 432.19 C 533.018 432.19 463.248 362.42 463.248 275.94 C 463.248 189.459 533.018 119.69 619.498 119.69 Z M 555.655 197.815 L 600.303 260.315 L 572.623 260.315 L 572.623 291.565 L 603.873 291.565 L 603.873 307.19 L 572.623 307.19 L 572.623 338.44 L 603.873 338.44 L 603.873 369.69 L 635.123 369.69 L 635.123 338.44 L 666.373 338.44 L 666.373 307.19 L 635.123 307.19 L 635.123 291.565 L 666.373 291.565 L 666.373 260.315 L 638.694 260.315 L 683.342 197.815 L 644.952 197.815 L 619.498 233.428 L 594.045 197.815 L 555.655 197.815 Z M 555.655 197.815" fill-rule="nonzero" style="fill-opacity: 0.69;"/>
</svg>