<svg xmlns="http://www.w3.org/2000/svg" width="59.911" height="64.769" viewBox="0 0 59.911 64.769"><defs><style>.a,.b{fill:#fff;}.b{fill-rule:evenodd;}</style></defs><g transform="translate(0 -0.5)"><path class="a" d="M4.718,1.741c-.844-.13-.88-.145-.482-.206a13.188,13.188,0,0,1,3.8.335c2.892.683,5.523,2.433,8.331,5.541l.746.826,1.067-.171a22.646,22.646,0,0,1,12.9,1.609,16.714,16.714,0,0,1,2.92,1.693,4.48,4.48,0,0,1,.269,1.127,6.986,6.986,0,0,1-.434,4.38,1.141,1.141,0,0,0-.12,1.267,1.232,1.232,0,0,0,1.1.693c.951,0,1.974-1.529,2.448-3.655l.189-.844.373.42a16.271,16.271,0,0,1,3.931,7.685l.072.583-.344-.53a6.561,6.561,0,0,0-1.949-2.035c-1.373-.9-2.825-1.21-6.671-1.412a27.277,27.277,0,0,1-7.388-1.108c-3.316-1.075-4.988-2.506-8.927-7.643a37.509,37.509,0,0,0-3.907-4.561A14,14,0,0,0,4.718,1.741Z" transform="translate(13.919 3.478)"/><path class="a" d="M15.1,5.889a9.24,9.24,0,0,1,.715-3.458,3.7,3.7,0,0,1,.346-.663,2.283,2.283,0,0,1-.161.6A7.812,7.812,0,0,0,15.852,5.9c.267,1.8.418,2.065,2.338,4.014.9.914,1.947,2.068,2.326,2.563l.69.9-.69-.643A29.388,29.388,0,0,0,17.3,10.2c-.288-.147-.33-.145-.508.031s-.2.4-.22,1.553a8.64,8.64,0,0,1-.873,4.087c-.32.621-.371.489-.081-.213a5.561,5.561,0,0,0,.237-2.486c0-3.481-.419-4.318-2.857-5.751-.618-.363-1.636-.887-2.262-1.164a8.581,8.581,0,0,1-1.106-.536,23.687,23.687,0,0,1,3.4.987c1.424.544,1.658.615,1.831.549C14.984,7.211,15.04,6.875,15.1,5.889Z" transform="translate(33.601 4.424)"/><path class="a" d="M6.519,11.364A14.117,14.117,0,0,1,3.975,2.737l.071-.832.39.071a9.826,9.826,0,0,1,2.587.957c1.623.98,2.325,2.269,3.04,5.581.209.97.484,2.068.61,2.439a16.46,16.46,0,0,0,1.6,2.9c.45.654.151.963-.844.874C9.906,14.594,7.847,13.182,6.519,11.364Z" transform="translate(13.757 4.904)"/><path class="a" d="M18.8,17.177C10.794,13.972,7.974,11.191,7.974,6.5a7.527,7.527,0,0,1,.053-1.256,6.074,6.074,0,0,1,.688.507c1.624,1.294,3.442,1.847,8.476,2.577a35.246,35.246,0,0,1,6.167,1.283c4.887,1.611,7.911,4.881,8.633,9.334a15.305,15.305,0,0,1-.253,5,9.585,9.585,0,0,1-1.3,2.9c-.06.019-.119-.21-.135-.522a6.436,6.436,0,0,0-2.36-4.52C26.316,20.415,24.135,19.311,18.8,17.177Z" transform="translate(27.817 16.542)"/><path class="a" d="M22.408,9.977a14.062,14.062,0,0,0-.387-1.684l-.2-.605.38.423a6.773,6.773,0,0,1,1.292,2.334,5.041,5.041,0,0,1,.3,2.227,4.959,4.959,0,0,1-.283,2.157,6.814,6.814,0,0,1-1.69,2.672,9.655,9.655,0,0,1-6.057,2.639c-.472.059-1.847.158-3.055.221a23.929,23.929,0,0,0-6.853,1.112,1.454,1.454,0,0,1-.514.122A9.465,9.465,0,0,1,7.5,20.31a20.98,20.98,0,0,1,6.037-1.584c1.574-.261,3.2-.577,3.612-.7C21.045,16.836,23.049,13.771,22.408,9.977Z" transform="translate(18.589 25.073)"/><path class="a" d="M10.755,15.014A9.171,9.171,0,0,1,10.03,8.5c.062-.219.163-.4.223-.4a2.162,2.162,0,0,1,.558.3c.49.328,1.474.881,4.093,2.3,3.269,1.771,5.133,3.143,6.4,4.71a10.213,10.213,0,0,1,2.128,4.842,16.383,16.383,0,0,1-.2,4.765A11.838,11.838,0,0,1,17.4,32.71a7.506,7.506,0,0,1-.851.42,3.115,3.115,0,0,1,.346-.873,7.816,7.816,0,0,0,.351-6.222,26.394,26.394,0,0,0-3.247-5.782A38.95,38.95,0,0,1,10.755,15.014Z" transform="translate(33.913 26.516)"/><path class="a" d="M3.938,16.212A21.738,21.738,0,0,1,13.975,11.4a15.751,15.751,0,0,1,5.214.2,8.943,8.943,0,0,1,5.084,3.238c.98,1.429,1.4,2.675,1.837,5.446.173,1.093.36,2.191.417,2.439a5.394,5.394,0,0,0,1.76,3.161c1.259.916,3.426.972,5.558.146a2.773,2.773,0,0,1,.7-.215,6.34,6.34,0,0,1-1.753,1.167,5.99,5.99,0,0,1-2.906.7c-1.953,0-3.574-.987-4.926-3a23.794,23.794,0,0,1-1.33-2.637c-1.428-3.238-2.133-4.224-3.792-5.3a4.915,4.915,0,0,0-4.7-.425A3.02,3.02,0,0,0,14.1,21.033a4.089,4.089,0,0,0,2.3,1.194,2.448,2.448,0,0,0,2.777-2.443,1.9,1.9,0,0,0-1.324-1.953c-1.294-.58-2.685.1-2.678,1.306a1.083,1.083,0,0,0,.748,1.072c.333.15.341.162.069.105-1.187-.245-1.465-1.667-.511-2.611,1.146-1.133,3.516-.633,4.329.914a3.969,3.969,0,0,1,.083,2.726,3.791,3.791,0,0,1-4.585,2.169c-1.343-.341-1.89-.71-3.51-2.368-2.814-2.882-3.907-3.44-7.964-4.069l-.777-.121Z" transform="translate(10.652 37.582)"/><path class="b" d="M1.384,2.223c9.4,11.338,15.872,16.015,16.591,17,.594.816.37,1.55-.647,2.125A6.2,6.2,0,0,1,15.017,22a1.2,1.2,0,0,1-.885-.253c-.382-.36-.6-.3-2.559-3.758-2.723-4.2-5-7.684-5.065-7.743-.144-.135-.141-.13,4.787,8.634a3.108,3.108,0,0,1,.158,2.757c0,.529-.145.807-.8,1.536-1.1,1.214-1.585,2.578-1.938,5.4-.4,3.165-1.51,5.4-4.6,9.227a18.269,18.269,0,0,0-2.559,3.553,6.522,6.522,0,0,0-.8,3.209,9.935,9.935,0,0,0,.531,3.95A14.1,14.1,0,0,0,3.217,52.3,8.768,8.768,0,0,1,4.7,55.244c0,.335.064.335,1.522.008,3.488-.783,6.321-2.16,7.914-3.848a3.624,3.624,0,0,0,1.225-3.052,2.963,2.963,0,0,0-.283-1.671,7.364,7.364,0,0,0-2.832-2.735c-2.179-1.481-3.11-2.673-3.367-4.312-.211-1.345.034-2.294,1.239-4.805A14.475,14.475,0,0,0,11.884,28.5c.135-1.693.322-2.36.811-2.9a3.055,3.055,0,0,1,2.233-.919,7.613,7.613,0,0,0,4.448-1.8,3.83,3.83,0,0,0,1.386-2.923l.046-.941-.522-.605C18.393,16.228.117.5,0,.5-.024.5.6,1.276,1.384,2.223ZM5.762,46.279a1.659,1.659,0,0,0-.515-2.194c-.676-.447-1.726-.236-1.726.346,0,.178.1.307.322.421.375.192.4.408.107.848s-.275.839.068,1.106A1.179,1.179,0,0,0,5.762,46.279Z" transform="translate(0)"/><path class="b" d="M6.7,6.068A3.618,3.618,0,0,0,4.5,8.449,3.372,3.372,0,0,0,4.694,10.6c.429.57.845.72,1.969.712,2.2-.015,4.115-.954,4.337-2.127A3.126,3.126,0,0,0,9.184,6.3,4.332,4.332,0,0,0,6.7,6.068Zm2.573,2A.885.885,0,0,0,8.889,6.72c-1.1-.667-2.762-.115-2.762.917,0,.514.867,1.074,1.662,1.074A2.152,2.152,0,0,0,9.275,8.068Z" transform="translate(15.405 19.112)"/></g></svg>