<svg xmlns="http://www.w3.org/2000/svg" xmlns:xlink="http://www.w3.org/1999/xlink" width="178" height="120" viewBox="0 0 178 120">
  <defs>
    <style>
      .cls-1 {
        fill: #fff;
      }

      .cls-2 {
        fill: #14085a;
      }

      .cls-3 {
        fill: #c4cbea;
      }

      .cls-4 {
        filter: url(#circle_4);
      }
    </style>
    <filter id="circle_4" x="61" y="0" width="117" height="120" filterUnits="userSpaceOnUse">
      <feOffset dx="-2" dy="1" input="SourceAlpha"/>
      <feGaussianBlur stdDeviation="3" result="blur"/>
      <feFlood flood-opacity="0.302"/>
      <feComposite operator="in" in2="blur"/>
      <feComposite in="SourceGraphic"/>
    </filter>
  </defs>
  <g id="group_5" data-name="group 5" transform="translate(0.424 8.451)">
    <g id="group_3" data-name="group 3" transform="translate(-0.424 -0.451)">
      <ellipse id="circle_1" data-name="circle 1" class="cls-1" cx="49.5" cy="51" rx="49.5" ry="51"/>
      <g id="group_2" data-name="group 2" transform="translate(4.8 5.4)">
        <g id="group_1" data-name="group 1" transform="translate(24.767 43.155)">
          <path id="pass_1" data-name="pass 1" class="cls-2" d="M28.457,27.082c-.282,1.543-4.139,12.351-5.682,16.906a6.854,6.854,0,0,1-2.314,3.435,3.521,3.521,0,0,1-4.071.208,2.806,2.806,0,0,1-1.12-3.649c1.983-5.825,4-11.714,6.1-17.541A4.085,4.085,0,0,1,26.142,23.7a2.874,2.874,0,0,1,2.324,3.33Z" transform="translate(-14.989 -23.608)"/>
        </g>
        <path id="pass_2" data-name="pass 2" class="cls-2" d="M57.037,57.158a4.718,4.718,0,0,1,5.826-2.8,5.311,5.311,0,0,1,1.894,7.816A38.252,38.252,0,0,1,56.2,74.3a30.467,30.467,0,0,1-16.516,5.667,47.407,47.407,0,0,1-14.17-2.026,1.451,1.451,0,0,0-1.12,0,1.338,1.338,0,0,0-.559.72c-.631,1.521-2.108,4.663-2.177,4.805a1.3,1.3,0,0,0-.069.789,1.364,1.364,0,0,0,.422.72,39.923,39.923,0,0,0,25.041,8.765c24.643.039,44.653-20.355,44.69-45.55S71.833,2.539,47.19,2.5,2.538,22.855,2.5,48.05v.071A45.754,45.754,0,0,0,12.321,76.6L24.527,40.3s1.275-5.022,5.612-5.363a5.278,5.278,0,0,1,5.331,2.439c.208.211.351.43.559.43a2.587,2.587,0,0,0,.631-.142A11.657,11.657,0,0,1,49.054,39.1a10.433,10.433,0,0,1,2.737,11.764,160.42,160.42,0,0,1-6.1,18.289c-.069.288-.069.43.5.288A14.833,14.833,0,0,0,52.132,65.5,44.247,44.247,0,0,0,57.037,57.158Z" transform="translate(-2.5 -2.5)"/>
      </g>
    </g>
    <g class="cls-4" transform="matrix(1, 0, 0, 1, -0.42, -8.45)">
      <ellipse id="circle_4-2" data-name="circle 4" class="cls-1" cx="49.5" cy="51" rx="49.5" ry="51" transform="translate(72 8)"/>
    </g>
    <g id="group_4" data-name="group 4" transform="translate(71.576 -0.451)">
      <path id="pass_4" data-name="pass 4" class="cls-3" d="M49.5,0C76.838,0,99,22.833,99,51s-22.162,51-49.5,51S0,79.167,0,51,22.162,0,49.5,0Z"/>
      <path id="pass_3" data-name="pass 3" class="cls-1" d="M27.3,56.471,6,43.525,27.294,74.41,48.613,43.525,27.294,56.466h0ZM27.621,3,6.3,39.368,27.621,52.324,48.94,39.383Z" transform="translate(22.03 12.295)"/>
    </g>
  </g>
</svg>
