<svg xmlns="http://www.w3.org/2000/svg" width="68.538" height="68.538" viewBox="0 0 68.538 68.538"><defs><style>.a{fill:#fafafa;}</style></defs><path class="a" d="M-115.9,5.918a34.257,34.257,0,0,0-34.269,34.269A34.256,34.256,0,0,0-115.9,74.456,34.257,34.257,0,0,0-81.636,40.187,34.257,34.257,0,0,0-115.9,5.918Zm-.049,65.111a28.059,28.059,0,0,1-17.33-5.923.656.656,0,0,1-.244-.49.677.677,0,0,1,.048-.534c0-.093,1.028-2.217,1.469-3.245a.991.991,0,0,1,.391-.49,1.078,1.078,0,0,1,.783,0,33.43,33.43,0,0,0,9.792,1.37,21.242,21.242,0,0,0,11.407-3.828,25.981,25.981,0,0,0,5.923-8.2,3.7,3.7,0,0,0,.637-1.41,4.047,4.047,0,0,0-.05-1.537,3.652,3.652,0,0,0-.685-1.381,3.55,3.55,0,0,0-1.224-.955,3.2,3.2,0,0,0-2.35.156,3.137,3.137,0,0,0-1.664,1.734h0a30.882,30.882,0,0,1-3.378,5.64,10.183,10.183,0,0,1-4.112,2.668c-.391.1-.391,0-.343-.2a109.5,109.5,0,0,0,4.21-12.366,6.763,6.763,0,0,0,.342-4.283,6.906,6.906,0,0,0-2.252-3.667,8.006,8.006,0,0,0-4.112-1.7,8.3,8.3,0,0,0-4.456.734,2.011,2.011,0,0,1-.44.093c-.148,0-.245-.147-.343-.289a3.855,3.855,0,0,0-1.616-1.376,3.7,3.7,0,0,0-2.105-.274c-2.986.23-3.866,3.628-3.866,3.628l-8.421,24.536a30.619,30.619,0,0,1-6.805-19.254A30.8,30.8,0,0,1-127.7,11.69a30.842,30.842,0,0,1,11.832-2.343,30.841,30.841,0,0,1,30.8,30.882A30.841,30.841,0,0,1-115.954,71.029Zm-13.462-18.666c1.371-4.024,2.742-8.1,4.21-12.126a2.807,2.807,0,0,1,3.28-1.89,1.907,1.907,0,0,1,.734.284,2.485,2.485,0,0,1,.587.548,1.905,1.905,0,0,1,.294.719,2.158,2.158,0,0,1,0,.783h0c-.2,1.062-2.889,8.533-3.917,11.685a4.782,4.782,0,0,1-1.616,2.375,2.4,2.4,0,0,1-1.371.519,2.538,2.538,0,0,1-1.468-.377,2.09,2.09,0,0,1-.881-1.107A2.025,2.025,0,0,1-129.417,52.362Z" transform="translate(150.174 -5.918)"/></svg>