<?xml version="1.0" encoding="utf-8"?>
<svg fill="#fff" stroke="#fff" stroke-linecap="round" stroke-width="1" height="800px" width="800px" version="1.1" id="Layer_1" viewBox="0 0 330 330" xmlns="http://www.w3.org/2000/svg">
  <path id="XMLID_224_" d="M 325.606 229.393 L 175.602 79.393 C 172.79 76.58 168.974 75 164.996 75 C 161.017 75 157.202 76.581 154.389 79.394 L 4.393 229.394 C -1.465 235.252 -1.465 244.749 4.393 250.607 C 10.25 256.464 19.748 256.465 25.606 250.607 L 164.996 111.214 L 304.393 250.607 C 307.322 253.536 311.161 255 315 255 C 318.839 255 322.678 253.536 325.607 250.606 C 331.464 244.748 331.464 235.251 325.606 229.393 Z" style="transform-box: fill-box; transform-origin: 50% 50%;" transform="matrix(0, 1, -1, 0, -0.000003, 0.00001)"/>
</svg>