<svg xmlns="http://www.w3.org/2000/svg" width="68.036" height="68.036" viewBox="0 0 68.036 68.036"><defs><style>.a,.d{fill:none;}.a{stroke:#fff;stroke-width:3px;}.b{fill:#fff;}.c{stroke:none;}</style></defs><g transform="translate(-632.124 -489.026)"><g class="a" transform="translate(700.159 557.062) rotate(180)"><ellipse class="c" cx="34.018" cy="34.018" rx="34.018" ry="34.018"/><ellipse class="d" cx="34.018" cy="34.018" rx="32.518" ry="32.518"/></g><g transform="translate(646.431 504.491)"><path class="b" d="M271.2,199.011c0-3.755-2.252-5.041-6.756-5.579-3.216-.428-3.86-1.287-3.86-2.786s1.061-2.467,3.217-2.467c1.93,0,2.992.643,3.539,2.252a.784.784,0,0,0,.74.538h1.737a.731.731,0,0,0,.741-.722c0-.01,0-.021,0-.031v-.106a5.341,5.341,0,0,0-4.826-4.4v-2.574c0-.428-.322-.75-.869-.856h-1.609c-.418,0-.739.322-.836.856v2.467c-3.216.428-5.276,2.574-5.276,5.253,0,3.539,2.156,4.935,6.66,5.469,2.992.537,3.957,1.181,3.957,2.9s-1.48,2.9-3.539,2.9c-2.766,0-3.732-1.177-4.053-2.786a.821.821,0,0,0-.772-.644h-1.8a.738.738,0,0,0-.772.75v.106c.451,2.683,2.156,4.613,5.694,5.148v2.573c0,.431.322.753.868.859h1.609c.418,0,.739-.322.837-.859v-2.573c3.217-.534,5.371-2.786,5.371-5.681Z" transform="translate(-244.776 -176.706)"/><path class="b" d="M113.864,108.108a16.042,16.042,0,0,1,0,30.135,1.093,1.093,0,0,0-.643,1.071v1.5a.829.829,0,0,0,.643.859c.1,0,.322,0,.418-.109a19.3,19.3,0,0,0,0-36.782.658.658,0,0,0-.965.428c-.1.109-.1.215-.1.431v1.5A1.424,1.424,0,0,0,113.864,108.108Zm-11.356,33.458a.659.659,0,0,0,.965-.428c.1-.106.1-.216.1-.428v-1.5a1.418,1.418,0,0,0-.644-1.071,16.043,16.043,0,0,1,0-30.135,1.093,1.093,0,0,0,.644-1.072v-1.5a.829.829,0,0,0-.644-.859c-.1,0-.322,0-.418.109a19.379,19.379,0,0,0,0,36.888Z" transform="translate(-89.051 -104.569)"/></g></g></svg>