<?xml version="1.0" encoding="utf-8"?>
<svg viewBox="0 0 732.33 807.54" width="732.33" height="807.54" xmlns="http://www.w3.org/2000/svg" xmlns:xlink="http://www.w3.org/1999/xlink">
  <defs>
    <linearGradient id="linear-gradient" x1="52.55" y1="724.97" x2="679.79" y2="724.97" gradientUnits="userSpaceOnUse">
      <stop offset="0" stop-color="#01f0ff"/>
      <stop offset="0.98" stop-color="#f0f"/>
    </linearGradient>
    <linearGradient id="linear-gradient-2" x1="136.57" y1="80.91" x2="595.76" y2="651.43" xlink:href="#linear-gradient"/>
    <style>.cls-1{fill:url(#linear-gradient);}.cls-2{fill:#2a5ada;}.cls-2,.cls-3{isolation:isolate;}.cls-3{fill:url(#linear-gradient-2);}</style>
  </defs>
  <path class="cls-1" d="M366.16,807.54c-116.48,0-313.61-17.39-313.61-82.57S249.68,642.4,366.16,642.4,679.79,659.8,679.79,725,482.65,807.54,366.16,807.54ZM87.19,725c8.22,17.13,109.13,48.1,279,48.1s270.77-31,279-48.1c-8.21-17.12-109.13-48.09-279-48.09S95.41,707.85,87.19,725Z"/>
  <circle cx="1250" cy="1250" r="348.994" style="fill: rgb(234, 230, 231);" transform="matrix(0.9690240621566772, 0, 0, 0.9716269969940186, -845.8836669921875, -847.4392700195312)"/>
  <path class="cls-3" d="M366.17,63.44c166.92,0,302.72,135.81,302.72,302.73S533.09,668.89,366.17,668.89,63.44,533.09,63.44,366.17,199.24,63.44,366.17,63.44m0-63.44C163.94,0,0,163.94,0,366.17S163.94,732.33,366.17,732.33,732.33,568.4,732.33,366.17,568.4,0,366.17,0Z"/>
  <path d="M 498.34 285.622 L 455.94 285.622 C 451.04 285.622 446.34 283.522 443.04 279.822 L 425.84 260.422 C 423.24 257.522 419.64 255.822 415.74 255.822 C 411.84 255.822 408.24 257.522 405.64 260.422 L 390.84 277.122 C 386.04 282.522 379.04 285.722 371.84 285.722 L 139.74 285.722 C 133.14 304.422 128.84 324.322 127.14 345.022 L 346.24 345.022 C 350.14 345.022 353.74 343.422 356.44 340.622 L 376.84 319.322 C 379.34 316.622 382.94 315.122 386.54 315.122 L 387.34 315.122 C 391.24 315.122 394.84 316.822 397.44 319.722 L 414.64 339.122 C 417.94 342.822 422.64 344.922 427.54 344.922 L 606.34 344.922 C 604.64 324.322 600.34 304.322 593.74 285.522 L 498.34 285.622 Z"/>
  <path d="M 259.74 469.822 C 263.64 469.822 267.24 468.222 269.94 465.422 L 290.34 444.122 C 292.94 441.422 296.44 439.922 300.14 439.922 L 300.94 439.922 C 304.84 439.922 308.54 441.622 311.04 444.422 L 328.24 463.822 C 331.54 467.522 336.24 469.622 341.14 469.622 L 583.54 469.622 C 592.64 450.822 599.24 430.722 603.24 409.622 L 370.54 409.622 C 365.64 409.622 360.94 407.522 357.64 403.822 L 340.44 384.622 C 337.84 381.722 334.24 380.122 330.34 380.122 C 326.44 380.122 322.74 381.822 320.24 384.622 L 305.44 401.322 C 300.64 406.822 293.64 409.922 286.34 409.922 L 130.44 409.922 C 134.44 431.022 141.04 451.122 150.14 469.922 L 259.74 469.822 Z"/>
  <path d="M 431.64 220.722 C 435.54 220.722 439.14 219.122 441.84 216.322 L 462.24 195.022 C 464.74 192.322 468.34 190.822 472.04 190.822 L 472.84 190.822 C 476.74 190.822 480.34 192.522 482.94 195.422 L 500.14 214.922 C 503.44 218.622 508.14 220.722 513.04 220.722 L 559.14 220.722 C 515.24 162.322 445.44 124.622 366.84 124.622 C 288.24 124.622 218.34 162.322 174.44 220.722 L 431.64 220.722 Z"/>
  <path d="M 339.14 529.322 L 276.14 529.322 C 271.24 529.322 266.54 527.222 263.24 523.522 L 246.04 504.122 C 243.44 501.222 239.84 499.622 235.94 499.622 C 232.04 499.622 228.34 501.322 225.84 504.122 L 211.04 520.822 C 206.24 526.322 199.24 529.422 191.94 529.422 L 190.94 529.422 C 234.84 576.422 297.34 605.922 366.84 605.922 C 436.34 605.922 498.74 576.422 542.74 529.422 L 339.14 529.322 Z"/>
</svg>