<?xml version="1.0" encoding="utf-8"?>
<svg viewBox="0 0 732.33 807.54" width="732.33" height="807.54" xmlns="http://www.w3.org/2000/svg" xmlns:xlink="http://www.w3.org/1999/xlink">
  <defs>
    <linearGradient id="linear-gradient" x1="52.55" y1="724.97" x2="679.79" y2="724.97" gradientUnits="userSpaceOnUse">
      <stop offset="0" stop-color="#01f0ff"/>
      <stop offset="0.98" stop-color="#f0f"/>
    </linearGradient>
    <linearGradient id="linear-gradient-2" x1="136.57" y1="80.91" x2="595.76" y2="651.43" xlink:href="#linear-gradient"/>
    <style>.cls-1{fill:url(#linear-gradient);}.cls-2{fill:#2a5ada;}.cls-2,.cls-3{isolation:isolate;}.cls-3{fill:url(#linear-gradient-2);}</style>
  </defs>
  <path class="cls-1" d="M366.16,807.54c-116.48,0-313.61-17.39-313.61-82.57S249.68,642.4,366.16,642.4,679.79,659.8,679.79,725,482.65,807.54,366.16,807.54ZM87.19,725c8.22,17.13,109.13,48.1,279,48.1s270.77-31,279-48.1c-8.21-17.12-109.13-48.09-279-48.09S95.41,707.85,87.19,725Z"/>
  <g style="" transform="matrix(1.0124080181121826, 0, 0, 0.9941100478172302, -610.6494750976562, 138.0186309814453)">
    <circle cx="1250" cy="1250" r="1250" style="fill: rgb(46, 49, 72);" transform="matrix(0.250679, 0, 0, 0.253036, 653.106323, -85.401405)"/>
    <circle cx="1250" cy="1250" r="725.31" style="fill: rgb(27, 30, 54);" transform="matrix(0.250858, 0, 0, 0.255791, 653.106323, -92.288979)"/>
    <path d="M 967.682 -45.369 C 933.795 -45.369 906.318 78.533 906.318 231.376 C 906.318 384.218 933.795 508.121 967.682 508.121 C 1001.569 508.121 1029.047 384.218 1029.047 231.376 C 1029.047 78.533 1001.569 -45.369 967.682 -45.369 Z M 971.919 492.502 C 968.044 497.713 964.169 493.804 964.169 493.804 C 948.563 475.575 940.76 441.711 940.76 441.711 C 913.463 353.154 919.96 163.014 919.96 163.014 C 932.788 12.063 956.125 -23.596 964.066 -31.513 C 965.74 -33.18 968.361 -33.394 970.279 -32.019 C 981.802 -23.789 991.466 10.633 991.466 10.633 C 1020.003 117.423 1017.419 217.702 1017.419 217.702 C 1020.003 304.958 1003.119 402.632 1003.119 402.632 C 990.122 476.862 971.919 492.502 971.919 492.502 Z" style="fill: rgb(111, 115, 144);"/>
    <path d="M 1205.174 88.962 C 1188.322 59.013 1068.183 97.04 936.756 173.884 C 805.33 250.729 712.623 337.306 729.463 367.241 C 746.303 397.177 866.454 359.163 997.881 282.319 C 1129.307 205.474 1222.015 118.897 1205.174 88.962 Z M 745.011 363.133 C 738.559 362.305 740.017 356.897 740.017 356.897 C 747.931 333.95 773.117 310.028 773.117 310.028 C 835.689 241.385 1002.349 151.528 1002.349 151.528 C 1138.449 86.961 1180.723 89.686 1191.448 92.696 C 1193.72 93.343 1195.204 95.567 1194.959 97.96 C 1193.67 112.284 1168.828 138.119 1168.828 138.119 C 1091.282 217.054 1003.806 265.199 1003.806 265.199 C 930.096 311.369 837.755 345.54 837.755 345.54 C 767.493 371.357 745.014 363.133 745.014 363.133 L 745.011 363.133 Z" style="fill: rgb(111, 115, 144);"/>
    <path d="M 1204.58 368.239 C 1221.563 338.37 1129.089 251.396 998.124 173.974 C 867.159 96.551 747.035 58.054 730.067 87.974 C 713.099 117.894 805.558 204.817 936.598 282.239 C 1067.639 359.662 1187.612 398.161 1204.58 368.239 Z M 741.321 99.516 C 738.812 93.45 744.108 91.99 744.108 91.99 C 767.553 87.475 800.486 97.763 800.486 97.763 C 890.08 118.567 1049.838 220.607 1049.838 220.607 C 1172.841 308.371 1191.706 347.029 1194.533 358.002 C 1195.127 360.326 1193.993 362.748 1191.849 363.74 C 1179.022 369.728 1144.67 360.806 1144.67 360.806 C 1038.791 331.858 954.114 278.82 954.114 278.82 C 878.031 236.977 802.799 172.595 802.799 172.595 C 745.633 123.516 741.338 99.582 741.338 99.582 L 741.321 99.516 Z" style="fill: rgb(111, 115, 144);"/>
    <circle cx="1250" cy="1250" r="128.6" style="fill: rgb(183, 185, 200);" transform="matrix(0.250858, 0, 0, 0.255791, 653.106323, -92.288979)"/>
    <ellipse cx="1098.946" cy="101.132" rx="18.712" ry="19.737" style="fill: rgb(183, 185, 200);"/>
    <ellipse cx="791.826" cy="168.239" rx="18.712" ry="19.737" style="fill: rgb(183, 185, 200);"/>
    <ellipse cx="928.611" cy="410.345" rx="18.712" ry="19.737" style="fill: rgb(183, 185, 200);"/>
  </g>
  <path class="cls-3" d="M366.17,63.44c166.92,0,302.72,135.81,302.72,302.73S533.09,668.89,366.17,668.89,63.44,533.09,63.44,366.17,199.24,63.44,366.17,63.44m0-63.44C163.94,0,0,163.94,0,366.17S163.94,732.33,366.17,732.33,732.33,568.4,732.33,366.17,568.4,0,366.17,0Z"/>
</svg>