<?xml version="1.0" encoding="utf-8"?>
<svg viewBox="0 0 732.574 807.54" width="732.574" height="807.54" xmlns="http://www.w3.org/2000/svg" xmlns:xlink="http://www.w3.org/1999/xlink">
  <defs>
    <linearGradient id="linear-gradient" x1="52.55" y1="724.97" x2="679.79" y2="724.97" gradientUnits="userSpaceOnUse" gradientTransform="matrix(1.000333, 0, 0, 1, 0, 0)">
      <stop offset="0" stop-color="#01f0ff"/>
      <stop offset="0.98" stop-color="#f0f"/>
    </linearGradient>
    <linearGradient id="linear-gradient-2" x1="136.57" y1="80.91" x2="595.76" y2="651.43" gradientTransform="matrix(1.000333, 0, 0, 1, 0, 0)" xlink:href="#linear-gradient"/>
    <style>.cls-1{fill:url(#linear-gradient);}.cls-2{fill:#2a5ada;}.cls-2,.cls-3{isolation:isolate;}.cls-3{fill:url(#linear-gradient-2);}</style>
  </defs>
  <path class="cls-1" d="M 366.282 807.54 C 249.763 807.54 52.568 790.15 52.568 724.97 C 52.568 659.79 249.763 642.4 366.282 642.4 C 482.801 642.4 680.016 659.8 680.016 725 C 680.016 790.2 482.811 807.54 366.282 807.54 Z M 87.219 725 C 95.442 742.13 196.385 773.1 366.312 773.1 C 536.239 773.1 637.172 742.1 645.405 725 C 637.192 707.88 536.239 676.91 366.312 676.91 C 196.385 676.91 95.442 707.85 87.219 725 Z" style=""/>
  <path fill="#ECCA43" fill-rule="nonzero" d="M 365.465 61.299 C 448.889 61.299 524.427 95.305 579.101 150.272 C 633.775 205.235 667.599 281.179 667.599 365.055 C 667.599 448.926 633.775 524.871 579.101 579.839 C 524.427 634.802 448.889 668.807 365.465 668.807 C 282.043 668.807 206.505 634.802 151.829 579.839 C 97.155 524.871 63.332 448.926 63.332 365.055 C 63.332 281.179 97.155 205.235 151.829 150.272 C 206.499 95.305 282.038 61.299 365.465 61.299 Z" style=""/>
  <ellipse fill="#F7E259" cx="365.465" cy="365.053" rx="296.223" ry="297.813" style=""/>
  <path fill="#F8D548" d="M 657.865 317.227 C 660.407 333.043 661.683 349.036 661.685 365.055 C 661.685 529.528 529.064 662.866 365.465 662.866 C 201.868 662.866 69.241 529.528 69.241 365.055 C 69.241 339.12 72.547 313.967 78.743 289.981 L 369.588 507.685 L 657.865 317.227 Z" style=""/>
  <path fill="#D7925B" fill-rule="nonzero" d="M 365.465 131.213 C 429.685 131.213 487.839 157.388 529.931 199.707 C 572.022 242.02 598.058 300.486 598.058 365.051 C 598.058 429.615 572.022 488.082 529.931 530.4 C 487.839 572.717 429.685 598.894 365.465 598.894 C 301.245 598.894 243.092 572.717 201.005 530.4 C 158.913 488.082 132.877 429.615 132.877 365.051 C 132.877 300.486 158.913 242.02 201.005 199.707 C 243.092 157.388 301.245 131.213 365.465 131.213 Z" style=""/>
  <circle fill="#EDA140" cx="324.078" cy="336.915" r="192.069" style="" transform="matrix(1.1802079677581787, 0, 0, 1.1865520477294922, -17.01262092590332, -34.71406173706055)"/>
  <path fill="#C26A34" d="M 335.324 447.084 L 328.481 416.736 L 285.571 416.736 L 278.658 447.084 L 234.638 447.084 L 279.84 287.771 L 333.252 287.771 L 378.967 447.084 L 335.324 447.084 Z M 431.953 445.14 L 430.063 445.022 C 425.695 444.76 421.391 444.343 417.152 443.775 C 413.077 443.231 409.018 442.596 404.973 441.869 C 401.17 441.182 397.396 440.348 393.658 439.37 L 393.658 407.11 C 398.371 407.527 403.487 407.866 408.96 408.154 C 414.438 408.433 420.008 408.643 425.629 408.781 C 431.252 408.91 436.478 408.989 441.332 408.989 C 441.665 408.982 442.008 408.995 442.345 408.995 C 445.852 408.995 449.357 408.637 452.79 407.944 C 455.343 407.479 457.715 406.303 459.639 404.552 C 461.115 402.984 461.937 400.907 461.938 398.749 C 461.938 398.598 461.931 398.441 461.926 398.285 L 461.926 395.837 C 461.931 395.667 461.938 395.506 461.938 395.327 C 461.938 392.796 460.731 390.416 458.691 388.933 C 456.555 387.434 454.013 386.629 451.408 386.629 L 440.067 386.629 C 423.961 386.629 411.751 383.078 403.436 375.951 C 395.119 368.825 390.971 356.901 390.99 340.159 L 390.99 333.254 C 390.99 317.911 395.58 306.423 404.739 298.815 C 411.536 293.135 420.605 289.578 431.953 288.142 L 431.953 271.716 L 454.427 271.716 L 454.427 287.692 C 457.263 287.835 460.088 288.072 462.665 288.351 C 468.326 288.977 473.837 289.762 478.887 290.649 C 483.945 291.537 488.514 292.548 492.533 293.474 L 492.533 325.736 C 486.158 325.193 478.972 324.738 470.986 324.373 C 462.995 324.007 455.731 323.837 449.22 323.857 L 448.591 323.857 C 445.312 323.857 442.047 324.149 438.828 324.698 C 436.18 325.046 433.706 326.214 431.751 328.04 C 429.961 330.034 429.059 332.677 429.252 335.356 L 429.252 337.471 C 429.246 337.693 429.226 337.914 429.226 338.137 C 429.226 340.924 430.429 343.574 432.524 345.4 C 435.525 347.432 439.12 348.385 442.729 348.11 L 456.472 348.11 C 457.038 348.094 457.604 348.086 458.172 348.084 C 466.02 348.084 473.772 349.994 480.719 353.651 C 486.961 357.153 492.031 362.435 495.291 368.832 C 498.506 375.289 500.183 382.409 500.186 389.631 C 500.186 389.918 500.18 390.212 500.18 390.478 L 500.18 397.397 C 500.18 410.653 497.888 420.77 493.311 427.754 C 488.739 434.723 481.77 439.75 473.74 441.869 C 467.412 443.625 460.923 444.726 454.374 445.159 L 454.374 463.132 L 431.953 463.126 L 431.953 445.14 Z M 321.12 382.861 L 314.499 351.96 C 313.797 348.533 312.902 344.592 311.909 340.095 C 310.906 335.591 309.945 331.079 309.026 326.557 C 308.137 322.022 307.436 318.08 306.916 314.732 C 306.303 318.546 305.636 322.351 304.918 326.148 C 304.066 330.533 303.216 334.964 302.256 339.423 C 301.403 343.537 300.503 347.64 299.554 351.731 L 292.822 382.861 L 321.12 382.861 Z" style=""/>
  <path fill="#F3DC6B" d="M 328.369 440.098 L 321.528 409.75 L 278.617 409.75 L 271.702 440.098 L 227.683 440.098 L 272.885 280.786 L 326.298 280.786 L 372.013 440.098 L 328.369 440.098 Z M 425.004 438.154 L 423.115 438.035 C 418.797 437.777 414.49 437.363 410.203 436.79 C 406.13 436.247 402.07 435.611 398.025 434.883 C 394.223 434.197 390.447 433.363 386.709 432.385 L 386.709 400.124 C 391.423 400.542 396.538 400.879 402.01 401.168 C 407.491 401.448 413.06 401.658 418.681 401.794 C 424.304 401.924 429.529 402.003 434.385 402.003 C 434.715 401.996 435.06 402.009 435.398 402.009 C 438.903 402.009 442.409 401.651 445.842 400.959 C 448.395 400.493 450.767 399.317 452.691 397.565 C 454.276 395.88 455.103 393.615 454.976 391.3 L 454.976 388.852 C 454.983 388.682 454.988 388.519 454.988 388.343 C 454.988 385.811 453.782 383.433 451.743 381.948 C 449.607 380.447 447.065 379.641 444.461 379.642 L 433.118 379.642 C 417.013 379.642 404.802 376.092 396.486 368.965 C 388.17 361.84 384.022 349.915 384.042 333.174 L 384.042 326.269 C 384.042 310.925 388.631 299.438 397.791 291.828 C 404.589 286.15 413.657 282.593 425.004 281.157 L 425.004 264.731 L 447.478 264.731 L 447.478 280.706 C 450.315 280.849 453.14 281.086 455.716 281.366 C 461.377 281.993 466.889 282.776 471.939 283.663 C 476.996 284.551 481.566 285.563 485.585 286.489 L 485.585 318.751 C 479.209 318.209 472.024 317.75 464.039 317.386 C 456.048 317.021 448.784 316.851 442.273 316.871 L 441.642 316.871 C 438.364 316.871 435.099 317.163 431.879 317.713 C 429.232 318.06 426.759 319.228 424.803 321.054 C 423.012 323.048 422.11 325.691 422.303 328.37 L 422.303 330.485 C 422.297 330.706 422.279 330.928 422.279 331.151 C 422.279 333.938 423.481 336.589 425.576 338.414 C 428.577 340.445 432.172 341.399 435.781 341.123 L 449.523 341.123 C 450.075 341.11 450.666 341.097 451.225 341.097 C 459.072 341.097 466.824 343.01 473.769 346.664 C 480.012 350.166 485.084 355.449 488.344 361.846 C 491.559 368.302 493.235 375.423 493.238 382.645 C 493.238 382.932 493.232 383.225 493.232 383.493 L 493.232 390.41 C 493.232 403.668 490.941 413.784 486.364 420.767 C 481.791 427.737 474.823 432.763 466.791 434.883 C 460.464 436.638 453.975 437.742 447.426 438.174 L 447.426 456.147 L 425.004 456.141 L 425.004 438.154 Z M 314.165 375.877 L 307.545 344.974 C 306.842 341.548 305.946 337.607 304.954 333.11 C 303.952 328.607 302.991 324.094 302.071 319.572 C 301.182 315.037 300.48 311.095 299.962 307.747 C 299.348 311.561 298.681 315.366 297.962 319.162 C 297.112 323.546 296.261 327.979 295.299 332.436 C 294.449 336.55 293.548 340.654 292.599 344.747 L 285.869 375.877 L 314.165 375.877 Z" style=""/>
  <path class="cls-3" d="M 366.292 63.44 C 533.268 63.44 669.113 199.25 669.113 366.17 C 669.113 533.09 533.268 668.89 366.292 668.89 C 199.316 668.89 63.461 533.09 63.461 366.17 C 63.461 199.25 199.306 63.44 366.292 63.44 M 366.292 0 C 163.995 0 0 163.94 0 366.17 C 0 568.4 163.995 732.33 366.292 732.33 C 568.589 732.33 732.574 568.4 732.574 366.17 C 732.574 163.94 568.589 0 366.292 0 Z" style=""/>
</svg>