<?xml version="1.0" encoding="utf-8"?>
<svg viewBox="0 0 732.33 807.54" width="732.33" height="807.54" xmlns="http://www.w3.org/2000/svg" xmlns:xlink="http://www.w3.org/1999/xlink">
  <defs>
    <linearGradient id="linear-gradient" x1="52.55" y1="724.97" x2="679.79" y2="724.97" gradientUnits="userSpaceOnUse">
      <stop offset="0" stop-color="#01f0ff"/>
      <stop offset="0.98" stop-color="#f0f"/>
    </linearGradient>
    <linearGradient id="linear-gradient-2" x1="136.57" y1="80.91" x2="595.76" y2="651.43" xlink:href="#linear-gradient"/>
    <style>.cls-1{fill:url(#linear-gradient);}.cls-2{fill:#2a5ada;}.cls-2,.cls-3{isolation:isolate;}.cls-3{fill:url(#linear-gradient-2);}</style>
  </defs>
  <path class="cls-1" d="M366.16,807.54c-116.48,0-313.61-17.39-313.61-82.57S249.68,642.4,366.16,642.4,679.79,659.8,679.79,725,482.65,807.54,366.16,807.54ZM87.19,725c8.22,17.13,109.13,48.1,279,48.1s270.77-31,279-48.1c-8.21-17.12-109.13-48.09-279-48.09S95.41,707.85,87.19,725Z"/>
  <circle class="st0" cx="1006.528" cy="418.166" r="394" style="fill: rgb(10, 193, 142);" transform="matrix(0.8252819776535034, 0, 0, 0.8495121002197266, -463.9921875, 15.216520309448235)"/>
  <path id="symbol_1_" class="st1" d="M 468.106 258.062 C 451.766 219.919 414.215 211.764 368.247 219.664 L 353.474 160.708 L 318.646 169.967 L 333.172 228.754 C 324.012 231.132 314.603 233.171 305.278 235.889 L 290.752 177.443 L 255.925 186.703 L 270.698 245.658 C 263.188 247.868 200.384 264.433 200.384 264.433 L 209.958 302.83 C 209.958 302.83 235.541 295.441 235.294 296.036 C 249.488 292.212 256.173 299.518 259.309 306.4 L 299.912 467.977 C 300.408 472.649 299.583 480.634 289.845 483.352 C 290.422 483.692 264.508 490.064 264.508 490.064 L 268.305 534.833 C 268.305 534.833 330.531 518.437 338.701 516.314 L 353.638 575.949 L 388.466 566.689 L 373.528 506.63 C 383.101 504.335 392.427 501.957 401.506 499.493 L 416.361 559.214 L 451.187 549.955 L 436.25 490.404 C 489.893 476.98 527.775 442.151 520.016 388.887 C 515.065 356.775 480.98 330.44 452.673 327.467 C 470.087 311.581 478.917 288.389 468.106 258.062 Z M 451.353 398.656 C 458.285 451.411 387.063 457.867 363.542 464.239 L 343.076 385.319 C 366.679 378.947 439.633 352.188 451.353 398.656 Z M 408.438 291.193 C 415.783 338.086 354.876 343.523 335.236 348.705 L 316.584 277.091 C 336.309 272.079 393.5 247.783 408.438 291.193 Z" style="fill: rgb(255, 255, 255);"/>
  <path class="cls-3" d="M366.17,63.44c166.92,0,302.72,135.81,302.72,302.73S533.09,668.89,366.17,668.89,63.44,533.09,63.44,366.17,199.24,63.44,366.17,63.44m0-63.44C163.94,0,0,163.94,0,366.17S163.94,732.33,366.17,732.33,732.33,568.4,732.33,366.17,568.4,0,366.17,0Z"/>
</svg>