<?xml version="1.0" encoding="utf-8"?>
<svg viewBox="0 0 732.574 807.54" width="732.574" height="807.54" xmlns="http://www.w3.org/2000/svg" xmlns:xlink="http://www.w3.org/1999/xlink">
  <defs>
    <linearGradient id="linear-gradient" x1="52.55" y1="724.97" x2="679.79" y2="724.97" gradientUnits="userSpaceOnUse" gradientTransform="matrix(1.000333, 0, 0, 1, 0, 0)">
      <stop offset="0" stop-color="#01f0ff"/>
      <stop offset="0.98" stop-color="#f0f"/>
    </linearGradient>
    <linearGradient id="linear-gradient-2" x1="136.57" y1="80.91" x2="595.76" y2="651.43" gradientTransform="matrix(1.000333, 0, 0, 1, 0, 0)" xlink:href="#linear-gradient"/>
    <style>.cls-1{fill:url(#linear-gradient);}.cls-2{fill:#2a5ada;}.cls-2,.cls-3{isolation:isolate;}.cls-3{fill:url(#linear-gradient-2);}</style>
  </defs>
  <path class="cls-1" d="M 366.282 807.54 C 249.763 807.54 52.568 790.15 52.568 724.97 C 52.568 659.79 249.763 642.4 366.282 642.4 C 482.801 642.4 680.016 659.8 680.016 725 C 680.016 790.2 482.811 807.54 366.282 807.54 Z M 87.219 725 C 95.442 742.13 196.385 773.1 366.312 773.1 C 536.239 773.1 637.172 742.1 645.405 725 C 637.192 707.88 536.239 676.91 366.312 676.91 C 196.385 676.91 95.442 707.85 87.219 725 Z" style=""/>
  <g transform="matrix(1.1908559799194336, 0, 0, 1.1814539432525635, -755.8761596679688, -43.12605285644531)" style="">
    <path fill="#ECCA43" fill-rule="nonzero" d="M 942.633 90.643 C 1013.322 90.643 1077.326 119.302 1123.648 165.627 C 1169.974 211.949 1198.633 275.954 1198.633 346.643 C 1198.633 417.327 1169.974 481.332 1123.648 527.658 C 1077.322 573.98 1013.318 602.638 942.633 602.638 C 871.948 602.638 807.944 573.98 761.618 527.658 C 715.292 481.332 686.633 417.327 686.633 346.643 C 686.633 275.954 715.292 211.949 761.618 165.627 C 807.944 119.302 871.948 90.643 942.633 90.643 Z"/>
    <ellipse fill="#F7E259" cx="942.633" cy="346.641" rx="250.992" ry="250.991"/>
    <path fill="#F8D548" d="M 1190.386 306.335 C 1192.54 319.663 1193.622 333.142 1193.622 346.643 C 1193.622 485.257 1081.251 597.631 942.633 597.631 C 804.015 597.631 691.64 485.257 691.64 346.643 C 691.64 324.785 694.441 303.587 699.691 283.372 L 946.126 466.848 L 1190.386 306.335 L 1190.386 306.335 Z"/>
    <path fill="#D7925B" fill-rule="nonzero" d="M 942.633 149.565 C 997.047 149.565 1046.321 171.626 1081.986 207.29 C 1117.65 242.951 1139.711 292.225 1139.711 346.639 C 1139.711 401.053 1117.65 450.327 1081.986 485.991 C 1046.325 521.655 997.051 543.717 942.633 543.717 C 888.219 543.717 838.945 521.655 803.284 485.991 C 767.62 450.327 745.559 401.053 745.559 346.639 C 745.559 292.225 767.62 242.951 803.284 207.29 C 838.945 171.626 888.219 149.565 942.633 149.565 Z"/>
    <circle fill="#EDA140" cx="942.634" cy="346.64" r="192.069"/>
    <path fill="#C26A34" fill-rule="nonzero" d="M 988.414 416.385 L 986.787 416.291 C 983.06 416.062 979.342 415.702 975.64 415.212 C 971.98 414.724 968.475 414.182 965.13 413.581 C 961.844 412.985 958.58 412.269 955.346 411.435 L 955.346 383.722 C 959.422 384.086 963.839 384.381 968.567 384.619 C 973.294 384.865 978.104 385.043 982.956 385.161 C 987.812 385.274 992.324 385.339 996.517 385.339 C 996.801 385.331 997.104 385.346 997.384 385.346 C 1000.415 385.346 1003.443 385.035 1006.411 384.441 C 1008.617 384.04 1010.666 383.029 1012.326 381.523 C 1013.599 380.178 1014.308 378.397 1014.309 376.546 C 1014.309 376.41 1014.309 376.277 1014.302 376.153 L 1014.302 374.045 C 1014.309 373.904 1014.309 373.753 1014.309 373.613 C 1014.309 371.433 1013.269 369.389 1011.509 368.114 C 1009.661 366.829 1007.465 366.14 1005.215 366.138 L 995.427 366.138 C 981.518 366.138 970.97 363.08 963.786 356.968 C 956.61 350.844 953.03 340.598 953.052 326.224 L 953.052 320.293 C 953.052 307.11 957.004 297.255 964.914 290.719 C 970.792 285.832 978.623 282.782 988.414 281.552 L 988.414 267.442 L 1007.83 267.442 L 1007.83 281.166 C 1010.271 281.29 1012.712 281.491 1014.93 281.737 C 1019.824 282.271 1024.581 282.937 1028.945 283.701 C 1033.317 284.466 1037.264 285.336 1040.731 286.131 L 1040.731 313.836 C 1035.224 313.37 1029.017 312.984 1022.121 312.663 C 1015.222 312.353 1008.958 312.205 1003.322 312.227 L 1002.781 312.227 C 999.954 312.227 997.134 312.47 994.349 312.947 C 992.064 313.243 989.929 314.245 988.24 315.812 C 986.838 317.376 986.062 319.403 986.06 321.504 C 986.06 321.705 986.067 321.905 986.09 322.098 L 986.09 323.907 C 986.075 324.1 986.06 324.294 986.06 324.486 C 986.06 326.886 987.097 329.157 988.91 330.727 C 991.203 332.268 993.902 333.093 996.665 333.097 C 997.02 333.097 997.376 333.074 997.728 333.051 L 1009.586 333.051 C 1010.071 333.044 1010.574 333.029 1011.058 333.029 C 1017.841 333.029 1024.528 334.671 1030.531 337.809 C 1035.922 340.817 1040.3 345.355 1043.112 350.851 C 1045.887 356.397 1047.333 362.513 1047.336 368.715 L 1047.336 375.381 C 1047.336 386.765 1045.353 395.455 1041.397 401.462 C 1037.449 407.444 1031.431 411.76 1024.498 413.581 C 1019.034 415.084 1013.432 416.031 1007.777 416.408 L 1007.777 431.838 L 988.414 431.838 L 988.414 416.385 L 988.414 416.385 Z M 899.297 308.223 C 895.527 308.223 892.174 309.188 889.233 311.096 C 886.27 313.018 883.745 315.796 881.698 319.4 C 879.628 323.041 878.057 327.45 876.971 332.624 C 875.884 337.797 875.343 343.675 875.343 350.253 C 875.343 359.227 876.289 366.729 878.185 372.769 C 880.089 378.832 882.947 383.374 886.743 386.405 C 890.543 389.437 895.369 390.974 901.148 390.974 C 906.386 390.974 911.435 390.149 916.317 388.453 C 921.329 386.706 926.235 384.669 931.01 382.352 L 931.01 412.596 C 925.833 415.214 920.336 417.146 914.66 418.345 C 908.971 419.557 902.904 420.166 896.485 420.166 C 883.613 420.166 872.978 417.32 864.515 411.669 C 856.056 406.019 849.758 397.938 845.606 387.461 C 841.454 376.985 839.41 364.53 839.41 350.06 C 839.41 339.554 840.727 329.975 843.339 321.319 C 845.962 312.636 849.743 305.142 854.773 298.867 C 859.803 292.596 865.964 287.736 873.235 284.303 C 880.49 280.874 888.756 279.129 898.048 279.129 C 904.437 279.129 910.826 279.902 917.275 281.427 C 923.754 282.963 930.083 285.386 936.343 288.773 L 926.317 316.656 C 922.002 314.226 917.661 312.209 913.286 310.619 C 908.88 309.018 904.213 308.223 899.297 308.223 L 899.297 308.223 Z"/>
    <path fill="#F3DC6B" d="M 893.291 302.217 C 889.521 302.217 886.168 303.182 883.227 305.089 C 880.263 307.012 877.739 309.79 875.691 313.393 C 873.621 317.034 872.05 321.443 870.964 326.617 C 869.878 331.791 869.337 337.669 869.337 344.247 C 869.337 353.221 870.283 360.722 872.179 366.763 C 874.083 372.826 876.94 377.368 880.736 380.399 C 884.536 383.431 889.362 384.967 895.141 384.967 C 900.379 384.967 905.429 384.142 910.311 382.447 C 915.323 380.7 920.228 378.663 925.003 376.346 L 925.003 406.59 C 919.825 409.207 914.329 411.139 908.653 412.339 C 902.965 413.55 896.897 414.16 890.479 414.16 C 877.606 414.16 866.971 411.313 858.508 405.663 C 850.049 400.012 843.752 391.932 839.599 381.455 C 835.448 370.979 833.404 358.523 833.404 344.054 C 833.404 333.547 834.721 323.968 837.332 315.312 C 839.955 306.63 843.736 299.136 848.766 292.861 C 853.796 286.589 859.958 281.73 867.228 278.297 C 874.484 274.868 882.75 273.123 892.042 273.123 C 898.43 273.123 904.819 273.895 911.268 275.421 C 917.748 276.957 924.076 279.379 930.336 282.767 L 920.31 310.649 C 915.996 308.219 911.655 306.202 907.279 304.612 C 902.874 303.011 898.207 302.217 893.291 302.217 L 893.291 302.217 Z M 982.408 410.379 L 980.78 410.284 C 977.053 410.055 973.336 409.695 969.634 409.205 C 966.119 408.741 962.614 408.197 959.123 407.574 C 955.837 406.979 952.574 406.263 949.34 405.428 L 949.34 377.716 C 953.416 378.079 957.833 378.374 962.56 378.613 C 967.287 378.859 972.098 379.037 976.95 379.154 C 981.805 379.267 986.317 379.332 990.51 379.332 C 990.795 379.324 991.097 379.339 991.378 379.339 C 994.409 379.339 997.437 379.029 1000.404 378.435 C 1002.61 378.034 1004.66 377.024 1006.32 375.517 C 1007.592 374.172 1008.302 372.391 1008.303 370.54 C 1008.303 370.404 1008.303 370.271 1008.295 370.146 L 1008.295 368.038 C 1008.303 367.898 1008.303 367.747 1008.303 367.607 C 1008.305 365.43 1007.263 363.385 1005.502 362.107 C 1003.654 360.822 1001.458 360.133 999.208 360.132 L 989.42 360.132 C 975.511 360.132 964.963 357.073 957.78 350.961 C 950.604 344.837 947.023 334.592 947.046 320.217 L 947.046 314.286 C 947.046 301.104 950.997 291.248 958.908 284.712 C 964.786 279.826 972.616 276.775 982.408 275.545 L 982.408 261.436 L 1001.823 261.436 L 1001.823 275.159 C 1004.265 275.284 1006.706 275.485 1008.924 275.731 C 1013.817 276.264 1018.575 276.93 1022.939 277.695 C 1027.31 278.46 1031.258 279.33 1034.724 280.125 L 1034.724 307.83 C 1029.218 307.364 1023.011 306.978 1016.115 306.656 C 1009.215 306.346 1002.951 306.198 997.316 306.221 L 996.775 306.221 C 993.947 306.221 991.128 306.463 988.342 306.94 C 986.058 307.237 983.922 308.238 982.233 309.805 C 980.832 311.37 980.056 313.396 980.053 315.497 C 980.053 315.698 980.061 315.899 980.084 316.092 L 980.084 317.901 C 980.066 318.093 980.055 318.286 980.053 318.48 C 980.051 320.875 981.092 323.153 982.903 324.721 C 985.196 326.262 987.895 327.086 990.658 327.09 C 991.014 327.09 991.37 327.068 991.722 327.045 L 1003.58 327.045 C 1004.064 327.037 1004.567 327.022 1005.052 327.022 C 1011.834 327.022 1018.522 328.665 1024.525 331.802 C 1029.915 334.811 1034.293 339.349 1037.105 344.845 C 1039.88 350.391 1041.327 356.507 1041.329 362.709 L 1041.329 369.374 C 1041.329 380.759 1039.346 389.449 1035.391 395.455 C 1031.443 401.437 1025.425 405.753 1018.492 407.574 C 1013.028 409.078 1007.425 410.025 1001.77 410.401 L 1001.77 425.832 L 982.408 425.832 L 982.408 410.379 L 982.408 410.379 Z"/>
  </g>
  <path class="cls-3" d="M 366.292 63.44 C 533.268 63.44 669.113 199.25 669.113 366.17 C 669.113 533.09 533.268 668.89 366.292 668.89 C 199.316 668.89 63.461 533.09 63.461 366.17 C 63.461 199.25 199.306 63.44 366.292 63.44 M 366.292 0 C 163.995 0 0 163.94 0 366.17 C 0 568.4 163.995 732.33 366.292 732.33 C 568.589 732.33 732.574 568.4 732.574 366.17 C 732.574 163.94 568.589 0 366.292 0 Z" style=""/>
</svg>