<?xml version="1.0" encoding="utf-8"?>
<svg viewBox="0 0 732.574 807.54" width="732.574" height="807.54" xmlns="http://www.w3.org/2000/svg" xmlns:xlink="http://www.w3.org/1999/xlink">
  <defs>
    <linearGradient id="linear-gradient" x1="52.55" y1="724.97" x2="679.79" y2="724.97" gradientUnits="userSpaceOnUse" gradientTransform="matrix(1.000333, 0, 0, 1, 0, 0)">
      <stop offset="0" stop-color="#01f0ff"/>
      <stop offset="0.98" stop-color="#f0f"/>
    </linearGradient>
    <linearGradient id="linear-gradient-2" x1="136.57" y1="80.91" x2="595.76" y2="651.43" gradientTransform="matrix(1.000333, 0, 0, 1, 0, 0)" xlink:href="#linear-gradient"/>
    <style>.cls-1{fill:url(#linear-gradient);}.cls-2{fill:#2a5ada;}.cls-2,.cls-3{isolation:isolate;}.cls-3{fill:url(#linear-gradient-2);}</style>
  </defs>
  <path class="cls-1" d="M 366.282 807.54 C 249.763 807.54 52.568 790.15 52.568 724.97 C 52.568 659.79 249.763 642.4 366.282 642.4 C 482.801 642.4 680.016 659.8 680.016 725 C 680.016 790.2 482.811 807.54 366.282 807.54 Z M 87.219 725 C 95.442 742.13 196.385 773.1 366.312 773.1 C 536.239 773.1 637.172 742.1 645.405 725 C 637.192 707.88 536.239 676.91 366.312 676.91 C 196.385 676.91 95.442 707.85 87.219 725 Z" style=""/>
  <path fill="#ECCA43" fill-rule="nonzero" d="M 365.238 58.453 C 450.012 58.453 526.774 92.657 582.334 147.945 C 637.894 203.23 672.265 279.623 672.265 363.984 C 672.265 448.344 637.894 524.733 582.334 580.023 C 526.774 635.307 450.012 669.51 365.238 669.51 C 280.464 669.51 203.702 635.307 148.142 580.023 C 92.582 524.733 58.211 448.344 58.211 363.984 C 58.211 279.623 92.582 203.23 148.142 147.945 C 203.697 92.657 280.459 58.453 365.238 58.453 Z" style=""/>
  <path fill="#F7E259" d="M 365.238 64.429 C 531.486 64.429 666.26 198.545 666.26 363.984 C 666.26 529.418 531.486 663.534 365.238 663.534 C 198.99 663.534 64.216 529.418 64.216 363.984 C 64.216 198.545 198.99 64.429 365.238 64.429 Z" style=""/>
  <path fill="#F8D548" d="M 662.374 315.878 C 664.958 331.784 666.255 347.873 666.255 363.984 C 666.255 529.418 531.486 663.534 365.238 663.534 C 198.99 663.534 64.216 529.418 64.216 363.984 C 64.216 337.898 67.575 312.597 73.872 288.471 L 369.427 507.447 L 662.374 315.878 Z" style=""/>
  <path fill="#D7925B" fill-rule="nonzero" d="M 365.238 128.775 C 430.498 128.775 489.594 155.105 532.367 197.669 C 575.14 240.229 601.598 299.037 601.598 363.979 C 601.598 428.925 575.14 487.734 532.367 530.293 C 489.594 572.858 430.498 599.189 365.238 599.189 C 299.978 599.189 240.882 572.858 198.113 530.293 C 155.341 487.729 128.882 428.922 128.882 363.979 C 128.882 299.037 155.341 240.229 198.113 197.669 C 240.882 155.105 299.978 128.775 365.238 128.775 Z" style=""/>
  <path fill="#EDA140" d="M 365.238 134.751 C 492.458 134.751 595.593 237.383 595.593 363.979 C 595.593 490.579 492.458 593.213 365.238 593.213 C 238.022 593.213 134.887 490.579 134.887 363.979 C 134.887 237.383 238.022 134.751 365.238 134.751 Z" style=""/>
  <path fill="#C26A34" d="M 302.372 241.876 L 460.344 241.876 C 462.699 241.884 464.606 243.781 464.613 246.123 L 464.613 285.082 C 464.601 287.423 462.698 289.318 460.344 289.329 L 348.615 289.329 L 348.615 335.917 L 432.569 335.917 C 434.919 335.917 436.838 337.856 436.838 340.166 L 436.838 379.124 C 436.838 381.434 434.891 383.372 432.569 383.372 L 348.615 383.372 L 348.615 420.345 L 374.059 420.345 C 376.358 420.345 378.238 422.239 378.238 424.504 L 378.238 454.415 C 378.238 456.682 376.333 458.574 374.059 458.574 L 348.615 458.574 L 348.615 489 C 348.615 491.315 346.672 493.248 344.347 493.248 L 306.64 493.248 C 304.316 493.248 302.372 491.338 302.372 489 L 302.372 458.574 L 277.252 458.574 C 274.967 458.574 273.074 456.699 273.074 454.415 L 273.074 424.504 C 273.082 422.21 274.948 420.354 277.252 420.345 L 302.372 420.345 L 302.372 241.876 Z" style=""/>
  <path fill="#F3DC6B" d="M 295.169 234.708 L 453.141 234.708 C 455.496 234.716 457.403 236.614 457.41 238.956 L 457.41 277.914 C 457.398 280.256 455.494 282.15 453.141 282.162 L 341.412 282.162 L 341.412 328.749 L 425.366 328.749 C 427.716 328.749 429.635 330.686 429.635 332.997 L 429.635 371.955 C 429.635 374.266 427.688 376.203 425.366 376.203 L 341.412 376.203 L 341.412 413.178 L 366.856 413.178 C 369.155 413.178 371.033 415.072 371.033 417.334 L 371.033 447.248 C 371.033 449.513 369.13 451.405 366.856 451.405 L 341.412 451.405 L 341.412 481.832 C 341.412 484.145 339.468 486.08 337.144 486.08 L 299.437 486.08 C 297.112 486.08 295.169 484.171 295.169 481.832 L 295.169 451.405 L 270.048 451.405 C 267.764 451.405 265.87 449.531 265.87 447.248 L 265.87 417.334 C 265.879 415.042 267.745 413.186 270.048 413.178 L 295.169 413.178 L 295.169 234.708 Z" style=""/>
  <path class="cls-3" d="M 366.292 63.44 C 533.268 63.44 669.113 199.25 669.113 366.17 C 669.113 533.09 533.268 668.89 366.292 668.89 C 199.316 668.89 63.461 533.09 63.461 366.17 C 63.461 199.25 199.306 63.44 366.292 63.44 M 366.292 0 C 163.995 0 0 163.94 0 366.17 C 0 568.4 163.995 732.33 366.292 732.33 C 568.589 732.33 732.574 568.4 732.574 366.17 C 732.574 163.94 568.589 0 366.292 0 Z" style=""/>
</svg>