<svg id="Layer_1" data-name="Layer 1" xmlns="http://www.w3.org/2000/svg" xmlns:xlink="http://www.w3.org/1999/xlink" viewBox="0 0 732.33 807.54"><defs><style>.cls-1{fill:url(#linear-gradient);}.cls-2{fill:#0c0c0c;}.cls-2,.cls-3{isolation:isolate;}.cls-3{fill:url(#linear-gradient-2);}.cls-4{fill:#06e8ff;}</style><linearGradient id="linear-gradient" x1="52.55" y1="724.97" x2="679.79" y2="724.97" gradientUnits="userSpaceOnUse"><stop offset="0" stop-color="#01f0ff"/><stop offset="0.98" stop-color="#f0f"/></linearGradient><linearGradient id="linear-gradient-2" x1="136.57" y1="80.91" x2="595.76" y2="651.43" xlink:href="#linear-gradient"/></defs><path class="cls-1" d="M366.16,807.54c-116.48,0-313.61-17.39-313.61-82.57S249.68,642.4,366.16,642.4,679.79,659.8,679.79,725,482.65,807.54,366.16,807.54ZM87.19,725c8.22,17.13,109.13,48.1,279,48.1s270.77-31,279-48.1c-8.21-17.12-109.13-48.09-279-48.09S95.41,707.85,87.19,725Z"/><circle class="cls-2" cx="366.17" cy="366.17" r="302.72"/><path class="cls-3" d="M366.17,63.44c166.92,0,302.72,135.81,302.72,302.73S533.09,668.89,366.17,668.89,63.44,533.09,63.44,366.17,199.24,63.44,366.17,63.44m0-63.44C163.94,0,0,163.94,0,366.17S163.94,732.33,366.17,732.33,732.33,568.4,732.33,366.17,568.4,0,366.17,0Z"/><path class="cls-4" d="M214,332.21a35.45,35.45,0,0,0-22.91-7.76q-13.35,0-22.47,7.76a41.46,41.46,0,0,0-5.28,5.47V327.57H147.14V490.23h18.33v-58a43.85,43.85,0,0,0,3.31,3.23q9.16,7.86,22.69,7.87a34.77,34.77,0,0,0,22.73-7.82q9.56-7.83,14.75-21.32a84.25,84.25,0,0,0,5.19-30.4q0-17-5.23-30.39T214,332.21ZM211.93,404a32.31,32.31,0,0,1-8.55,14.33,20.34,20.34,0,0,1-14.44,5.32q-9,0-14.66-5.11T166,404.42a74,74,0,0,1-2.62-20.65A72.85,72.85,0,0,1,166,363.13q2.67-9,8.21-14t14.09-5q9.07,0,14.92,5.32a31.73,31.73,0,0,1,8.68,14.28,66.27,66.27,0,0,1,2.84,20A67.12,67.12,0,0,1,211.93,404Z"/><path class="cls-4" d="M333.14,303.59A42.19,42.19,0,0,0,308.31,291a63.31,63.31,0,0,0-9.12-.84c-3.17-.07-5.33-.1-6.5-.1H253.34V440.18h39.35c1.17,0,3.33,0,6.5-.1a63.31,63.31,0,0,0,9.12-.84,42.36,42.36,0,0,0,24.83-12.56q10.08-10.38,15.23-26.38a122.69,122.69,0,0,0,0-70.28Q343.21,314,333.14,303.59Zm-1.79,85.71a50.87,50.87,0,0,1-8.77,19.13,26.52,26.52,0,0,1-15.58,10,50.13,50.13,0,0,1-7.24.83q-4.1.21-7.07.21H272V310.79h20.68q2.88,0,7,.15a39,39,0,0,1,7.28.89,26.17,26.17,0,0,1,15.41,9.75,50.9,50.9,0,0,1,8.85,19,99.42,99.42,0,0,1,2.88,24.56A101.21,101.21,0,0,1,331.35,389.3Z"/><polygon class="cls-4" points="373.85 440.18 392.08 440.18 392.08 376.06 437.81 376.06 437.81 354.16 392.08 354.16 392.08 311.83 448.28 311.83 448.28 290.04 373.85 290.04 373.85 440.18"/><polygon class="cls-4" points="463.99 440.18 544.27 440.18 544.27 419.64 482.23 419.64 482.23 373.24 533.8 373.24 533.8 352.7 482.23 352.7 482.23 310.58 544.27 310.58 544.27 290.04 463.99 290.04 463.99 440.18"/><rect class="cls-4" x="566.95" y="290.04" width="18.24" height="150.14"/></svg>