<svg id="Layer_1" data-name="Layer 1" xmlns="http://www.w3.org/2000/svg" xmlns:xlink="http://www.w3.org/1999/xlink" viewBox="0 0 732.33 807.54"><defs><style>.cls-1{fill:url(#linear-gradient);}.cls-2{fill:#fff;}.cls-2,.cls-5{isolation:isolate;}.cls-3{fill:#1e1e1e;}.cls-4{fill:#e6007a;}.cls-5{fill:url(#linear-gradient-2);}</style><linearGradient id="linear-gradient" x1="52.55" y1="724.97" x2="679.79" y2="724.97" gradientUnits="userSpaceOnUse"><stop offset="0" stop-color="#01f0ff"/><stop offset="0.98" stop-color="#f0f"/></linearGradient><linearGradient id="linear-gradient-2" x1="136.57" y1="80.91" x2="595.76" y2="651.43" xlink:href="#linear-gradient"/></defs><path class="cls-1" d="M366.16,807.54c-116.48,0-313.61-17.39-313.61-82.57S249.68,642.4,366.16,642.4,679.79,659.8,679.79,725,482.65,807.54,366.16,807.54ZM87.19,725c8.22,17.13,109.13,48.1,279,48.1s270.77-31,279-48.1c-8.21-17.12-109.13-48.09-279-48.09S95.41,707.85,87.19,725Z"/><circle class="cls-2" cx="366.17" cy="366.17" r="326.98"/><path class="cls-3" d="M368.18,166.42A151.94,151.94,0,0,0,216.83,317.76a155.84,155.84,0,0,0,8,49.16,20.82,20.82,0,1,0,39.48-13.26,99.82,99.82,0,0,1-5.88-38.59A109.17,109.17,0,1,1,374.16,427.33s-21.23,1.3-31.8,2.6a111.6,111.6,0,0,0-11.57,2.29,1.39,1.39,0,0,1-2,0l0,0a1.4,1.4,0,0,1,0-1.69l3.29-17.95L352,322.85a20.75,20.75,0,0,0-40.58-8.68S264,533.82,264,535.81a20,20,0,0,0,14.41,24.24l.35.09h1.1a19.94,19.94,0,0,0,24.29-14.32c.05-.18.09-.36.13-.54a4.18,4.18,0,0,1,0-1c.6-2.59,6.58-31.8,6.58-31.8a53.85,53.85,0,0,1,44.57-42.37c4.59-.7,23.83-2,23.83-2a151.24,151.24,0,0,0-11.07-301.69Z"/><path class="cls-4" d="M377.35,515.37a25.22,25.22,0,0,0-29.83,19.56c0,.13,0,.25-.08.38a25.13,25.13,0,0,0,19.2,29.9h.74A24.72,24.72,0,0,0,397.22,547c0-.11,0-.21.07-.31v-1.4A26.12,26.12,0,0,0,377.35,515.37Z"/><path class="cls-5" d="M366.17,63.44c166.92,0,302.72,135.81,302.72,302.73S533.09,668.89,366.17,668.89,63.44,533.09,63.44,366.17,199.24,63.44,366.17,63.44m0-63.44C163.94,0,0,163.94,0,366.17S163.94,732.33,366.17,732.33,732.33,568.4,732.33,366.17,568.4,0,366.17,0Z"/></svg>