<?xml version="1.0" encoding="utf-8"?>
<svg viewBox="0 0 732.574 807.54" width="732.574" height="807.54" xmlns="http://www.w3.org/2000/svg" xmlns:xlink="http://www.w3.org/1999/xlink">
  <defs>
    <linearGradient id="linear-gradient" x1="52.55" y1="724.97" x2="679.79" y2="724.97" gradientUnits="userSpaceOnUse" gradientTransform="matrix(1.000333, 0, 0, 1, 0, 0)">
      <stop offset="0" stop-color="#01f0ff"/>
      <stop offset="0.98" stop-color="#f0f"/>
    </linearGradient>
    <linearGradient id="linear-gradient-2" x1="136.57" y1="80.91" x2="595.76" y2="651.43" gradientTransform="matrix(1.000333, 0, 0, 1, 0, 0)" xlink:href="#linear-gradient"/>
    <style>.cls-1{fill:url(#linear-gradient);}.cls-2{fill:#2a5ada;}.cls-2,.cls-3{isolation:isolate;}.cls-3{fill:url(#linear-gradient-2);}</style>
  </defs>
  <path class="cls-1" d="M 366.282 807.54 C 249.763 807.54 52.568 790.15 52.568 724.97 C 52.568 659.79 249.763 642.4 366.282 642.4 C 482.801 642.4 680.016 659.8 680.016 725 C 680.016 790.2 482.811 807.54 366.282 807.54 Z M 87.219 725 C 95.442 742.13 196.385 773.1 366.312 773.1 C 536.239 773.1 637.172 742.1 645.405 725 C 637.192 707.88 536.239 676.91 366.312 676.91 C 196.385 676.91 95.442 707.85 87.219 725 Z" style=""/>
  <path class="cls-1" d="M 365.186 58.825 C 599.694 58.755 746.331 314.895 629.137 519.87 C 511.942 724.845 218.807 724.93 101.494 520.02 C 32.503 399.517 52.344 247.265 149.871 148.859 C 206.903 91.118 284.399 58.71 365.186 58.825 Z" style="fill: rgb(254, 203, 0);"/>
  <path class="cls-2" d="M 365.186 102.542 C 509.459 102.517 626.425 220.546 626.4 366.139 C 626.4 367.689 626.4 369.189 626.4 370.74 C 622.896 174.939 410.664 56.394 244.378 157.356 C 78.095 258.319 82.477 503.07 252.26 597.904 C 288.28 618.028 328.632 628.936 369.796 629.686 L 365.236 629.686 C 164.15 629.686 38.476 410.02 139.016 234.29 C 185.678 152.735 271.914 102.492 365.236 102.492 L 365.186 102.542 Z" style="fill: rgb(208, 139, 0); fill-rule: evenodd; isolation: auto;"/>
  <path class="cls-3" d="M 374.307 120.898 C 568.408 120.898 689.716 332.936 592.671 502.564 C 495.62 672.191 252.993 672.191 155.944 502.564 C 133.812 463.885 122.164 420.009 122.164 375.342 C 122.164 234.815 235.051 120.898 374.307 120.898 Z" style="fill: rgb(219, 147, 0); fill-rule: evenodd; isolation: auto;"/>
  <path class="cls-4" d="M 434.677 389.297 L 426.501 424.31 L 369.598 424.31 C 376.935 448.27 392.994 460.223 417.529 460.223 C 445.039 460.048 471.694 450.595 493.265 433.363 L 493.265 505.44 C 472.36 519.536 447.616 526.703 422.486 525.948 C 377.94 525.948 344.895 515.478 323.352 494.536 C 303.313 475.95 289.623 451.434 284.245 424.511 L 250.738 424.511 L 259.611 389.497 L 280.33 389.497 C 280.012 386.171 279.884 382.836 279.933 379.494 C 279.933 374.492 279.933 370.691 280.33 368.39 L 255.547 368.39 L 264.418 333.377 L 284.84 333.377 C 300.93 267.052 345.459 233.89 418.421 233.89 C 443.818 234.23 468.74 240.933 490.936 253.397 L 474.084 323.423 C 457.033 307.352 439.269 299.315 420.8 299.315 C 396.542 299.315 380.156 310.518 371.631 332.926 L 439.289 332.926 L 431.11 367.94 L 365.138 367.94 C 364.816 371.596 364.681 375.272 364.741 378.944 L 364.741 388.947 L 434.677 389.297 Z" style="fill: rgb(177, 118, 0);"/>
  <path class="cls-1" d="M 421.594 377.343 L 413.415 411.756 L 356.513 411.756 C 363.849 435.264 379.908 446.768 404.443 446.768 C 431.858 446.619 458.455 437.35 480.131 420.409 L 480.131 491.135 C 459.184 504.931 434.55 511.918 409.549 511.142 C 365.003 511.142 331.958 500.888 310.416 480.381 C 290.455 462.254 276.741 438.181 271.259 411.655 L 237.653 411.655 L 246.526 377.242 L 267.244 377.242 C 266.921 373.917 266.788 370.58 266.848 367.239 C 266.798 363.599 266.931 359.961 267.244 356.335 L 242.46 356.335 L 251.333 321.873 L 271.704 321.873 C 287.963 257.083 332.572 224.687 405.534 224.687 C 430.906 225.087 455.799 231.73 478.048 244.045 L 461.146 312.569 C 443.997 296.799 426.152 288.911 407.616 288.911 C 383.378 288.911 366.923 299.864 358.446 321.823 L 426.203 321.823 L 417.975 356.435 L 352.002 356.435 C 351.754 358.937 351.655 362.537 351.655 367.339 L 351.655 377.343 L 421.594 377.343 Z" style="fill: rgb(254, 203, 0);"/>
  <path class="cls-3" d="M 366.292 63.44 C 533.268 63.44 669.113 199.25 669.113 366.17 C 669.113 533.09 533.268 668.89 366.292 668.89 C 199.316 668.89 63.461 533.09 63.461 366.17 C 63.461 199.25 199.306 63.44 366.292 63.44 M 366.292 0 C 163.995 0 0 163.94 0 366.17 C 0 568.4 163.995 732.33 366.292 732.33 C 568.589 732.33 732.574 568.4 732.574 366.17 C 732.574 163.94 568.589 0 366.292 0 Z" style=""/>
</svg>