<?xml version="1.0" encoding="utf-8"?>
<svg viewBox="0 0 732.33 807.54" width="732.33" height="807.54" xmlns="http://www.w3.org/2000/svg" xmlns:xlink="http://www.w3.org/1999/xlink">
  <defs>
    <linearGradient id="linear-gradient" x1="52.55" y1="724.97" x2="679.79" y2="724.97" gradientUnits="userSpaceOnUse">
      <stop offset="0" stop-color="#01f0ff"/>
      <stop offset="0.98" stop-color="#f0f"/>
    </linearGradient>
    <linearGradient id="linear-gradient-2" x1="136.57" y1="80.91" x2="595.76" y2="651.43" xlink:href="#linear-gradient"/>
    <style>.cls-1{fill:url(#linear-gradient);}.cls-2{fill:#2a5ada;}.cls-2,.cls-3{isolation:isolate;}.cls-3{fill:url(#linear-gradient-2);}</style>
  </defs>
  <path class="cls-1" d="M366.16,807.54c-116.48,0-313.61-17.39-313.61-82.57S249.68,642.4,366.16,642.4,679.79,659.8,679.79,725,482.65,807.54,366.16,807.54ZM87.19,725c8.22,17.13,109.13,48.1,279,48.1s270.77-31,279-48.1c-8.21-17.12-109.13-48.09-279-48.09S95.41,707.85,87.19,725Z"/>
  <circle cx="1250" cy="1250" r="348.994" style="fill: rgb(234, 230, 231);" transform="matrix(0.9690240621566772, 0, 0, 0.9716269969940186, -845.7168579101562, -846.1951904296875)"/>
  <path class="cls-3" d="M366.17,63.44c166.92,0,302.72,135.81,302.72,302.73S533.09,668.89,366.17,668.89,63.44,533.09,63.44,366.17,199.24,63.44,366.17,63.44m0-63.44C163.94,0,0,163.94,0,366.17S163.94,732.33,366.17,732.33,732.33,568.4,732.33,366.17,568.4,0,366.17,0Z"/>
  <path d="M 174.038 165.055 L 174.038 557.897 L 553.085 557.897 L 553.085 165.055 L 174.038 165.055 Z M 306.55 210.625 L 341.99 210.625 L 341.99 248.338 L 306.55 248.338 L 306.55 210.625 Z M 217.181 210.625 L 254.161 210.625 L 254.161 248.338 L 217.181 248.338 L 217.181 210.625 Z M 252.621 301.764 L 252.621 339.477 L 215.64 339.477 L 215.64 301.764 L 252.621 301.764 Z M 243.376 509.184 L 227.967 509.184 L 227.967 495.042 L 241.835 495.042 L 241.835 509.184 L 243.376 509.184 Z M 254.161 433.759 L 217.181 433.759 L 217.181 397.617 L 254.161 397.617 L 254.161 433.759 Z M 332.744 509.184 L 318.877 509.184 L 318.877 495.042 L 332.744 495.042 L 332.744 509.184 Z M 332.744 421.188 L 318.877 421.188 L 318.877 407.046 L 332.744 407.046 L 332.744 421.188 Z M 343.53 341.048 L 306.55 341.048 L 306.55 303.335 L 343.53 303.335 L 343.53 341.048 Z M 422.113 509.184 L 408.246 509.184 L 408.246 495.042 L 422.113 495.042 L 422.113 509.184 Z M 422.113 421.188 L 408.246 421.188 L 408.246 407.046 L 422.113 407.046 L 422.113 421.188 Z M 422.113 328.477 L 408.246 328.477 L 408.246 314.335 L 422.113 314.335 L 422.113 328.477 Z M 434.44 248.338 L 397.46 248.338 L 397.46 210.625 L 434.44 210.625 L 434.44 248.338 Z M 513.023 509.184 L 499.156 509.184 L 499.156 495.042 L 513.023 495.042 L 513.023 509.184 Z M 513.023 421.188 L 499.156 421.188 L 499.156 407.046 L 513.023 407.046 L 513.023 421.188 Z M 513.023 328.477 L 499.156 328.477 L 499.156 314.335 L 513.023 314.335 L 513.023 328.477 Z M 513.023 237.338 L 499.156 237.338 L 499.156 223.196 L 513.023 223.196 L 513.023 237.338 Z" style="fill: rgb(32, 41, 68);"/>
</svg>