<?xml version="1.0" encoding="utf-8"?>
<svg viewBox="0 0 732.33 807.54" width="732.33" height="807.54" xmlns="http://www.w3.org/2000/svg" xmlns:xlink="http://www.w3.org/1999/xlink">
  <defs>
    <linearGradient id="linear-gradient" x1="52.55" y1="724.97" x2="679.79" y2="724.97" gradientUnits="userSpaceOnUse">
      <stop offset="0" stop-color="#01f0ff"/>
      <stop offset="0.98" stop-color="#f0f"/>
    </linearGradient>
    <mask id="mask" x="10" y="6" width="93.1" height="20" maskUnits="userSpaceOnUse">
      <g id="a">
        <path class="cls-1" d="M10,6h93.1V26H10Z" style="fill: rgb(255, 255, 255); fill-rule: evenodd;"/>
      </g>
    </mask>
    <linearGradient id="linear-gradient-2" x1="136.57" y1="80.91" x2="595.76" y2="651.43" xlink:href="#linear-gradient"/>
    <style>.cls-1{fill:url(#linear-gradient);}.cls-2{fill:#2a5ada;}.cls-2,.cls-3{isolation:isolate;}.cls-3{fill:url(#linear-gradient-2);}</style>
  </defs>
  <path class="cls-1" d="M366.16,807.54c-116.48,0-313.61-17.39-313.61-82.57S249.68,642.4,366.16,642.4,679.79,659.8,679.79,725,482.65,807.54,366.16,807.54ZM87.19,725c8.22,17.13,109.13,48.1,279,48.1s270.77-31,279-48.1c-8.21-17.12-109.13-48.09-279-48.09S95.41,707.85,87.19,725Z"/>
  <g id="Layer_2" data-name="Layer 2" transform="matrix(21.838899612426758, 0, 0, 21.509811401367188, 15.610732078552253, 27.352567672729485)" style="">
    <g id="Layer_1-2" data-name="Layer 1">
      <circle class="cls-2" cx="16" cy="16" r="16" style="fill: rgb(19, 181, 236); isolation: auto;"/>
      <g class="cls-3" style="fill: rgb(0, 0, 0); isolation: auto; mask-image: url('#mask');">
        <path class="cls-1" d="M17.2,12.9l3.6-2.1V15Zm3.6,9L16,24.7l-4.8-2.8V17L16,19.8,20.8,17ZM11.2,10.8l3.6,2.1L11.2,15Zm5.4,3.1L20.2,16l-3.6,2.1Zm-1.2,4.2L11.8,16l3.6-2.1Zm4.8-8.3L16,12.2,11.8,9.8,16,7.3ZM10,9.4V22.5l6,3.4,6-3.4V9.4L16,6Z" style="fill: rgb(255, 255, 255); fill-rule: evenodd;"/>
      </g>
    </g>
  </g>
  <path class="cls-3" d="M366.17,63.44c166.92,0,302.72,135.81,302.72,302.73S533.09,668.89,366.17,668.89,63.44,533.09,63.44,366.17,199.24,63.44,366.17,63.44m0-63.44C163.94,0,0,163.94,0,366.17S163.94,732.33,366.17,732.33,732.33,568.4,732.33,366.17,568.4,0,366.17,0Z"/>
</svg>