<?xml version="1.0" encoding="utf-8"?>
<svg viewBox="0 0 732.574 807.54" width="732.574" height="807.54" xmlns="http://www.w3.org/2000/svg" xmlns:xlink="http://www.w3.org/1999/xlink">
  <defs>
    <linearGradient id="linear-gradient" x1="52.55" y1="724.97" x2="679.79" y2="724.97" gradientUnits="userSpaceOnUse" gradientTransform="matrix(1.000333, 0, 0, 1, 0, 0)">
      <stop offset="0" stop-color="#01f0ff"/>
      <stop offset="0.98" stop-color="#f0f"/>
    </linearGradient>
    <linearGradient id="linear-gradient-2" x1="136.57" y1="80.91" x2="595.76" y2="651.43" gradientTransform="matrix(1.000333, 0, 0, 1, 0, 0)" xlink:href="#linear-gradient"/>
    <style>.cls-1{fill:url(#linear-gradient);}.cls-2{fill:#2a5ada;}.cls-2,.cls-3{isolation:isolate;}.cls-3{fill:url(#linear-gradient-2);}</style>
  </defs>
  <path class="cls-1" d="M 366.282 807.54 C 249.763 807.54 52.568 790.15 52.568 724.97 C 52.568 659.79 249.763 642.4 366.282 642.4 C 482.801 642.4 680.016 659.8 680.016 725 C 680.016 790.2 482.811 807.54 366.282 807.54 Z M 87.219 725 C 95.442 742.13 196.385 773.1 366.312 773.1 C 536.239 773.1 637.172 742.1 645.405 725 C 637.192 707.88 536.239 676.91 366.312 676.91 C 196.385 676.91 95.442 707.85 87.219 725 Z" style=""/>
  <path class="cls-1" d="M 363.178 58.35 C 600.615 58.287 749.088 314.049 630.425 518.73 C 511.767 723.41 214.971 723.495 96.194 518.879 C 26.34 398.549 46.434 246.518 145.174 148.253 C 202.917 90.595 281.382 58.235 363.178 58.35 Z" style="fill: rgb(254, 203, 0);"/>
  <path class="cls-2" d="M 363.178 102.003 C 509.257 101.978 627.685 219.836 627.654 365.219 C 627.654 366.768 627.654 368.266 627.654 369.815 C 624.108 174.295 409.224 55.922 240.862 156.74 C 72.504 257.555 76.936 501.952 248.847 596.65 C 285.31 616.744 326.172 627.637 367.846 628.387 L 363.229 628.387 C 159.637 628.387 32.388 409.038 134.188 233.561 C 181.428 152.124 268.74 101.953 363.229 101.953 L 363.178 102.003 Z" style="fill: rgb(208, 139, 0); fill-rule: evenodd; isolation: auto;"/>
  <path class="cls-3" d="M 372.413 120.333 C 568.938 120.333 691.766 332.066 593.502 501.448 C 495.241 670.831 249.585 670.831 151.321 501.448 C 128.918 462.824 117.12 419.011 117.12 374.41 C 117.12 234.086 231.416 120.333 372.413 120.333 Z" style="fill: rgb(219, 147, 0); fill-rule: evenodd; isolation: auto;"/>
  <path class="cls-4" d="M 371.961 357.179 L 429.523 357.179 L 429.523 403.328 L 378.636 403.328 C 378.198 413.443 376.217 423.428 372.764 432.948 C 369.486 440.449 364.989 447.367 359.465 453.424 C 365.432 451.982 371.539 451.193 377.682 451.078 C 386.163 451.378 394.579 452.635 402.775 454.824 C 413.886 457.694 425.278 459.368 436.75 459.818 C 442.817 459.898 448.874 459.308 454.817 458.07 C 461.732 456.216 468.457 453.709 474.89 450.579 L 500.987 507.866 C 490.477 513.391 479.407 517.795 467.966 521.002 C 458.004 523.46 447.765 524.668 437.502 524.598 C 423.683 524.313 409.962 522.195 396.702 518.306 C 376.628 512.712 364.232 509.465 359.364 508.565 C 354.226 507.682 349.021 507.246 343.807 507.267 C 327.511 507.267 309.515 513.046 289.807 524.598 L 265.217 469.657 C 291.98 450.313 305.366 430.984 305.366 411.67 C 305.366 410.621 305.366 407.724 305.013 402.98 L 265.367 402.98 L 265.367 357.179 L 293.722 357.179 C 288.704 340.297 286.143 330.408 285.591 327.711 C 284.719 322.766 284.318 317.746 284.388 312.726 C 284.176 297.407 288.582 282.379 297.033 269.573 C 304.953 257.155 316.515 247.462 330.158 241.803 C 347.827 235.416 366.572 232.477 385.36 233.162 C 402.88 232.533 420.37 235.035 437.002 240.554 C 449.828 245.608 460.969 254.14 469.17 265.178 C 478.313 277.51 484.512 291.759 487.287 306.833 L 414.769 318.071 C 411.156 304.437 406.939 295.345 402.223 290.851 C 392.707 281.695 377.531 281.964 368.348 291.449 C 363.514 297.248 361.09 304.659 361.572 312.178 C 361.558 316.793 362.009 321.392 362.929 325.911 C 363.73 330.357 366.791 340.896 371.961 357.129 L 371.961 357.179 Z" style="fill: rgb(177, 118, 0);"/>
  <path class="cls-1" d="M 358.712 345.84 L 416.174 345.84 L 416.174 391.092 L 365.387 391.092 C 364.9 400.922 362.923 410.621 359.515 419.86 C 356.258 427.327 351.761 434.2 346.215 440.189 C 352.192 438.805 358.3 438.052 364.433 437.942 C 372.91 438.251 381.326 439.489 389.525 441.637 C 400.641 444.494 412.029 446.167 423.502 446.632 C 429.569 446.727 435.627 446.158 441.567 444.934 C 448.468 443.101 455.187 440.645 461.642 437.593 L 487.487 494.032 C 476.953 499.446 465.887 503.765 454.464 506.917 C 444.478 509.325 434.231 510.498 423.953 510.414 C 410.157 510.134 396.462 508.07 383.203 504.27 C 363.127 498.776 350.681 495.63 345.864 494.73 C 340.725 493.846 335.522 493.412 330.308 493.431 C 314.012 493.431 296.016 499.09 276.308 510.414 L 251.968 456.422 C 278.731 437.442 292.117 418.498 292.117 399.582 C 292.117 398.534 292.117 395.737 291.714 391.092 L 251.968 391.092 L 251.968 345.84 L 280.322 345.84 C 275.304 329.309 272.745 319.619 272.141 316.972 C 271.299 312.022 270.912 307.007 270.988 301.989 C 270.793 286.934 275.204 272.18 283.635 259.684 C 291.634 247.477 303.192 237.997 316.757 232.514 C 334.442 226.179 353.181 223.277 371.961 223.972 C 389.489 223.337 406.991 225.81 423.652 231.263 C 436.404 236.173 447.54 244.51 455.822 255.337 C 464.944 267.385 471.143 281.371 473.938 296.193 L 401.52 307.582 C 397.857 294.196 393.691 285.306 388.924 280.91 C 379.382 271.869 364.312 272.14 355.098 281.51 C 350.23 287.114 347.776 294.397 348.273 301.788 C 348.259 306.318 348.715 310.839 349.629 315.274 C 350.481 319.619 353.544 329.808 358.712 345.84 Z" style="fill: rgb(254, 203, 0);"/>
  <path class="cls-3" d="M 366.292 63.44 C 533.268 63.44 669.113 199.25 669.113 366.17 C 669.113 533.09 533.268 668.89 366.292 668.89 C 199.316 668.89 63.461 533.09 63.461 366.17 C 63.461 199.25 199.306 63.44 366.292 63.44 M 366.292 0 C 163.995 0 0 163.94 0 366.17 C 0 568.4 163.995 732.33 366.292 732.33 C 568.589 732.33 732.574 568.4 732.574 366.17 C 732.574 163.94 568.589 0 366.292 0 Z" style=""/>
</svg>