<?xml version="1.0" encoding="utf-8"?>
<svg viewBox="0 0 732.33 807.54" width="732.33" height="807.54" xmlns="http://www.w3.org/2000/svg" xmlns:xlink="http://www.w3.org/1999/xlink">
  <defs>
    <linearGradient id="linear-gradient" x1="52.55" y1="724.97" x2="679.79" y2="724.97" gradientUnits="userSpaceOnUse">
      <stop offset="0" stop-color="#01f0ff"/>
      <stop offset="0.98" stop-color="#f0f"/>
    </linearGradient>
    <linearGradient id="linear-gradient-2" x1="136.57" y1="80.91" x2="595.76" y2="651.43" xlink:href="#linear-gradient"/>
    <style>.cls-1{fill:url(#linear-gradient);}.cls-2{fill:#2a5ada;}.cls-2,.cls-3{isolation:isolate;}.cls-3{fill:url(#linear-gradient-2);}</style>
  </defs>
  <path class="cls-1" d="M366.16,807.54c-116.48,0-313.61-17.39-313.61-82.57S249.68,642.4,366.16,642.4,679.79,659.8,679.79,725,482.65,807.54,366.16,807.54ZM87.19,725c8.22,17.13,109.13,48.1,279,48.1s270.77-31,279-48.1c-8.21-17.12-109.13-48.09-279-48.09S95.41,707.85,87.19,725Z"/>
  <circle cx="1250" cy="1250" r="348.994" style="fill: rgb(234, 230, 231);" transform="matrix(0.9690240621566772, 0, 0, 0.9716269969940186, -844.350341796875, -844.8303833007812)"/>
  <path class="cls-3" d="M366.17,63.44c166.92,0,302.72,135.81,302.72,302.73S533.09,668.89,366.17,668.89,63.44,533.09,63.44,366.17,199.24,63.44,366.17,63.44m0-63.44C163.94,0,0,163.94,0,366.17S163.94,732.33,366.17,732.33,732.33,568.4,732.33,366.17,568.4,0,366.17,0Z"/>
  <g transform="matrix(1.5455310344696045, 0, 0, 2.0462100505828857, -1235.0892333984375, -403.7047424316406)" style="">
    <path class="st0" d="M 1095.882 271.092 C 1133.451 283.952 1159.28 315.184 1156.932 346.416 C 1088.838 346.416 1020.744 346.416 954.998 346.416 C 954.998 326.207 964.39 304.161 983.175 289.464 C 1009.004 263.744 1058.313 256.395 1095.882 271.092 Z" style="fill: rgb(95, 192, 193);"/>
    <path class="st1" d="M 1091.186 471.344 C 1095.882 471.344 1098.23 473.181 1098.23 475.019 C 1098.23 476.856 1095.882 478.693 1091.186 478.693 L 983.175 478.693 C 978.479 478.693 976.131 476.856 976.131 475.019 C 976.131 473.181 978.479 471.344 983.175 471.344 L 1091.186 471.344 Z" style="fill: rgb(225, 23, 124);"/>
    <path class="st1" d="M 959.694 480.53 C 964.39 480.53 966.738 478.693 966.738 475.019 C 966.738 471.344 964.39 469.507 959.694 469.507 C 954.998 469.507 952.65 471.344 952.65 475.019 C 952.65 478.693 954.998 480.53 959.694 480.53 Z" style="fill: rgb(225, 23, 124);"/>
    <path class="st1" d="M 1025.44 458.484 C 1030.136 458.484 1032.484 456.647 1032.484 452.972 C 1032.484 449.298 1030.136 447.461 1025.44 447.461 C 1020.744 447.461 1018.396 449.298 1018.396 452.972 C 1018.396 456.647 1020.744 458.484 1025.44 458.484 Z" style="fill: rgb(225, 23, 124);"/>
    <path class="st1" d="M 1152.236 447.461 C 1156.932 447.461 1159.28 449.298 1159.28 452.972 C 1159.28 456.647 1156.932 458.484 1152.236 458.484 L 1046.573 458.484 C 1041.876 458.484 1039.528 456.647 1039.528 452.972 C 1039.528 449.298 1041.876 447.461 1046.573 447.461 L 1152.236 447.461 Z" style="fill: rgb(225, 23, 124);"/>
    <path class="st1" d="M 884.556 436.438 C 889.252 436.438 891.6 434.601 891.6 430.926 C 891.6 427.252 889.252 425.415 884.556 425.415 C 879.86 425.415 877.512 427.252 877.512 430.926 C 877.512 434.601 882.208 436.438 884.556 436.438 Z" style="fill: rgb(225, 23, 124);"/>
    <path class="st1" d="M 990.219 425.415 C 994.915 425.415 997.263 427.252 997.263 430.926 C 997.263 434.601 994.915 436.438 990.219 436.438 L 903.341 436.438 C 898.645 436.438 896.297 434.601 896.297 430.926 C 896.297 427.252 898.645 425.415 903.341 425.415 L 990.219 425.415 Z" style="fill: rgb(225, 23, 124);"/>
    <path class="st1" d="M 1187.456 425.415 C 1192.153 425.415 1194.501 427.252 1194.501 430.926 C 1194.501 434.601 1192.153 436.438 1187.456 436.438 L 1013.7 436.438 C 1009.004 436.438 1006.656 434.601 1006.656 430.926 C 1006.656 427.252 1009.004 425.415 1013.7 425.415 L 1187.456 425.415 Z" style="fill: rgb(225, 23, 124);"/>
    <path class="st1" d="M 1154.584 403.369 C 1159.28 403.369 1161.628 405.206 1161.628 408.88 C 1161.628 412.555 1159.28 414.392 1154.584 414.392 L 940.91 414.392 C 938.562 416.229 933.866 412.555 933.866 408.88 C 933.866 405.206 936.214 403.369 940.91 403.369 L 1154.584 403.369 Z" style="fill: rgb(225, 23, 124);"/>
    <path class="st1" d="M 917.429 416.229 C 922.125 416.229 924.473 414.392 924.473 410.717 C 924.473 407.043 922.125 403.369 917.429 403.369 C 912.733 403.369 910.385 407.043 910.385 408.88 C 910.385 410.717 912.733 416.229 917.429 416.229 Z" style="fill: rgb(225, 23, 124);"/>
    <path class="st1" d="M 1109.97 383.16 C 1114.666 383.16 1117.015 384.997 1117.015 388.671 C 1117.015 392.346 1114.666 394.183 1109.97 394.183 L 896.297 394.183 C 893.948 394.183 889.252 392.346 889.252 388.671 C 889.252 384.997 891.6 383.16 896.297 383.16 L 1109.97 383.16 Z" style="fill: rgb(225, 23, 124);"/>
    <path class="st1" d="M 870.468 394.183 C 875.164 394.183 877.512 392.346 877.512 388.671 C 877.512 384.997 875.164 383.16 870.468 383.16 C 865.772 383.16 863.424 384.997 863.424 388.671 C 863.424 392.346 865.772 394.183 870.468 394.183 Z" style="fill: rgb(225, 23, 124);"/>
    <path class="st1" d="M 917.429 372.137 C 922.125 372.137 924.473 370.3 924.473 366.625 C 924.473 362.951 922.125 361.114 917.429 361.114 C 912.733 361.114 910.385 364.788 910.385 366.625 C 910.385 370.3 912.733 372.137 917.429 372.137 Z" style="fill: rgb(225, 23, 124);"/>
    <path class="st1" d="M 1175.716 361.114 C 1180.412 361.114 1182.76 362.951 1182.76 366.625 C 1182.76 370.3 1180.412 372.137 1175.716 372.137 L 943.258 372.137 C 938.562 372.137 936.214 370.3 936.214 366.625 C 936.214 362.951 938.562 361.114 943.258 361.114 L 1175.716 361.114 Z" style="fill: rgb(225, 23, 124);"/>
  </g>
</svg>