<?xml version="1.0" encoding="utf-8"?>
<svg viewBox="0 0 732.33 807.54" width="732.33" height="807.54" xmlns="http://www.w3.org/2000/svg" xmlns:xlink="http://www.w3.org/1999/xlink">
  <defs>
    <linearGradient id="linear-gradient" x1="52.55" y1="724.97" x2="679.79" y2="724.97" gradientUnits="userSpaceOnUse">
      <stop offset="0" stop-color="#01f0ff"/>
      <stop offset="0.98" stop-color="#f0f"/>
    </linearGradient>
    <linearGradient id="linear-gradient-2" x1="136.57" y1="80.91" x2="595.76" y2="651.43" xlink:href="#linear-gradient"/>
    <style>.cls-1{fill:url(#linear-gradient);}.cls-2{fill:#2a5ada;}.cls-2,.cls-3{isolation:isolate;}.cls-3{fill:url(#linear-gradient-2);}</style>
  </defs>
  <path class="cls-1" d="M366.16,807.54c-116.48,0-313.61-17.39-313.61-82.57S249.68,642.4,366.16,642.4,679.79,659.8,679.79,725,482.65,807.54,366.16,807.54ZM87.19,725c8.22,17.13,109.13,48.1,279,48.1s270.77-31,279-48.1c-8.21-17.12-109.13-48.09-279-48.09S95.41,707.85,87.19,725Z"/>
  <g transform="matrix(0.9652120471000671, 0, 0, 0.9729029536247253, -824.3201904296875, 22.594888687133782)" style="">
    <circle class="st0" cx="1102.399" cy="206.961" r="48" style="fill: rgb(103, 71, 237);" transform="matrix(7.193728, 0, 0, 7.159947, -6708.75293, -1124.355469)"/>
    <g id="Symbols" transform="matrix(7.193728, 0, 0, 7.159947, 876.303284, 13.796066)" style="">
      <g transform="translate(-88.000000, -52.000000)">
        <path id="Fill-19" class="st1" d="M135.3,106.2c-7.1,0-12.8-5.7-12.8-12.8c0-7.1,5.7-12.8,12.8-12.8c7.1,0,12.8,5.7,12.8,12.8 C148.1,100.5,142.4,106.2,135.3,106.2 M135.3,74.2c10.6,0,19.2,8.6,19.2,19.2s-8.6,19.2-19.2,19.2c-10.6,0-19.2-8.6-19.2-19.2 S124.7,74.2,135.3,74.2z M153.6,113.6c1.3,1.3,1.3,3.3,0,4.5l-12.8,12.8c-1.3,1.3-3.3,1.3-4.5,0c-1.3-1.3-1.3-3.3,0-4.5l12.8-12.8 C150.3,112.3,152.4,112.3,153.6,113.6z M161,77.4c0,1.8-1.4,3.2-3.2,3.2c-1.8,0-3.2-1.4-3.2-3.2s1.4-3.2,3.2-3.2 C159.5,74.2,161,75.6,161,77.4z" style="clip-rule: evenodd; fill: rgb(255, 255, 255); fill-rule: evenodd;"/>
      </g>
    </g>
  </g>
  <path class="cls-3" d="M366.17,63.44c166.92,0,302.72,135.81,302.72,302.73S533.09,668.89,366.17,668.89,63.44,533.09,63.44,366.17,199.24,63.44,366.17,63.44m0-63.44C163.94,0,0,163.94,0,366.17S163.94,732.33,366.17,732.33,732.33,568.4,732.33,366.17,568.4,0,366.17,0Z"/>
</svg>