<?xml version="1.0" encoding="utf-8"?>
<svg viewBox="0 0 732.33 807.54" width="732.33" height="807.54" xmlns="http://www.w3.org/2000/svg" xmlns:xlink="http://www.w3.org/1999/xlink">
  <defs>
    <linearGradient id="linear-gradient" x1="52.55" y1="724.97" x2="679.79" y2="724.97" gradientUnits="userSpaceOnUse">
      <stop offset="0" stop-color="#01f0ff"/>
      <stop offset="0.98" stop-color="#f0f"/>
    </linearGradient>
    <linearGradient id="linear-gradient-2" x1="136.57" y1="80.91" x2="595.76" y2="651.43" xlink:href="#linear-gradient"/>
    <style>.cls-1{fill:url(#linear-gradient);}.cls-2{fill:#2a5ada;}.cls-2,.cls-3{isolation:isolate;}.cls-3{fill:url(#linear-gradient-2);}</style>
  </defs>
  <linearGradient id="SVGID_1_" gradientUnits="userSpaceOnUse" x1="224.7853" y1="257.7536" x2="348.0663" y2="133.4581" gradientTransform="matrix(1.323515, 0, 0, -1.503378, 125.001404, 640.743771)">
    <stop offset="0.21" style="stop-color:#F15A24"/>
    <stop offset="0.6841" style="stop-color:#FBB03B"/>
  </linearGradient>
  <linearGradient id="SVGID_2_" gradientUnits="userSpaceOnUse" x1="133.9461" y1="106.4262" x2="10.6653" y2="230.7215" gradientTransform="matrix(1.323515, 0, 0, -1.503378, 125.001404, 640.743771)">
    <stop offset="0.21" style="stop-color:#ED1E79"/>
    <stop offset="0.8929" style="stop-color:#522785"/>
  </linearGradient>
  <path class="cls-1" d="M366.16,807.54c-116.48,0-313.61-17.39-313.61-82.57S249.68,642.4,366.16,642.4,679.79,659.8,679.79,725,482.65,807.54,366.16,807.54ZM87.19,725c8.22,17.13,109.13,48.1,279,48.1s270.77-31,279-48.1c-8.21-17.12-109.13-48.09-279-48.09S95.41,707.85,87.19,725Z"/>
  <circle cx="1250" cy="1250" r="348.994" style="fill: rgb(234, 230, 231);" transform="matrix(0.9690240621566772, 0, 0, 0.9716269969940186, -845.7168579101562, -846.1951904296875)"/>
  <path class="cls-3" d="M366.17,63.44c166.92,0,302.72,135.81,302.72,302.73S533.09,668.89,366.17,668.89,63.44,533.09,63.44,366.17,199.24,63.44,366.17,63.44m0-63.44C163.94,0,0,163.94,0,366.17S163.94,732.33,366.17,732.33,732.33,568.4,732.33,366.17,568.4,0,366.17,0Z"/>
  <path class="st0" d="M 484.468 231.824 C 457.997 231.824 429.012 248.211 398.439 280.533 C 384.013 295.718 371.307 312.255 362.043 325.334 C 362.043 325.334 376.866 344.728 393.145 365.625 C 402.013 352.996 414.586 335.858 429.277 320.373 C 456.409 291.508 474.144 285.645 484.335 285.645 C 522.453 285.645 553.423 322.027 553.423 366.978 C 553.423 411.478 522.453 447.859 484.335 448.31 C 482.482 448.31 480.365 448.01 477.718 447.408 C 488.835 453.272 500.879 457.481 512.129 457.481 C 582.011 457.481 595.775 402.608 596.569 398.699 C 598.555 388.626 599.746 378.103 599.746 367.278 C 599.613 292.56 547.996 231.824 484.468 231.824 Z" style="fill: url('#SVGID_1_');"/>
  <path class="st1" d="M 240.279 502.131 C 266.749 502.131 295.734 485.745 326.308 453.422 C 340.734 438.238 353.44 421.701 362.704 408.621 C 362.704 408.621 347.881 389.228 331.602 368.331 C 322.734 380.959 310.161 398.098 295.47 413.582 C 268.338 442.147 250.47 448.31 240.411 448.31 C 202.294 448.31 171.324 411.929 171.324 366.978 C 171.324 322.478 202.294 286.096 240.411 285.645 C 242.264 285.645 244.382 285.946 247.029 286.547 C 235.912 280.684 223.868 276.474 212.618 276.474 C 142.736 276.324 128.972 331.197 128.177 335.256 C 126.192 345.329 125.001 355.853 125.001 366.677 C 125.001 441.395 176.618 502.131 240.279 502.131 Z" style="fill: url('#SVGID_2_');"/>
  <path class="st2" d="M 293.484 321.576 C 285.808 313.157 248.485 278.729 212.75 277.527 C 148.957 275.723 130.295 328.341 128.574 335.106 C 140.883 276.174 186.412 232.125 240.411 231.824 C 284.485 231.824 329.087 280.984 362.043 325.334 C 362.043 325.334 362.175 325.184 362.175 325.184 C 362.175 325.184 376.998 344.577 393.277 365.474 C 393.277 365.474 411.807 390.28 431.395 412.079 C 439.071 420.498 476.262 454.474 511.997 455.677 C 577.511 457.782 595.643 402.157 596.569 397.947 C 584.525 457.331 538.864 501.53 484.6 501.831 C 440.527 501.831 395.924 452.67 362.837 408.321 C 362.837 408.471 362.704 408.471 362.704 408.621 C 362.704 408.621 347.881 389.228 331.602 368.331 C 331.734 368.331 313.205 343.375 293.484 321.576 Z M 128.574 335.707 C 128.574 335.557 128.574 335.407 128.707 335.256 C 128.574 335.407 128.574 335.557 128.574 335.707 Z" style="clip-rule: evenodd; fill: rgb(41, 171, 226); fill-rule: evenodd;"/>
</svg>