<?xml version="1.0" encoding="utf-8"?>
<svg viewBox="0 0 732.574 807.54" width="732.574" height="807.54" xmlns="http://www.w3.org/2000/svg" xmlns:xlink="http://www.w3.org/1999/xlink">
  <defs>
    <linearGradient id="linear-gradient" x1="52.55" y1="724.97" x2="679.79" y2="724.97" gradientUnits="userSpaceOnUse" gradientTransform="matrix(1.000333, 0, 0, 1, 0, 0)">
      <stop offset="0" stop-color="#01f0ff"/>
      <stop offset="0.98" stop-color="#f0f"/>
    </linearGradient>
    <linearGradient id="linear-gradient-2" x1="136.57" y1="80.91" x2="595.76" y2="651.43" gradientTransform="matrix(1.000333, 0, 0, 1, 0, 0)" xlink:href="#linear-gradient"/>
    <style>.cls-1{fill:url(#linear-gradient);}.cls-2{fill:#2a5ada;}.cls-2,.cls-3{isolation:isolate;}.cls-3{fill:url(#linear-gradient-2);}</style>
  </defs>
  <path class="cls-1" d="M 366.282 807.54 C 249.763 807.54 52.568 790.15 52.568 724.97 C 52.568 659.79 249.763 642.4 366.282 642.4 C 482.801 642.4 680.016 659.8 680.016 725 C 680.016 790.2 482.811 807.54 366.282 807.54 Z M 87.219 725 C 95.442 742.13 196.385 773.1 366.312 773.1 C 536.239 773.1 637.172 742.1 645.405 725 C 637.192 707.88 536.239 676.91 366.312 676.91 C 196.385 676.91 95.442 707.85 87.219 725 Z" style=""/>
  <path class="cls-1" d="M 364.285 60.934 C 597.766 60.865 743.766 315.079 627.085 518.515 C 510.398 721.95 218.547 722.035 101.752 518.664 C 33.062 399.065 52.816 247.958 149.911 150.291 C 206.693 92.984 283.85 60.819 364.285 60.934 Z" style="fill: rgb(254, 203, 0);"/>
  <path class="cls-2" d="M 364.285 104.321 C 507.931 104.292 624.385 221.439 624.355 365.938 C 624.355 367.477 624.355 368.968 624.355 370.506 C 620.867 176.175 409.562 58.517 244.006 158.726 C 78.453 258.929 82.811 501.84 251.857 595.962 C 287.719 615.934 327.896 626.761 368.874 627.505 L 364.334 627.505 C 164.134 627.505 39.004 409.49 139.109 235.081 C 185.566 154.139 271.419 104.273 364.334 104.273 L 364.285 104.321 Z" style="fill: rgb(208, 139, 0); fill-rule: evenodd; isolation: auto;"/>
  <path class="cls-3" d="M 373.365 122.541 C 566.618 122.541 687.399 332.986 590.774 501.338 C 494.148 669.691 252.583 669.691 155.962 501.338 C 133.927 462.951 122.325 419.399 122.325 375.073 C 122.325 235.602 234.723 122.541 373.365 122.541 Z" style="fill: rgb(219, 147, 0); fill-rule: evenodd; isolation: auto;"/>
  <polygon class="cls-4" points="246.587 239.151 331.764 239.151 374.697 334.315 416.694 239.151 502.068 239.151 436.976 360.279 492.543 360.279 492.543 402.624 413.88 402.624 413.88 425.758 492.543 425.758 492.543 468.499 413.88 468.499 413.88 519.831 336.354 519.831 336.354 468.499 256.505 468.499 256.505 425.758 336.354 425.758 336.354 402.624 256.505 402.624 256.505 360.279 313.603 360.279 246.587 239.151 246.587 239.151" style="fill: rgb(177, 118, 0);"/>
  <polygon class="cls-1" points="233.559 230.266 318.686 230.266 361.67 323.494 403.616 230.266 489.039 230.266 423.948 349.01 479.516 349.01 479.516 390.511 400.803 390.511 400.803 413.149 479.516 413.149 479.516 455.046 400.803 455.046 400.803 505.385 323.275 505.385 323.275 455.046 243.478 455.046 243.478 413.149 323.275 413.149 323.275 390.511 243.478 390.511 243.478 349.01 300.575 349.01 233.559 230.266 233.559 230.266" style="fill: rgb(254, 203, 0);"/>
  <path class="cls-3" d="M 366.292 63.44 C 533.268 63.44 669.113 199.25 669.113 366.17 C 669.113 533.09 533.268 668.89 366.292 668.89 C 199.316 668.89 63.461 533.09 63.461 366.17 C 63.461 199.25 199.306 63.44 366.292 63.44 M 366.292 0 C 163.995 0 0 163.94 0 366.17 C 0 568.4 163.995 732.33 366.292 732.33 C 568.589 732.33 732.574 568.4 732.574 366.17 C 732.574 163.94 568.589 0 366.292 0 Z" style=""/>
</svg>