<?xml version="1.0" encoding="utf-8"?>
<svg viewBox="0 0 732.33 807.54" width="732.33" height="807.54" xmlns="http://www.w3.org/2000/svg" xmlns:xlink="http://www.w3.org/1999/xlink">
  <defs>
    <linearGradient id="linear-gradient" x1="52.55" y1="724.97" x2="679.79" y2="724.97" gradientUnits="userSpaceOnUse">
      <stop offset="0" stop-color="#01f0ff"/>
      <stop offset="0.98" stop-color="#f0f"/>
    </linearGradient>
    <linearGradient id="linear-gradient-2" x1="136.57" y1="80.91" x2="595.76" y2="651.43" xlink:href="#linear-gradient"/>
    <style>.cls-1{fill:url(#linear-gradient);}.cls-2{fill:#2a5ada;}.cls-2,.cls-3{isolation:isolate;}.cls-3{fill:url(#linear-gradient-2);}</style>
  </defs>
  <path class="cls-1" d="M366.16,807.54c-116.48,0-313.61-17.39-313.61-82.57S249.68,642.4,366.16,642.4,679.79,659.8,679.79,725,482.65,807.54,366.16,807.54ZM87.19,725c8.22,17.13,109.13,48.1,279,48.1s270.77-31,279-48.1c-8.21-17.12-109.13-48.09-279-48.09S95.41,707.85,87.19,725Z"/>
  <circle cx="457.962" cy="167.444" r="36.83" style="fill: rgb(255, 255, 255);" transform="matrix(7.672916889190674, 0, 0, 7.581674098968506, -3150.72216796875, -905.1504516601562)"/>
  <path d="M 363.182 51.233 C 119.244 51.233 -33.224 312.163 88.753 520.918 C 210.72 729.662 515.65 729.662 637.619 520.918 C 665.434 473.312 680.074 419.315 680.074 364.355 C 680.588 191.927 539.536 51.733 365.025 51.233 L 363.182 51.233 Z M 368.553 374.969 L 335.561 484.904 L 512.037 484.904 C 516.955 484.73 521.083 488.537 521.244 493.395 L 521.244 496.276 L 505.898 548.591 C 504.51 553.686 499.729 557.142 494.389 556.931 L 224.303 556.931 L 269.572 404.539 L 218.932 419.701 L 230.441 384.826 L 281.082 369.662 L 344.767 155.859 C 346.21 150.795 350.961 147.352 356.276 147.518 L 424.566 147.518 C 429.484 147.344 433.612 151.151 433.772 156.011 L 433.772 158.893 L 380.062 339.337 L 430.704 324.172 L 419.962 360.565 L 368.553 374.969 Z" style="fill: rgb(52, 93, 157);"/>
  <path class="cls-3" d="M366.17,63.44c166.92,0,302.72,135.81,302.72,302.73S533.09,668.89,366.17,668.89,63.44,533.09,63.44,366.17,199.24,63.44,366.17,63.44m0-63.44C163.94,0,0,163.94,0,366.17S163.94,732.33,366.17,732.33,732.33,568.4,732.33,366.17,568.4,0,366.17,0Z"/>
</svg>