<?xml version="1.0" encoding="utf-8"?>
<svg viewBox="0 0 732.33 807.54" width="732.33" height="807.54" xmlns="http://www.w3.org/2000/svg" xmlns:xlink="http://www.w3.org/1999/xlink">
  <defs>
    <linearGradient id="linear-gradient" x1="52.55" y1="724.97" x2="679.79" y2="724.97" gradientUnits="userSpaceOnUse">
      <stop offset="0" stop-color="#01f0ff"/>
      <stop offset="0.98" stop-color="#f0f"/>
    </linearGradient>
    <linearGradient id="linear-gradient-2" x1="136.57" y1="80.91" x2="595.76" y2="651.43" xlink:href="#linear-gradient"/>
    <style>.cls-1{fill:url(#linear-gradient);}.cls-2{fill:#2a5ada;}.cls-2,.cls-3{isolation:isolate;}.cls-3{fill:url(#linear-gradient-2);}</style>
  </defs>
  <path class="cls-1" d="M366.16,807.54c-116.48,0-313.61-17.39-313.61-82.57S249.68,642.4,366.16,642.4,679.79,659.8,679.79,725,482.65,807.54,366.16,807.54ZM87.19,725c8.22,17.13,109.13,48.1,279,48.1s270.77-31,279-48.1c-8.21-17.12-109.13-48.09-279-48.09S95.41,707.85,87.19,725Z"/>
  <circle cx="1250" cy="1250" r="348.994" style="fill: rgb(234, 230, 231);" transform="matrix(0.9690240621566772, 0, 0, 0.9716269969940186, -845.7168579101562, -846.1951904296875)"/>
  <path class="cls-3" d="M366.17,63.44c166.92,0,302.72,135.81,302.72,302.73S533.09,668.89,366.17,668.89,63.44,533.09,63.44,366.17,199.24,63.44,366.17,63.44m0-63.44C163.94,0,0,163.94,0,366.17S163.94,732.33,366.17,732.33,732.33,568.4,732.33,366.17,568.4,0,366.17,0Z"/>
  <path d="M 483.148 175.022 L 400.92 306.127 C 395.235 315.055 406.169 325.863 414.042 318.344 L 494.957 242.689 C 497.144 240.81 500.205 242.219 500.205 245.508 L 500.205 481.872 C 500.205 485.162 496.269 486.571 494.519 484.222 L 249.589 169.383 C 241.716 159.045 230.344 153.406 217.66 153.406 L 208.912 153.406 C 186.169 153.406 167.362 173.612 167.362 198.517 L 167.362 531.213 C 167.362 556.118 186.169 576.324 209.35 576.324 C 223.784 576.324 237.342 568.335 245.215 554.708 L 327.441 423.604 C 333.128 414.675 322.193 403.867 314.32 411.386 L 233.405 486.571 C 231.219 488.451 228.157 487.041 228.157 483.752 L 228.157 247.857 C 228.157 244.569 232.093 243.159 233.843 245.508 L 478.774 560.347 C 486.646 570.685 498.456 576.324 510.702 576.324 L 519.45 576.324 C 542.631 576.324 561.438 556.118 561.438 531.213 L 561.438 198.517 C 561.438 173.612 542.631 153.406 519.45 153.406 C 504.579 153.406 491.021 161.394 483.148 175.022 Z" style=""/>
</svg>