<?xml version="1.0" encoding="utf-8"?>
<svg viewBox="0 0 732.574 807.54" width="732.574" height="807.54" xmlns="http://www.w3.org/2000/svg" xmlns:xlink="http://www.w3.org/1999/xlink">
  <defs>
    <linearGradient id="linear-gradient" x1="52.55" y1="724.97" x2="679.79" y2="724.97" gradientUnits="userSpaceOnUse" gradientTransform="matrix(1.000333, 0, 0, 1, 0, 0)">
      <stop offset="0" stop-color="#01f0ff"/>
      <stop offset="0.98" stop-color="#f0f"/>
    </linearGradient>
    <linearGradient id="linear-gradient-2" x1="136.57" y1="80.91" x2="595.76" y2="651.43" gradientTransform="matrix(1.000333, 0, 0, 1, 0, 0)" xlink:href="#linear-gradient"/>
    <style>.cls-1{fill:url(#linear-gradient);}.cls-2{fill:#2a5ada;}.cls-2,.cls-3{isolation:isolate;}.cls-3{fill:url(#linear-gradient-2);}</style>
  </defs>
  <path class="cls-1" d="M 366.282 807.54 C 249.763 807.54 52.568 790.15 52.568 724.97 C 52.568 659.79 249.763 642.4 366.282 642.4 C 482.801 642.4 680.016 659.8 680.016 725 C 680.016 790.2 482.811 807.54 366.282 807.54 Z M 87.219 725 C 95.442 742.13 196.385 773.1 366.312 773.1 C 536.239 773.1 637.172 742.1 645.405 725 C 637.192 707.88 536.239 676.91 366.312 676.91 C 196.385 676.91 95.442 707.85 87.219 725 Z" style=""/>
  <path fill="#ECCA43" fill-rule="nonzero" d="M 367.574 60.283 C 452.034 60.283 528.513 94.294 583.868 149.27 C 639.222 204.242 673.467 280.2 673.467 364.09 C 673.467 447.973 639.222 523.931 583.868 578.908 C 528.513 633.881 452.034 667.89 367.574 667.89 C 283.112 667.89 206.634 633.881 151.28 578.908 C 95.925 523.931 61.68 447.973 61.68 364.09 C 61.68 280.2 95.925 204.242 151.28 149.27 C 206.63 94.294 283.107 60.283 367.574 60.283 Z" style=""/>
  <path fill="#F7E259" d="M 367.574 66.225 C 533.205 66.225 667.482 199.584 667.482 364.087 C 667.482 528.591 533.205 661.95 367.574 661.95 C 201.941 661.95 67.664 528.591 67.664 364.087 C 67.664 199.584 201.941 66.225 367.574 66.225 Z" style=""/>
  <path fill="#F8D548" d="M 663.613 316.255 C 666.186 332.07 667.48 348.068 667.48 364.09 C 667.48 528.59 533.208 661.949 367.574 661.949 C 201.939 661.949 67.663 528.59 67.663 364.09 C 67.663 338.15 71.01 312.993 77.283 289.003 L 371.747 506.743 L 663.613 316.255 Z" style=""/>
  <path fill="#D7925B" fill-rule="nonzero" d="M 367.574 130.208 C 432.592 130.208 491.469 156.39 534.086 198.713 C 576.701 241.034 603.061 299.51 603.061 364.085 C 603.061 428.66 576.701 487.136 534.086 529.461 C 491.469 571.785 432.592 597.967 367.574 597.967 C 302.554 597.967 243.677 571.785 201.066 529.461 C 158.451 487.136 132.09 428.66 132.09 364.085 C 132.09 299.51 158.451 241.034 201.066 198.713 C 243.677 156.39 302.554 130.208 367.574 130.208 Z" style=""/>
  <path fill="#EDA140" d="M 367.575 136.149 C 494.323 136.149 597.077 238.202 597.077 364.086 C 597.077 489.97 494.323 592.023 367.575 592.023 C 240.825 592.023 138.072 489.97 138.072 364.086 C 138.072 238.202 240.825 136.149 367.575 136.149 Z" style=""/>
  <path fill="#C26A34" fill-rule="nonzero" d="M 464.309 429.393 L 462.722 429.299 C 459.253 429.083 455.792 428.751 452.347 428.302 C 448.959 427.87 445.672 427.353 442.56 426.811 C 439.521 426.278 436.506 425.612 433.525 424.817 L 433.525 399.222 C 437.318 399.556 441.421 399.833 445.82 400.053 C 450.23 400.275 454.7 400.449 459.208 400.553 C 463.716 400.656 467.936 400.718 471.839 400.718 C 475.519 400.718 478.59 400.44 481.041 399.887 C 483.493 399.338 485.337 398.445 486.562 397.229 C 487.785 396.011 488.405 394.349 488.405 392.247 L 488.405 390.252 C 488.405 387.814 487.527 385.977 485.809 384.768 C 484.09 383.561 482.022 382.941 479.704 382.941 L 470.834 382.941 C 457.917 382.941 448.073 380.107 441.388 374.465 C 434.704 368.824 431.35 359.343 431.35 346.051 L 431.35 340.568 C 431.35 328.38 435.045 319.258 442.393 313.231 C 447.884 308.73 455.2 305.893 464.309 304.756 L 464.309 291.712 L 482.379 291.712 L 482.379 304.392 C 484.649 304.517 486.866 304.698 488.988 304.923 C 493.614 305.407 497.969 306.031 502.039 306.75 C 506.109 307.47 509.764 308.219 512.996 308.992 L 512.996 334.584 C 507.232 334.095 501.46 333.736 495.681 333.502 C 489.278 333.237 483.439 333.088 478.197 333.088 C 475.076 333.088 472.276 333.317 469.831 333.753 C 467.385 334.189 465.48 335.083 464.141 336.412 C 462.802 337.741 462.134 339.701 462.134 342.229 L 462.134 343.892 C 462.134 346.639 463.037 348.773 464.81 350.201 C 466.589 351.635 469.329 352.362 473.01 352.362 L 484.053 352.362 C 491.858 352.362 498.357 353.834 503.544 356.768 C 508.732 359.7 512.638 363.69 515.258 368.734 C 517.876 373.768 519.188 379.527 519.188 385.932 L 519.188 391.416 C 519.188 401.919 517.339 409.98 513.667 415.509 C 509.999 421.038 504.734 424.798 497.942 426.724 C 493.37 428.017 488.175 428.899 482.379 429.32 L 482.379 443.591 L 464.309 443.591 L 464.309 429.393 Z M 223.145 428.638 L 223.145 305.173 L 248.913 305.173 L 292.578 373.966 L 292.578 305.173 L 325.04 305.173 L 325.04 428.638 L 299.271 428.638 L 255.602 359.84 L 255.602 428.638 L 223.145 428.638 Z M 336.595 428.638 L 336.595 403.046 L 382.94 334.087 L 336.595 334.087 L 336.595 305.173 L 422.425 305.173 L 422.425 330.763 L 376.081 399.722 L 422.425 399.722 L 422.425 428.638 L 336.595 428.638 Z" style=""/>
  <path fill="#F3DC6B" fill-rule="nonzero" d="M 457.132 422.264 L 455.544 422.17 C 452.075 421.954 448.615 421.622 445.168 421.173 C 441.896 420.751 438.632 420.253 435.382 419.682 C 432.342 419.149 429.328 418.483 426.346 417.688 L 426.346 392.095 C 430.141 392.427 434.244 392.704 438.643 392.924 C 443.052 393.146 447.521 393.32 452.029 393.424 C 456.54 393.527 460.758 393.59 464.661 393.59 C 468.341 393.59 471.413 393.311 473.863 392.758 C 476.316 392.211 478.161 391.317 479.386 390.1 C 480.607 388.883 481.227 387.221 481.227 385.119 L 481.227 383.125 C 481.227 380.687 480.35 378.849 478.632 377.64 C 476.914 376.432 474.845 375.813 472.525 375.813 L 463.658 375.813 C 450.74 375.813 440.896 372.978 434.211 367.337 C 427.528 361.696 424.172 352.214 424.172 338.923 L 424.172 333.44 C 424.172 321.253 427.866 312.13 435.217 306.103 C 440.706 301.603 448.024 298.764 457.132 297.627 L 457.132 284.584 L 475.203 284.584 L 475.203 297.263 C 477.473 297.389 479.689 297.569 481.81 297.794 C 486.437 298.278 490.791 298.902 494.862 299.622 C 498.933 300.341 502.586 301.092 505.819 301.864 L 505.819 327.456 C 500.69 327.011 494.906 326.643 488.504 326.374 C 482.099 326.109 476.262 325.96 471.019 325.96 C 467.899 325.96 465.099 326.189 462.654 326.625 C 460.206 327.06 458.303 327.954 456.964 329.284 C 455.625 330.613 454.956 332.572 454.956 335.101 L 454.956 336.764 C 454.956 339.511 455.861 341.645 457.633 343.074 C 459.411 344.508 462.151 345.233 465.833 345.233 L 476.877 345.233 C 484.682 345.233 491.18 346.706 496.367 349.64 C 501.556 352.572 505.462 356.563 508.081 361.605 C 510.699 366.64 512.012 372.399 512.012 378.803 L 512.012 384.288 C 512.012 394.79 510.161 402.852 506.49 408.38 C 502.822 413.911 497.558 417.669 490.765 419.596 C 486.193 420.889 480.996 421.771 475.203 422.193 L 475.203 436.463 L 457.132 436.463 L 457.132 422.264 Z M 215.969 421.509 L 215.969 298.045 L 241.735 298.045 L 285.4 366.838 L 285.4 298.045 L 317.862 298.045 L 317.862 421.509 L 292.094 421.509 L 248.424 352.712 L 248.424 421.509 L 215.969 421.509 Z M 329.417 421.509 L 329.417 395.917 L 375.764 326.958 L 329.417 326.958 L 329.417 298.045 L 415.249 298.045 L 415.249 323.635 L 368.903 392.593 L 415.249 392.593 L 415.249 421.509 L 329.417 421.509 Z" style=""/>
  <path class="cls-3" d="M 366.292 63.44 C 533.268 63.44 669.113 199.25 669.113 366.17 C 669.113 533.09 533.268 668.89 366.292 668.89 C 199.316 668.89 63.461 533.09 63.461 366.17 C 63.461 199.25 199.306 63.44 366.292 63.44 M 366.292 0 C 163.995 0 0 163.94 0 366.17 C 0 568.4 163.995 732.33 366.292 732.33 C 568.589 732.33 732.574 568.4 732.574 366.17 C 732.574 163.94 568.589 0 366.292 0 Z" style=""/>
</svg>