<?xml version="1.0" encoding="utf-8"?>
<svg viewBox="0 0 732.33 807.54" width="732.33" height="807.54" xmlns="http://www.w3.org/2000/svg" xmlns:xlink="http://www.w3.org/1999/xlink">
  <defs>
    <linearGradient id="linear-gradient" x1="52.55" y1="724.97" x2="679.79" y2="724.97" gradientUnits="userSpaceOnUse">
      <stop offset="0" stop-color="#01f0ff"/>
      <stop offset="0.98" stop-color="#f0f"/>
    </linearGradient>
    <linearGradient id="linear-gradient-2" x1="136.57" y1="80.91" x2="595.76" y2="651.43" xlink:href="#linear-gradient"/>
    <style>.cls-1{fill:url(#linear-gradient);}.cls-2{fill:#2a5ada;}.cls-2,.cls-3{isolation:isolate;}.cls-3{fill:url(#linear-gradient-2);}</style>
  </defs>
  <path class="cls-1" d="M366.16,807.54c-116.48,0-313.61-17.39-313.61-82.57S249.68,642.4,366.16,642.4,679.79,659.8,679.79,725,482.65,807.54,366.16,807.54ZM87.19,725c8.22,17.13,109.13,48.1,279,48.1s270.77-31,279-48.1c-8.21-17.12-109.13-48.09-279-48.09S95.41,707.85,87.19,725Z"/>
  <circle class="st0" cx="1103.866" cy="368.762" r="250" style="fill: rgb(255, 4, 32);" transform="matrix(1.2675939798355103, 0, 0, 1.2515089511871338, -1036.7073974609375, -95.11580657958984)"/>
  <path class="st1" d="M 250.297 484.357 C 227.562 484.357 208.944 478.859 194.449 467.862 C 180.104 456.71 172.932 440.688 172.932 420.109 C 172.932 415.712 173.39 410.528 174.305 404.244 C 176.748 390.107 180.257 373.142 184.834 353.192 C 197.805 299.156 231.376 272.138 285.394 272.138 C 300.043 272.138 313.318 274.651 324.916 279.835 C 336.513 284.704 345.668 292.244 352.383 302.298 C 359.097 312.194 362.454 323.976 362.454 337.641 C 362.454 341.726 361.996 346.91 361.081 353.192 C 358.182 370.629 354.824 387.751 350.704 404.244 C 343.99 431.106 332.546 451.369 316.066 464.721 C 299.738 477.916 277.764 484.357 250.297 484.357 Z M 254.418 441.944 C 265.099 441.944 274.102 438.646 281.579 432.205 C 289.209 425.765 294.702 415.869 297.907 402.36 C 302.332 383.823 305.689 367.801 307.978 353.977 C 308.741 349.894 309.199 345.652 309.199 341.254 C 309.199 323.346 300.196 314.393 282.037 314.393 C 271.356 314.393 262.199 317.692 254.57 324.133 C 247.093 330.572 241.752 340.469 238.548 353.977 C 235.038 367.173 231.681 383.195 228.172 402.36 C 227.408 406.286 226.95 410.371 226.95 414.768 C 226.798 432.991 236.106 441.944 254.418 441.944 Z" style="fill: rgb(255, 255, 255);"/>
  <path class="st1" d="M 375.73 481.529 C 373.594 481.529 372.067 480.9 370.846 479.487 C 369.931 477.916 369.626 476.189 369.931 474.146 L 409.453 282.505 C 409.758 280.306 410.826 278.579 412.657 277.164 C 414.336 275.751 416.168 275.122 418.151 275.122 L 494.296 275.122 C 515.506 275.122 532.444 279.678 545.262 288.632 C 558.232 297.742 564.794 310.78 564.794 327.902 C 564.794 332.772 564.183 337.955 563.115 343.296 C 558.385 365.916 548.771 382.567 534.122 393.406 C 519.779 404.244 500.093 409.585 475.068 409.585 L 436.462 409.585 L 423.339 474.146 C 422.881 476.346 421.965 478.073 420.135 479.487 C 418.456 480.9 416.625 481.529 414.641 481.529 L 375.73 481.529 Z M 477.052 368.9 C 485.14 368.9 492.006 366.701 497.957 362.147 C 504.061 357.591 508.028 351.15 510.013 342.668 C 510.623 339.37 510.928 336.384 510.928 333.872 C 510.928 328.216 509.249 323.819 506.045 320.833 C 502.841 317.692 497.194 316.122 489.412 316.122 L 455.078 316.122 L 444.245 368.9 L 477.052 368.9 Z" style="fill: rgb(255, 255, 255);"/>
  <path class="cls-3" d="M366.17,63.44c166.92,0,302.72,135.81,302.72,302.73S533.09,668.89,366.17,668.89,63.44,533.09,63.44,366.17,199.24,63.44,366.17,63.44m0-63.44C163.94,0,0,163.94,0,366.17S163.94,732.33,366.17,732.33,732.33,568.4,732.33,366.17,568.4,0,366.17,0Z"/>
</svg>