<?xml version="1.0" encoding="utf-8"?>
<svg viewBox="0 0 732.33 807.54" width="732.33" height="807.54" xmlns="http://www.w3.org/2000/svg" xmlns:xlink="http://www.w3.org/1999/xlink">
  <defs>
    <linearGradient id="linear-gradient" x1="52.55" y1="724.97" x2="679.79" y2="724.97" gradientUnits="userSpaceOnUse">
      <stop offset="0" stop-color="#01f0ff"/>
      <stop offset="0.98" stop-color="#f0f"/>
    </linearGradient>
    <linearGradient id="linear-gradient-2" x1="136.57" y1="80.91" x2="595.76" y2="651.43" xlink:href="#linear-gradient"/>
    <mask id="mask" x="0" y="4.82" width="23.84" height="54.6" maskUnits="userSpaceOnUse">
      <g id="mask-2">
        <polygon id="path-1" points="0 4.82 23.84 4.82 23.84 59.42 0 59.42 0 4.82" style="fill:#fff;fill-rule:evenodd"/>
      </g>
    </mask>
    <style>.cls-1{fill:url(#linear-gradient);}.cls-2{fill:#2a5ada;}.cls-2,.cls-3{isolation:isolate;}.cls-3{fill:url(#linear-gradient-2);}</style>
  </defs>
  <path class="cls-1" d="M366.16,807.54c-116.48,0-313.61-17.39-313.61-82.57S249.68,642.4,366.16,642.4,679.79,659.8,679.79,725,482.65,807.54,366.16,807.54ZM87.19,725c8.22,17.13,109.13,48.1,279,48.1s270.77-31,279-48.1c-8.21-17.12-109.13-48.09-279-48.09S95.41,707.85,87.19,725Z"/>
  <circle cx="1250" cy="1250" r="348.994" style="fill: rgb(234, 230, 231);" transform="matrix(0.9690240621566772, 0, 0, 0.9716269969940186, -845.7168579101562, -846.1951904296875)"/>
  <circle cx="3194.601" cy="1234.913" r="1250" style="fill: rgb(46, 49, 72);" transform="matrix(0.2608470022678375, 0, 0, 0.2626489996910095, -474.73797607421875, 41.232978820800774)"/>
  <path class="cls-3" d="M366.17,63.44c166.92,0,302.72,135.81,302.72,302.73S533.09,668.89,366.17,668.89,63.44,533.09,63.44,366.17,199.24,63.44,366.17,63.44m0-63.44C163.94,0,0,163.94,0,366.17S163.94,732.33,366.17,732.33,732.33,568.4,732.33,366.17,568.4,0,366.17,0Z"/>
  <g id="Group-3" transform="matrix(6.527400970458984, 0, 0, 6.669600963592529, 135.51022338867188, 147.602783203125)" style="">
    <g id="Fill-1-Clipped">
      <g style="mask:url(#mask)">
        <path id="Fill-1" d="M20,8.84c1.37-1.56,2.63-2.88,3.83-4-20.26-.65-14.36,14-21,28.87-7.6,17.14.9,23.67,13.56,25.71a27.56,27.56,0,0,1-4.28-7C3.94,42.09,7.25,23.26,20,8.84" style="fill:#efe812"/>
      </g>
    </g>
  </g>
  <path id="Fill-4" d="M 584.272 328.35 C 568.652 370.095 546.06 408.752 517.497 442.6 C 494.591 471.032 467.163 495.323 436.361 514.432 C 400.584 537.595 358.997 549.667 316.647 549.181 C 291.916 549.407 267.209 547.646 242.757 543.911 C 256.335 560.485 273.169 573.957 292.17 583.462 C 411.752 642.554 419.258 532.839 545.759 477.149 C 616.778 445.868 617.039 384.774 584.206 328.35" style="fill: rgb(237, 231, 10);"/>
  <path id="Fill-6" d="M 436.361 214.3 C 453.671 217.394 470.348 223.437 485.707 232.174 C 525.93 255.284 559.826 288.359 584.272 328.35 C 605.812 266.322 595.76 217.635 548.697 208.83 C 496.87 199.159 456.399 196.025 417.496 168.28 C 369.585 134.264 327.549 145.335 291.125 179.951 L 299.024 180.284 C 349.546 183.353 397.849 193.623 436.099 214.166" style="fill: rgb(237, 231, 10);"/>
  <path id="Fill-8" d="M 266.061 206.562 C 182.836 302.738 161.231 428.326 214.82 497.223 C 189.683 436.583 193.965 367.393 226.373 310.475 C 271.479 233.641 362.013 200.294 436.361 214.3 C 397.849 193.491 349.546 183.485 299.285 180.418 L 291.387 180.018 C 283.293 187.621 275.069 196.158 266.061 206.562" style="fill: rgb(222, 194, 28);"/>
  <path id="Fill-10" d="M 485.707 232.04 C 470.341 223.35 453.664 217.354 436.361 214.3 C 487.013 241.511 520.629 287.665 520.629 360.63 C 520.029 423.224 488.267 481.19 436.361 514.432 C 467.177 495.344 494.611 471.052 517.497 442.6 C 546.06 408.752 568.652 370.095 584.272 328.35 C 559.839 288.305 525.95 255.184 485.707 232.04" style="fill: rgb(229, 203, 34);"/>
  <path id="Fill-12" d="M 436.361 214.3 C 362.013 200.294 271.479 233.641 226.373 310.142 C 193.829 367.14 189.54 436.497 214.82 497.223 C 221.772 514.138 231.191 529.879 242.757 543.911 C 267.209 547.646 291.916 549.407 316.647 549.181 C 358.997 549.667 400.584 537.595 436.361 514.432 C 488.279 481.204 520.042 423.224 520.629 360.63 C 520.629 287.665 487.013 241.511 436.361 214.3 M 428.006 479.75 C 370.76 517.319 294.565 500.565 257.51 442.266 C 220.565 384.041 238.841 308.874 294.259 268.857 C 356.269 223.837 435.772 241.578 464.755 306.34 C 493.018 369.435 485.251 442.334 428.006 479.75" style="fill: rgb(204, 167, 39);"/>
</svg>