<?xml version="1.0" encoding="utf-8"?>
<svg id="Layer_1" data-name="Layer 1" viewBox="0 0 732.33 807.54" xmlns="http://www.w3.org/2000/svg" xmlns:xlink="http://www.w3.org/1999/xlink">
  <defs>
    <style>.cls-1{fill:url(#linear-gradient);}.cls-2{fill:#2a5ada;}.cls-2,.cls-3{isolation:isolate;}.cls-3{fill:url(#linear-gradient-2);}</style>
    <linearGradient id="linear-gradient" x1="52.55" y1="724.97" x2="679.79" y2="724.97" gradientUnits="userSpaceOnUse">
      <stop offset="0" stop-color="#01f0ff"/>
      <stop offset="0.98" stop-color="#f0f"/>
    </linearGradient>
    <linearGradient id="linear-gradient-2" x1="136.57" y1="80.91" x2="595.76" y2="651.43" xlink:href="#linear-gradient"/>
  </defs>
  <path class="cls-1" d="M366.16,807.54c-116.48,0-313.61-17.39-313.61-82.57S249.68,642.4,366.16,642.4,679.79,659.8,679.79,725,482.65,807.54,366.16,807.54ZM87.19,725c8.22,17.13,109.13,48.1,279,48.1s270.77-31,279-48.1c-8.21-17.12-109.13-48.09-279-48.09S95.41,707.85,87.19,725Z"/>
  <circle class="cls-2" cx="370.631" cy="368.916" r="342.22" style="fill: rgb(13, 14, 18);"/>
  <path class="cls-3" d="M366.17,63.44c166.92,0,302.72,135.81,302.72,302.73S533.09,668.89,366.17,668.89,63.44,533.09,63.44,366.17,199.24,63.44,366.17,63.44m0-63.44C163.94,0,0,163.94,0,366.17S163.94,732.33,366.17,732.33,732.33,568.4,732.33,366.17,568.4,0,366.17,0Z"/>
  <linearGradient id="SVGID_1_" gradientUnits="userSpaceOnUse" x1="360.8791" y1="351.4553" x2="141.213" y2="-69.2936" gradientTransform="matrix(1, 0, 0, -1, 163.860291, 522.423096)">
    <stop offset="0" style="stop-color:#00FFA3"/>
    <stop offset="1" style="stop-color:#DC1FFF"/>
  </linearGradient>
  <path class="st0" d="M 228.461 446.323 C 230.861 443.923 234.161 442.523 237.661 442.523 L 555.061 442.523 C 560.861 442.523 563.761 449.523 559.661 453.623 L 496.961 516.323 C 494.561 518.723 491.261 520.123 487.761 520.123 L 170.361 520.123 C 164.561 520.123 161.661 513.123 165.761 509.023 L 228.461 446.323 Z" style="fill: url('#SVGID_1_');"/>
  <linearGradient id="SVGID_2_" gradientUnits="userSpaceOnUse" x1="264.8291" y1="401.6014" x2="45.163" y2="-19.1475" gradientTransform="matrix(1, 0, 0, -1, 163.860291, 522.423096)">
    <stop offset="0" style="stop-color:#00FFA3"/>
    <stop offset="1" style="stop-color:#DC1FFF"/>
  </linearGradient>
  <path class="st1" d="M 228.461 212.223 C 230.961 209.823 234.261 208.423 237.661 208.423 L 555.061 208.423 C 560.861 208.423 563.761 215.423 559.661 219.523 L 496.961 282.223 C 494.561 284.623 491.261 286.023 487.761 286.023 L 170.361 286.023 C 164.561 286.023 161.661 279.023 165.761 274.923 L 228.461 212.223 Z" style="fill: url('#SVGID_2_');"/>
  <linearGradient id="SVGID_3_" gradientUnits="userSpaceOnUse" x1="312.5484" y1="376.688" x2="92.8822" y2="-44.061" gradientTransform="matrix(1, 0, 0, -1, 163.860291, 523.423096)">
    <stop offset="0" style="stop-color:#00FFA3"/>
    <stop offset="1" style="stop-color:#DC1FFF"/>
  </linearGradient>
  <path class="st2" d="M 496.961 329.523 C 494.561 327.123 491.261 325.723 487.761 325.723 L 170.361 325.723 C 164.561 325.723 161.661 332.723 165.761 336.823 L 228.461 399.523 C 230.861 401.923 234.161 403.323 237.661 403.323 L 555.061 403.323 C 560.861 403.323 563.761 396.323 559.661 392.223 L 496.961 329.523 Z" style="fill: url('#SVGID_3_');"/>
</svg>