<svg id="Layer_1" data-name="Layer 1" xmlns="http://www.w3.org/2000/svg" xmlns:xlink="http://www.w3.org/1999/xlink" viewBox="0 0 732.33 807.54"><defs><style>.cls-1{fill:url(#linear-gradient);}.cls-2{fill:#00f0ff;}.cls-3{fill:#fff;}.cls-4{isolation:isolate;fill:url(#linear-gradient-2);}</style><linearGradient id="linear-gradient" x1="52.55" y1="724.97" x2="679.79" y2="724.97" gradientUnits="userSpaceOnUse"><stop offset="0" stop-color="#01f0ff"/><stop offset="0.98" stop-color="#f0f"/></linearGradient><linearGradient id="linear-gradient-2" x1="136.57" y1="80.91" x2="595.76" y2="651.43" xlink:href="#linear-gradient"/></defs><path class="cls-1" d="M366.16,807.54c-116.48,0-313.61-17.39-313.61-82.57S249.68,642.4,366.16,642.4,679.79,659.8,679.79,725,482.65,807.54,366.16,807.54ZM87.19,725c8.22,17.13,109.13,48.1,279,48.1s270.77-31,279-48.1c-8.21-17.12-109.13-48.09-279-48.09S95.41,707.85,87.19,725Z"/><circle id="타원_66" data-name="타원 66" class="cls-2" cx="366.17" cy="366.17" r="313.62"/><g id="패스_2046" data-name="패스 2046"><path d="M366.17,150.54c118.87,0,215.62,96.75,215.62,215.63S485,581.79,366.17,581.79,150.54,485,150.54,366.17,247.29,150.54,366.17,150.54Z"/><path class="cls-3" d="M366.17,562.16c108.06,0,196-87.93,196-196s-87.93-196-196-196-196,87.93-196,196,87.93,196,196,196m0,39.27c-129.94,0-235.26-105.32-235.26-235.26S236.23,130.91,366.17,130.91,601.43,236.23,601.43,366.17,496.11,601.43,366.17,601.43Z"/></g><g id="그룹_638" data-name="그룹 638"><g id="그룹_636" data-name="그룹 636"><path id="패스_2045" data-name="패스 2045" class="cls-3" d="M302.78,284.39a71.82,71.82,0,0,1,36.85-23.54,10.22,10.22,0,0,0,9-11.4.51.51,0,0,0-.08-.33c-.25-6.57,0-13,0-19.63a8.13,8.13,0,0,1,7.07-9.07,5.83,5.83,0,0,1,1.67,0h21a8.4,8.4,0,0,1,9.15,7.65,7.41,7.41,0,0,1-.08,1.92V244.3c0,10.56.5,10.89,10.57,12.56a134.22,134.22,0,0,1,37.51,10.56c9.32,4.58,10.24,6.82,7.82,16.64-2,7.32-3.91,14.56-6.24,21.8-1.66,5.32-3.16,7.81-6,7.81a16.67,16.67,0,0,1-6.57-2.24A122.4,122.4,0,0,0,382.81,299a72.2,72.2,0,0,0-7.41-.5,50,50,0,0,0-20,3.91,21.19,21.19,0,0,0-12.73,27.12,21.46,21.46,0,0,0,7.65,10.07,64.53,64.53,0,0,0,15.72,9.06,362.19,362.19,0,0,1,42.6,19.14,60.28,60.28,0,0,1,34.1,57.65,63.43,63.43,0,0,1-46.42,58.81c-11.39,3.91-11.48,3.91-11.48,15.72v12.15c-.24,8.9-1.74,10.48-10.64,10.73h-10.4c-17,0-17-.75-17.06-19,0-13.48,0-13.48-13.47-15.64a117.34,117.34,0,0,1-29.45-8.82A8.53,8.53,0,0,1,298,468.66a3.25,3.25,0,0,1,.33-.84c2.33-8.15,4.66-16.47,7.15-24.54,1.67-4.9,3.16-7.15,6.16-7.15a14.48,14.48,0,0,1,6.15,1.91,92.2,92.2,0,0,0,41.27,9.49h5.57A36.14,36.14,0,0,0,377.15,445a17.73,17.73,0,0,0,11.15-22.38,17.5,17.5,0,0,0-6.83-9,82.66,82.66,0,0,0-20.29-11.39,369.94,369.94,0,0,1-37-16.72,66.61,66.61,0,0,1-28.62-89.76A52.33,52.33,0,0,1,302.78,284.39Z"/></g></g><path class="cls-4" d="M366.17,63.44c166.92,0,302.72,135.81,302.72,302.73S533.09,668.89,366.17,668.89,63.44,533.09,63.44,366.17,199.24,63.44,366.17,63.44m0-63.44C163.94,0,0,163.94,0,366.17S163.94,732.33,366.17,732.33,732.33,568.4,732.33,366.17,568.4,0,366.17,0Z"/></svg>