<svg xmlns="http://www.w3.org/2000/svg" width="68.537" height="68.537" viewBox="0 0 68.537 68.537"><defs><style>.a,.d{fill:none;}.a{stroke:#fff;stroke-width:3px;}.b{fill:#fff;}.c{stroke:none;}</style></defs><g transform="translate(-630.123 -487)"><g class="a" transform="translate(630.123 487)"><ellipse class="c" cx="34.269" cy="34.269" rx="34.269" ry="34.269"/><ellipse class="d" cx="34.269" cy="34.269" rx="32.769" ry="32.769"/></g><path class="b" d="M171.768,225.984v-.245q0-4.5,0-9.007c0-.358,0-.358-.352-.358h-3.544c-.3,0-.325-.024-.325-.325q0-1.487,0-2.974c0-.05.006-.1.011-.174h3.927c.234,0,.281-.048.282-.289q0-1.6,0-3.2c0-.186-.036-.221-.221-.231-.069,0-.138,0-.207,0h-3.458c-.31,0-.334-.023-.335-.334q0-1.435,0-2.87c0-.023,0-.046,0-.069.007-.155.038-.188.2-.2.069,0,.138,0,.207,0h3.406c.4,0,.41-.013.41-.4q0-3.648,0-7.3,0-.856,0-1.712c0-.052,0-.1,0-.155.011-.12.05-.167.168-.182a2.286,2.286,0,0,1,.293-.014h3.752c2.824,0,5.648-.012,8.472,0a16.785,16.785,0,0,1,6.187,1.21,15.462,15.462,0,0,1,3.933,2.28,14.413,14.413,0,0,1,2.895,3.163,12.632,12.632,0,0,1,1.431,2.772.44.44,0,0,0,.458.319q1.565,0,3.129,0c.294,0,.331.035.331.327q0,1.4,0,2.8c0,.264-.075.343-.338.348-.375.006-.749,0-1.124,0h-1.193c-.046,0-.092,0-.138,0-.146.01-.187.046-.189.189s.007.265.017.4a15.726,15.726,0,0,1,0,2.521,4.147,4.147,0,0,0-.014.431c0,.117.04.152.156.166a1.86,1.86,0,0,0,.224.009H202.7c.149,0,.211.059.176.2a4.475,4.475,0,0,0-.045.98c-.019.628,0,1.256-.006,1.884,0,.33-.065.4-.393.4q-1.591,0-3.181,0a.42.42,0,0,0-.428.287,13.622,13.622,0,0,1-4.3,5.844c-.306.245-.606.5-.932.715-.408.27-.835.511-1.261.751a16.2,16.2,0,0,1-4.24,1.592,16.628,16.628,0,0,1-3.043.419c-.558.028-1.117.038-1.676.038q-5.662,0-11.325,0Zm23.382-20.261-.038-.16a1.569,1.569,0,0,0-.053-.214,2.238,2.238,0,0,0-.129-.264,10.819,10.819,0,0,0-2.617-3.183,11.785,11.785,0,0,0-7.579-2.748c-3.06-.014-6.12,0-9.18,0-.353,0-.395.041-.395.4q0,2.939,0,5.878a1.377,1.377,0,0,0,.006.173c.016.129.057.171.188.183.092.008.184.006.276.006h19.155a.7.7,0,0,0,.138,0C195,205.77,195.071,205.745,195.149,205.722Zm-10.308,10.671h-9.2c-.1,0-.2,0-.294.006-.113.009-.152.044-.172.157a1.5,1.5,0,0,0-.02.258q0,2.869,0,5.739a1.5,1.5,0,0,0,.006.173c.016.14.054.181.194.2a2.419,2.419,0,0,0,.276.01q4.417,0,8.833,0c.264,0,.527-.043.79-.068.069-.007.136-.027.2-.032a11.927,11.927,0,0,0,2.3-.39,10.283,10.283,0,0,0,2.444-.94.686.686,0,0,1,.111-.045,1.735,1.735,0,0,0,.24-.085,10.8,10.8,0,0,0,2.14-1.511,10.927,10.927,0,0,0,2.383-3.089.7.7,0,0,0,.071-.228c.014-.113-.015-.144-.127-.16a1.375,1.375,0,0,0-.224-.017c-.259,0-.518.021-.777.021Q189.431,216.395,184.842,216.393Zm.834-3.512h10.06c.069,0,.138,0,.207,0,.229,0,.28-.051.3-.284s.029-.448.042-.673a18.819,18.819,0,0,0-.032-2.349c-.025-.368-.064-.409-.439-.409h-20.24c-.361,0-.413.05-.413.405q0,1.469,0,2.938a1.4,1.4,0,0,0,.012.207c.018.117.047.146.168.157.086.008.173.007.259.007Z" transform="translate(479.577 310.309)"/></g></svg>