<?xml version="1.0" encoding="utf-8"?>
<svg viewBox="164.6947 136.0735 127.11 127.111" width="127.11" height="127.111" xmlns="http://www.w3.org/2000/svg">
  <defs>
    <clipPath id="clippath0" transform="">
      <path d="M 0 500 L 500 500 L 500 0 L 0 0 Z" style="fill: none; clip-rule: nonzero;"/>
    </clipPath>
  </defs>
  <g style="clip-path: url('#clippath0');" transform="matrix(1, 0, 0, -1, 44.74751663208008, 449.6287841796875)">
    <g transform="translate(174.4258 248.9434)">
      <path d="M 0 0 C -0.396 -2.242 -5.882 -17.604 -8.097 -24.054 C -8.76 -25.984 -9.675 -27.715 -11.378 -28.935 C -13.081 -30.153 -14.609 -30.409 -17.192 -29.279 C -19.053 -28.466 -19.502 -26.054 -18.824 -24.062 C -15.981 -15.716 -13.169 -7.356 -10.133 0.919 C -9.056 3.854 -6.629 5.324 -3.372 4.806 C -1.024 4.432 0.396 2.243 0 0" style="fill: rgb(20, 8, 90); fill-opacity: 1;"/>
    </g>
  </g>
  <g style="clip-path: url('#clippath0');" transform="matrix(1, 0, 0, -1, 44.74751663208008, 449.6287841796875)">
    <g transform="translate(197.6782 237.4043)">
      <path d="M 0 0 C 1.239 2.455 4.592 5.481 8.296 3.853 C 12 2.223 13.554 -2.058 11.036 -7.065 C 8.519 -12.073 4.18 -19.722 -1.172 -23.944 C -6.524 -28.166 -15.662 -31.352 -24.704 -31.814 C -33.746 -32.277 -41.303 -29.714 -44.925 -28.996 C -45.687 -28.846 -46.111 -28.833 -46.481 -29.037 C -46.852 -29.24 -47.151 -29.745 -47.288 -30.079 C -48.151 -32.2 -50.305 -36.537 -50.37 -36.748 C -50.436 -36.958 -50.593 -37.319 -50.481 -37.814 C -50.37 -38.31 -50.091 -38.61 -49.905 -38.765 C -40.549 -46.487 -27.218 -50.96 -14.176 -50.96 C 20.925 -50.96 49.379 -22.505 49.379 12.596 C 49.379 47.696 20.925 76.151 -14.176 76.151 C -49.277 76.151 -77.731 47.696 -77.731 12.596 C -77.731 -2.44 -72.499 -16.248 -63.77 -27.131 L -46.408 23.482 C -46.408 23.482 -44.63 30.519 -38.408 30.963 C -33.427 31.319 -31.773 28.751 -30.759 27.61 C -30.506 27.326 -30.262 27.024 -30 27 C -29.739 26.977 -29.499 27.104 -29.101 27.25 C -26.592 28.16 -18.584 31.3 -11.371 25.297 C -4.511 19.589 -6.576 12.613 -7.501 8.909 C -11.409 -5.979 -15.674 -14.56 -16.222 -16.592 C -16.33 -16.989 -16.29 -17.18 -15.541 -17.025 C -13.573 -16.619 -9.622 -14.195 -7 -11.519 C -3.898 -8.35 -0.806 -1.597 0 0" style="fill: rgb(20, 8, 90); fill-opacity: 1;"/>
    </g>
  </g>
</svg>