<svg xmlns="http://www.w3.org/2000/svg" xmlns:xlink="http://www.w3.org/1999/xlink" width="167.167" height="110.644" viewBox="0 0 167.167 110.644">
  <defs>
    <linearGradient id="linear-gradient" x1="-0.168" y1="0.5" x2="1" y2="0.5" gradientUnits="objectBoundingBox">
      <stop offset="0" stop-color="#c3e299"/>
      <stop offset="0.03" stop-color="#fd22ff"/>
      <stop offset="0.55" stop-color="#8e6aff"/>
      <stop offset="1" stop-color="#1fd4ff"/>
    </linearGradient>
    <linearGradient id="linear-gradient-2" x1="1.077" y1="1.149" x2="-0.06" y2="0.269" xlink:href="#linear-gradient"/>
  </defs>
  <g id="dex_logo_white" transform="translate(0.047 -0.006)">
    <circle id="타원_233" data-name="타원 233" cx="7.15" cy="7.15" r="7.15" transform="translate(3.25 25.83)" fill="#1fd4ff"/>
    <path id="패스_28692" data-name="패스 28692" d="M35.43,83.52a1.92,1.92,0,0,1,.67-.87,1.85,1.85,0,0,1,1.29,0c3,.6,9.28,2.72,16.78,2.34s15.09-3,19.53-6.53,8-9.85,10.13-14,.8-7.71-2.27-9.06-5.86,1.16-6.89,3.2c-.67,1.33-3.23,6.93-5.81,9.56-2.17,2.22-5.45,4.23-7.08,4.57-.63.13-.66,0-.57-.36.46-1.69,4-8.81,7.24-21.16.77-3.08,2.48-8.86-3.21-13.6-6-5-12.63-2.38-14.72-1.62a1.91,1.91,0,0,1-.74.21c-.22,0-.42-.27-.63-.51a6.56,6.56,0,0,0-6.35-2.78c-5.16.37-6.64,6.21-6.64,6.21L22.05,81.9A35.2,35.2,0,0,0,32.49,91C32.52,90.89,34.72,85.28,35.43,83.52ZM39.76,69c2.35-7,4.69-13.91,7.24-20.78A4.76,4.76,0,0,1,52.58,45a3.4,3.4,0,0,1,2.82,3.88v.11c-.33,1.86-4.88,14.61-6.72,20a7.8,7.8,0,0,1-2.72,4c-1.42,1-2.68,1.23-4.83.29-1.54-.67-1.92-2.67-1.35-4.33Z" fill="#fff"/>
    <path id="합치기_6" data-name="합치기 6" d="M161.22,94.59,155,85.89l-6.15,8.7H143l9-12.38-8.54-11.9h5.82l5.84,8.13,5.79-8.13h5.62L158,82.05l9.12,12.54Zm-37.32,0V70.31h17.92v4.38H129v5.42h11.39v4.32H129v5.78h13.3v4.38Zm-27.82,0V70.31h10.66a15.17,15.17,0,0,1,6.86,1.5,11.21,11.21,0,0,1,4.69,4.28,12.95,12.95,0,0,1,0,12.72,11.14,11.14,0,0,1-4.69,4.28,15.06,15.06,0,0,1-6.86,1.5Zm5.09-4.41h5.37a9.7,9.7,0,0,0,4.4-1,6.74,6.74,0,0,0,2.88-2.69,8.69,8.69,0,0,0,0-8.17,6.74,6.74,0,0,0-2.88-2.69,9.7,9.7,0,0,0-4.4-1h-5.37Z" fill="#fff"/>
    <path id="패스_28713" data-name="패스 28713" d="M24.65,21.47a45.3,45.3,0,0,1,75.43,33.87c0,1.49-.07,3-.21,4.42l9.43,4.81a55.31,55.31,0,0,0-94-48l.29.17Z" fill="url(#linear-gradient)"/>
    <path id="패스_28714" data-name="패스 28714" d="M54.16,100.6A45.38,45.38,0,0,1,10,54.09a42.76,42.76,0,0,1,.33-4.41L1,44.63A55.3,55.3,0,0,0,91.11,97.44l-9.58-5.18a45.06,45.06,0,0,1-27.37,8.34Z" fill="url(#linear-gradient-2)"/>
  </g>
</svg>
