<?xml version="1.0" encoding="utf-8"?>
<svg viewBox="552.2256 143.6027 150.5804 110.6332" width="150.5804" height="110.6332" xmlns="http://www.w3.org/2000/svg" xmlns:xlink="http://www.w3.org/1999/xlink">
  <defs>
    <linearGradient id="gradient-1" x1="-0.168" y1="0.5" x2="1" y2="0.5" gradientUnits="objectBoundingBox">
      <stop offset="0" stop-color="#c3e299"/>
      <stop offset="0.03" style="stop-color: rgb(34, 71, 255);"/>
      <stop offset="0.55" stop-color="#8e6aff"/>
      <stop offset="1" style="stop-color: rgb(255, 98, 31);"/>
    </linearGradient>
    <linearGradient id="linear-gradient-1" x1="1.077" y1="1.149" x2="-0.06" y2="0.269" xlink:href="#gradient-1"/>
  </defs>
  <circle id="circle-1" data-name="타원 233" cx="7.15" cy="7.15" r="7.15" transform="matrix(1, 0, 0, 1, 555.5227050781249, 169.42529106140137)" style="fill: rgb(31, 53, 255);"/>
  <path id="path-1" data-name="패스 28692" d="M35.43,83.52a1.92,1.92,0,0,1,.67-.87,1.85,1.85,0,0,1,1.29,0c3,.6,9.28,2.72,16.78,2.34s15.09-3,19.53-6.53,8-9.85,10.13-14,.8-7.71-2.27-9.06-5.86,1.16-6.89,3.2c-.67,1.33-3.23,6.93-5.81,9.56-2.17,2.22-5.45,4.23-7.08,4.57-.63.13-.66,0-.57-.36.46-1.69,4-8.81,7.24-21.16.77-3.08,2.48-8.86-3.21-13.6-6-5-12.63-2.38-14.72-1.62a1.91,1.91,0,0,1-.74.21c-.22,0-.42-.27-.63-.51a6.56,6.56,0,0,0-6.35-2.78c-5.16.37-6.64,6.21-6.64,6.21L22.05,81.9A35.2,35.2,0,0,0,32.49,91C32.52,90.89,34.72,85.28,35.43,83.52ZM39.76,69c2.35-7,4.69-13.91,7.24-20.78A4.76,4.76,0,0,1,52.58,45a3.4,3.4,0,0,1,2.82,3.88v.11c-.33,1.86-4.88,14.61-6.72,20a7.8,7.8,0,0,1-2.72,4c-1.42,1-2.68,1.23-4.83.29-1.54-.67-1.92-2.67-1.35-4.33Z" fill="#fff" transform="matrix(1, 0, 0, 1, 552.2727050781249, 143.5952911376953)"/>
  <path id="path-3" data-name="패스 28713" d="M24.65,21.47a45.3,45.3,0,0,1,75.43,33.87c0,1.49-.07,3-.21,4.42l9.43,4.81a55.31,55.31,0,0,0-94-48l.29.17Z" fill="url(#gradient-1)" transform="matrix(1, 0, 0, 1, 552.2727050781249, 143.5952911376953)"/>
  <path id="path-4" data-name="패스 28714" d="M54.16,100.6A45.38,45.38,0,0,1,10,54.09a42.76,42.76,0,0,1,.33-4.41L1,44.63A55.3,55.3,0,0,0,91.11,97.44l-9.58-5.18a45.06,45.06,0,0,1-27.37,8.34Z" fill="url(#linear-gradient-1)" transform="matrix(1, 0, 0, 1, 552.2727050781249, 143.5952911376953)"/>
  <text style="fill: rgb(254, 249, 249); font-family: Arial, sans-serif; font-size: 24px; font-style: italic; font-weight: 700; white-space: pre;" x="84.334" y="89.267" transform="matrix(1, 0, 0, 1, 552.2727050781249, 143.5952911376953)">PERP</text>
</svg>