<svg xmlns="http://www.w3.org/2000/svg" width="102.201" height="50" viewBox="0 0 102.201 50"><defs><style>.a{fill:#fff;}</style></defs><g transform="translate(-38 -28)"><g transform="translate(38 28)"><g transform="translate(13.906 23.469)"><path class="a" d="M42.894,61.629c-.157.865-2.319,6.918-3.184,9.473a3.837,3.837,0,0,1-1.3,1.926,1.974,1.974,0,0,1-2.28.118A1.573,1.573,0,0,1,35.5,71.1c1.1-3.263,2.241-6.564,3.42-9.827A2.288,2.288,0,0,1,41.6,59.742,1.609,1.609,0,0,1,42.894,61.629Z" transform="translate(-35.378 -59.705)"/></g><path class="a" d="M30.542,29.953c.472-.983,1.808-2.162,3.263-1.533s2.083,2.319,1.061,4.285c-.983,1.965-2.712,4.992-4.8,6.643a17.33,17.33,0,0,1-9.237,3.105,27.13,27.13,0,0,1-7.94-1.1.841.841,0,0,0-.629,0,.743.743,0,0,0-.314.393c-.354.825-1.179,2.555-1.219,2.634a.7.7,0,0,0-.039.432.748.748,0,0,0,.236.393A22.685,22.685,0,0,0,24.961,50,25,25,0,1,0,0,25,24.736,24.736,0,0,0,5.5,40.605l6.84-19.89s.708-2.752,3.145-2.948A2.983,2.983,0,0,1,18.475,19.1c.118.118.2.236.314.236a1.459,1.459,0,0,0,.354-.079c.983-.354,4.127-1.612,6.958.786,2.712,2.241,1.887,4.992,1.533,6.447a86.7,86.7,0,0,1-3.42,10.024c-.039.157-.039.236.275.157a8.349,8.349,0,0,0,3.341-2.162A24.125,24.125,0,0,0,30.542,29.953Z"/></g><g transform="translate(93.857 46.868)"><g transform="translate(0)"><path class="a" d="M142.1,48h4.52c2.83,0,5.189,1.022,5.189,4.206,0,3.066-2.359,4.4-5.071,4.4h-1.533v4.285H142.1Zm4.442,6.171c1.494,0,2.241-.708,2.241-1.965,0-1.3-.825-1.73-2.319-1.73h-1.258v3.734h1.336Z" transform="translate(-142.1 -48)"/><path class="a" d="M172.4,48h8.176v2.555h-5.071v2.4h4.324v2.594h-4.324V58.3h5.267v2.594H172.4Z" transform="translate(-160.49 -48)"/><path class="a" d="M207.058,60.854l-2.358-4.52h-1.494v4.52H200.1V48h4.717c2.752,0,5.031.943,5.031,4.049a3.82,3.82,0,0,1-2.2,3.734l2.87,5.11h-3.459ZM203.205,53.9h1.376c1.454,0,2.241-.629,2.241-1.847s-.786-1.612-2.241-1.612h-1.376Z" transform="translate(-177.301 -48)"/><path class="a" d="M231.3,48h3.105V60.893H231.3Z" transform="translate(-196.237 -48)"/><g transform="translate(0 16.785)"><path class="a" d="M142.1,91.6h1.651c1.061,0,1.926.354,1.926,1.533,0,1.14-.865,1.612-1.887,1.612h-.55v1.572H142.1Zm1.651,2.28c.55,0,.826-.275.826-.708,0-.472-.314-.629-.865-.629h-.472v1.376h.511Z" transform="translate(-142.1 -91.246)"/><path class="a" d="M151.514,99.392l.2-.865c.079,0,.157.039.236.039a.568.568,0,0,0,.59-.432l.039-.2L151.2,94.4h1.14l.472,1.494a7.762,7.762,0,0,1,.275,1.022h.039c.079-.354.157-.668.236-1.022l.432-1.494h1.061L153.6,98.056c-.354.943-.747,1.376-1.612,1.376A.968.968,0,0,1,151.514,99.392Z" transform="translate(-147.623 -92.946)"/><path class="a" d="M161.2,94.379h.943l.079.472h.039a1.758,1.758,0,0,1,1.179-.55c.786,0,1.14.55,1.14,1.454v2.241h-1.14V95.872c0-.511-.118-.629-.432-.629a.963.963,0,0,0-.629.314v2.437h-1.14V94.379Z" transform="translate(-153.692 -92.885)"/><path class="a" d="M170.672,95.323V93.908H170.2v-.825l.55-.039.118-.943h.943v.943h.865v.9h-.865v1.376c0,.393.2.55.472.55a.74.74,0,0,0,.314-.079l.2.825a3.732,3.732,0,0,1-.825.118C171.065,96.738,170.672,96.188,170.672,95.323Z" transform="translate(-159.154 -91.55)"/><path class="a" d="M177.439,90.7h1.14v1.219l-.039.629a1.675,1.675,0,0,1,1.1-.472c.786,0,1.14.55,1.14,1.454v2.241H179.6V93.648c0-.511-.118-.629-.432-.629a.963.963,0,0,0-.629.314v2.437H177.4V90.7Z" transform="translate(-163.524 -90.7)"/><path class="a" d="M186.6,97.563l.511-.708a1.637,1.637,0,0,0,.9.393c.314,0,.432-.118.432-.275,0-.236-.354-.314-.708-.472a1.215,1.215,0,0,1-.943-1.061c0-.708.55-1.14,1.415-1.14a2.053,2.053,0,0,1,1.3.472L189,95.44a1.237,1.237,0,0,0-.747-.314c-.236,0-.393.079-.393.275,0,.236.314.314.708.432a1.142,1.142,0,0,1,.943,1.1c0,.668-.511,1.179-1.494,1.179A2.509,2.509,0,0,1,186.6,97.563Z" transform="translate(-169.108 -92.885)"/><path class="a" d="M197.9,91.6h1.651c1.061,0,1.926.354,1.926,1.533,0,1.14-.865,1.612-1.887,1.612h-.55v1.572H197.9Zm1.651,2.28c.55,0,.825-.275.825-.708,0-.472-.314-.629-.865-.629h-.472v1.376h.511Z" transform="translate(-175.966 -91.246)"/><path class="a" d="M208.1,94.379h.943l.079.629h.039a1.256,1.256,0,0,1,1.022-.708.917.917,0,0,1,.432.079l-.2.983a1.212,1.212,0,0,0-.393-.039c-.275,0-.59.157-.786.668v2.083H208.1Z" transform="translate(-182.157 -92.885)"/><path class="a" d="M214.1,96.126a1.775,1.775,0,1,1,3.538,0,1.767,1.767,0,0,1-1.769,1.887A1.746,1.746,0,0,1,214.1,96.126Zm2.358,0c0-.59-.2-.983-.629-.983s-.629.393-.629.983.2.983.629.983C216.3,97.109,216.458,96.716,216.458,96.126Z" transform="translate(-185.798 -92.824)"/><path class="a" d="M223.272,95.323V93.908H222.8v-.825l.55-.039.118-.943h.943v.943h.865v.9h-.865v1.376c0,.393.2.55.472.55a.741.741,0,0,0,.314-.079l.2.825a3.733,3.733,0,0,1-.825.118C223.625,96.738,223.272,96.188,223.272,95.323Z" transform="translate(-191.078 -91.55)"/><path class="a" d="M229.1,96.126a1.775,1.775,0,1,1,3.538,0,1.773,1.773,0,1,1-3.538,0Zm2.4,0c0-.59-.2-.983-.629-.983s-.629.393-.629.983.2.983.629.983S231.5,96.716,231.5,96.126Z" transform="translate(-194.902 -92.824)"/><path class="a" d="M238.6,96.126a1.857,1.857,0,0,1,1.926-1.926,1.6,1.6,0,0,1,1.061.393l-.511.747a.623.623,0,0,0-.472-.2c-.511,0-.825.393-.825.983s.314.983.786.983a1.234,1.234,0,0,0,.629-.236l.432.747a1.83,1.83,0,0,1-1.179.432A1.8,1.8,0,0,1,238.6,96.126Z" transform="translate(-200.668 -92.824)"/><path class="a" d="M246,96.126a1.775,1.775,0,1,1,3.538,0,1.773,1.773,0,1,1-3.538,0Zm2.4,0c0-.59-.2-.983-.629-.983s-.629.393-.629.983.2.983.629.983S248.4,96.716,248.4,96.126Z" transform="translate(-205.159 -92.824)"/><path class="a" d="M256,94.631V90.7h1.14v3.97c0,.236.118.314.2.314h.118l.118.825a1.823,1.823,0,0,1-.55.079C256.275,95.889,256,95.378,256,94.631Z" transform="translate(-211.228 -90.7)"/></g></g></g></g></svg>