<svg xmlns="http://www.w3.org/2000/svg" width="21.802" height="24.872" viewBox="0 0 21.802 24.872"><defs><style>.a{fill:#fff;fill-rule:evenodd;}</style></defs><path class="a" d="M716.542,294.513a.874.874,0,0,0-.867.865,9.149,9.149,0,1,1-10.075-9.09v2.046a.777.777,0,0,0,.474.709.614.614,0,0,0,.472.117.565.565,0,0,0,.393-.117l5.117-2.952a.785.785,0,0,0,.471-.748.77.77,0,0,0-.471-.787l-5.117-2.951a1.007,1.007,0,0,0-.393-.158h-.079a.818.818,0,0,0-.393.158.849.849,0,0,0-.474.787v2.085a10.938,10.938,0,1,0,11.806,10.9.873.873,0,0,0-.865-.865Z" transform="translate(-695.604 -281.447)"/></svg>