<svg xmlns="http://www.w3.org/2000/svg" width="48.048" height="44.992" viewBox="0 0 48.048 44.992"><defs><style>.a{fill:#fff;}</style></defs><path class="a" d="M339.477,294.473l1.3,1.1,1.451-.893-.648,1.575,1.3,1.1-1.7-.13-.648,1.575-.4-1.656-1.7-.13,1.45-.893Z" transform="translate(-303.451 -292.035)"/><path class="a" d="M346.693,308.47l2,1.323,1.878-1.5-.639,2.315,2,1.323-2.4.108-.639,2.315-.844-2.249-2.4.108,1.878-1.5Z" transform="translate(-303.893 -292.882)"/><path class="a" d="M328.522,303.777l-.431,1.872,1.648.988-1.914.169-.431,1.872-.752-1.768-1.914.169,1.449-1.261-.752-1.768,1.648.988Z" transform="translate(-302.612 -292.605)"/><path class="a" d="M339.052,325.4a21.819,21.819,0,0,1-20.432-33.528,22.815,22.815,0,1,0,25.8,32.323A21.822,21.822,0,0,1,339.052,325.4Z" transform="translate(-301.169 -291.876)"/></svg>