<svg xmlns="http://www.w3.org/2000/svg" width="55.658" height="55.658" viewBox="0 0 55.658 55.658"><defs><style>.a{fill:#2184f8;}</style></defs><ellipse class="a" cx="17.137" cy="17.137" rx="17.137" ry="17.137" transform="translate(7.272 40.096) rotate(-76.627)"/><g transform="translate(0 0)"><g transform="translate(13.915 3.728)"><path class="a" d="M332.563,340.847l-8,4.617V336.23Z" transform="translate(-324.566 -297.263)"/><path class="a" d="M349.072,313.027v-9.234l-8,4.617Z" transform="translate(-321.243 -303.792)"/></g><g transform="translate(3.728 13.914)"><path class="a" d="M325.321,336.777h-9.234l4.617-8Z" transform="translate(-316.086 -308.948)"/><path class="a" d="M353.141,320.269l4.617-8h-9.234Z" transform="translate(-309.557 -312.271)"/></g><g transform="translate(0 23.212)"><path class="a" d="M320.98,329.245l-8-4.617,8-4.617Z" transform="translate(-312.983 -320.011)"/><path class="a" d="M352.657,329.245l8-4.617-8-4.617Z" transform="translate(-304.996 -320.011)"/></g><g transform="translate(3.728 13.914)"><path class="a" d="M320.7,320.269l-4.617-8h9.234Z" transform="translate(-316.086 -312.271)"/><path class="a" d="M348.524,336.777h9.234l-4.617-8Z" transform="translate(-309.557 -308.948)"/></g><g transform="translate(13.915 3.728)"><path class="a" d="M324.566,313.027v-9.234l8,4.617Z" transform="translate(-324.566 -303.792)"/><path class="a" d="M341.074,340.847l8,4.617V336.23Z" transform="translate(-321.243 -297.263)"/></g><g transform="translate(23.212)"><path class="a" d="M332.305,308.686l4.617-8,4.617,8Z" transform="translate(-332.305 -300.688)"/><path class="a" d="M332.305,340.363l4.617,8,4.617-8Z" transform="translate(-332.305 -292.702)"/></g></g></svg>